<?xml version="1.0" encoding="UTF-8"?><svg id="Layer_2" xmlns="http://www.w3.org/2000/svg" xmlns:xlink="http://www.w3.org/1999/xlink" viewBox="0 0 1025.4 493.2"><defs><style>.cls-1{clip-path:url(#clippath);}.cls-2{fill:none;}.cls-2,.cls-3{stroke-width:0px;}.cls-4{opacity:.1;}.cls-5{clip-path:url(#clippath-1);}.cls-6{clip-path:url(#clippath-4);}.cls-7{clip-path:url(#clippath-3);}.cls-8{clip-path:url(#clippath-2);}.cls-9{clip-path:url(#clippath-7);}.cls-10{clip-path:url(#clippath-8);}.cls-11{clip-path:url(#clippath-6);}.cls-12{clip-path:url(#clippath-5);}.cls-13{clip-path:url(#clippath-9);}.cls-14{clip-path:url(#clippath-14);}.cls-15{clip-path:url(#clippath-13);}.cls-16{clip-path:url(#clippath-12);}.cls-17{clip-path:url(#clippath-10);}.cls-18{clip-path:url(#clippath-15);}.cls-19{clip-path:url(#clippath-16);}.cls-20{clip-path:url(#clippath-11);}.cls-21{opacity:.1;}.cls-22{opacity:.2;}.cls-23{opacity:.2;}.cls-24{opacity:.3;}.cls-25{opacity:.3;}.cls-26{opacity:.3;}.cls-27{opacity:.2;}.cls-28{opacity:.2;}.cls-29{opacity:.4;}.cls-30{opacity:.4;}.cls-31{opacity:.9;}.cls-3{fill:#fff;}</style><clipPath id="clippath"><rect class="cls-2" width="1025.4" height="493.2"/></clipPath><clipPath id="clippath-1"><rect class="cls-2" width="1025.4" height="493.2"/></clipPath><clipPath id="clippath-2"><rect class="cls-2" x="-9" y="-7" width="1043.4" height="501.2"/></clipPath><clipPath id="clippath-3"><rect class="cls-2" x="460.8" y="79.6" width="236.5" height="237.1"/></clipPath><clipPath id="clippath-4"><rect class="cls-2" x="474.8" y="291.1" width="147.8" height="144.5"/></clipPath><clipPath id="clippath-5"><rect class="cls-2" x="569.4" y="213.4" width="124.5" height="148.1"/></clipPath><clipPath id="clippath-6"><rect class="cls-2" x="460.8" y="307.1" width="256.3" height="350.4"/></clipPath><clipPath id="clippath-7"><rect class="cls-2" x="330.7" y="36.3" width="199.6" height="396.7"/></clipPath><clipPath id="clippath-8"><rect class="cls-2" x="227.3" y="136.3" width="213" height="203.8"/></clipPath><clipPath id="clippath-9"><rect class="cls-2" x="604.1" y="158.3" width="347.8" height="513.2"/></clipPath><clipPath id="clippath-10"><rect class="cls-2" x="31.5" y="155.3" width="266.5" height="517.5"/></clipPath><clipPath id="clippath-11"><rect class="cls-2" x="-64.6" y="-287.2" width="701.3" height="674.1"/></clipPath><clipPath id="clippath-12"><rect class="cls-2" x="733.3" y="112.9" width="213.2" height="204"/></clipPath><clipPath id="clippath-13"><rect class="cls-2" x="-107.8" y="-46.9" width="304.6" height="436"/></clipPath><clipPath id="clippath-14"><rect class="cls-2" x="737.1" y="227" width="325.4" height="318.9"/></clipPath><clipPath id="clippath-15"><rect class="cls-2" x="205.2" y="276.5" width="340.6" height="366.3"/></clipPath><clipPath id="clippath-16"><rect class="cls-2" x="581.9" y="-109.1" width="334.2" height="323.7"/></clipPath></defs><g id="Layer_1-2"><g class="cls-1"><g class="cls-5"><g class="cls-31"><g class="cls-8"><g class="cls-25"><g class="cls-7"><path class="cls-3" d="m524.8,89.5c-8.1.1-16,1.4-22.2,6.4-8.5,6.8-11,19.2-8,29.6,3,10.4,10.8,18.9,19.7,25.1l6.5.3c-9.3.3-18.6,1.7-27.7,4.2-2.7.8-5.5,1.7-7.5,3.7-2.2,2.2-3.1,5.3-3.9,8.2-2.6,9.5-5.3,19.1-7.9,28.6-1.3,4.6-2.5,9.3-1.7,14,.8,4.5,3.3,8.4,5.9,12.2,5.1,7.6,10.1,15.2,15.2,22.8,1,1.5,2.2,3.1,3.9,3.4.2,0,.4,0,.6,0,1.1,0,2.2-.5,3.2-1,7.7-3.8,15.4-7.6,23.1-11.4-3.7,6.6-7.4,13.3-11.1,19.9-1.2,2.2-2.5,4.6-2.2,7,.2,2,1.4,3.8,2.6,5.4,6.3,8.6,13.1,16.7,20.5,24.3,5.9,6,13.8,12.1,21.7,11.9,1.8,0,3.6-.4,5.3-1.1,7.5-3.1,12-14.2,17.5-19.3-1.2,8.6.2,24.5,9.4,28.2,2.3.9,4.6,1.3,7,1.2,7.1-.1,14.2-3.8,21.2-6.6,7.4-3,14-6.4,20.5-14.5,1.9-2.4,2.5-5.7,1.4-8.6-2-5.3-4-10.7-5.9-16,.6-.2,1.1-.4,1.7-.4,4.2,0,7.9,5.9,12.6,6.4.3,0,.5,0,.8,0,2.6,0,5-1.7,7.2-3.3,6.4-4.8,12.8-9.6,19.2-14.3,4.8-3.6,9.8-7.4,12.4-12.8.1-.2.2-.5.3-.7,3.1-7.1-1.7-15.1-9.3-16.3-6.2-1-12.3-2.8-18-5.4,6.2-2.5,12.5-5,18.7-7.5,3.3-1.3,5.3-4.6,5.1-8.2-1.3-18.6-8.5-36.8-20.5-51.2-1.2-1.5-2.6-3-4.4-3.8-1-.5-2.1-.6-3.1-.6-5.1,0-10.3,4.8-15.8,5.2,4.5-4.8,9-9.7,13.5-14.5.9-1,1.8-2,2-3.3.2-1.5-.6-3-1.3-4.3-6.2-10.5-13.1-20.9-22.5-28.7-8.6-7.2-19.5-12.2-30.7-12.1-1,0-2,0-2.9.2-12.2,1.2-23.8,10-26.3,21.9.1-8.3-.8-18.5-8.4-22-2.5-1.1-5.3-1.3-8.1-1.4-6.6-.3-13.1-.6-19.7-1-3.1-.2-6.4-.3-9.6-.2m62.2,132.9c-15.6.3-30.6-12.8-31.8-28.4-1.2-16.1,12.9-31.9,29.1-32.1.1,0,.3,0,.4,0h2c8.9.6,9.7,2.3,17.5,6.6,4.4,2.4,8.6,5.5,11,9.8,1.8,3.2,2.6,7,2.8,10.7.6,16.3-12.9,32-29.2,33.4-.6,0-1.3,0-1.9,0"/></g></g><g class="cls-24"><g class="cls-6"><path class="cls-3" d="m540.5,299.5c-9.5.2-18.9,5.5-22.6,14.2-4.3,10.2-3.3,25.2.4,35.6l.2.3c-5.2-2.7-11.2-5.5-16.9-5.4-2.3,0-4.6.6-6.7,1.8-2.8,1.6-4.9,4.3-6.4,7.1-6,11-4.2,26.4,5.6,34.3,4,3.3,9.2,4.8,14.4,4.7,7.4-.1,14.7-3.6,18.2-10.1-4.2,9.2-8.5,19.2-7,29.2,1.9,13,15.1,22.5,27.9,22.3,3.1,0,6.2-.7,9.1-2,1.4-.6,2.8-1.4,3.7-2.7,2-2.9.6-6.8-.8-10-4.2-9.6-8.4-19.2-12.6-28.8,8.5,13.5,24.6,21.4,40.4,21.2,5.1,0,10.1-1,14.8-2.9,4.5-1.8,9.1-4.7,10.3-9.4,1.1-4.4-1.1-8.9-3.2-13-5.4-10.1-11.2-20.7-20.8-27.1-4.7-3.2-10.7-4.9-16.3-4.8-5.4,0-10.5,1.8-14.2,5.6,7.8-8.7,12.4-20.4,11.2-31.9-1.3-12-9.5-23.4-21-27-2.5-.8-5.1-1.1-7.7-1.1m1.9,78.8c-1.2,0-2.3-.2-3.4-.6-3.2-1.2-5.9-3.8-7.2-6.9-1.3-3.2-1.3-6.9.2-10,.9-1.9,2.4-3.7,4.4-4.2.8-.2,1.4-.3,1.9-.3,1,0,1.7.4,3.1,1.3,2.4,1.7,5.6,3.9,7,6.3,2.1,3.7,2,8.6-.7,11.9-.9,1-2,1.9-3.3,2.3-.6.2-1.3.3-1.9.3"/></g></g><g class="cls-21"><g class="cls-12"><path class="cls-3" d="m678.9,220.6c-.3,0-.6,0-.9.2,0,0-.1,0-.2,0h0c-1.2.6-2,1.8-2.8,2.8-.9,1.1-1.8,2.2-2.7,3.4-1.7,2.3-3.4,4.6-5,6.9-3.2,4.7-6.2,9.6-9,14.5-5.8,10-11,20.4-16.5,30.6-2.6,4.8-5.2,9.6-7.8,14.5-3.3-3-7.8-4.7-12.4-4.7-.1,0-.2,0-.3,0-4.6,0-8.7,2-12.1,4.9-6.6,5.7-10.4,14.5-18.2,18.7-2.3,1.3-5,1.7-7.2,3.1-2,1.2-3.6,3.4-3.5,5.8.1,2.6,2.4,4,4.7,4.3,1.9.3,4.7,0,6.1,1.8.7.9.2,1.9-.3,2.8-.6,1-1.2,2-1.2,3.2,0,2.4,2.5,3.8,4.5,4.3,2.1.6,5.1.6,5.8,3.1.4,1.2.4,2.5,1,3.7.5,1,1.4,1.9,2.4,2.5,1,.6,2.1.9,3.3,1,0,0,.1,0,.2,0,.5,0,1,0,1.5-.2.7-.2,1.4-.5,2.2-.6,0,0,0,0,0,0,2.2,0,3.1,3.1,4,4.7.9,1.5,2.6,3,4.3,3,.6,0,1.2-.2,1.7-.6.4-.2.8-.8,1.3-.9,0,0,0,0,0,0,.5,0,.8.7.9,1.1.4,1.2.2,2.5,1,3.6.7,1,1.7,1.4,2.7,1.4,1.3,0,2.6-.7,3.4-1.7,1.7-2.1,2.1-5.1,2.3-7.7.4-5.5-.7-11.6,1.8-16.7,2.3-4.6,6.7-7.6,9.7-11.6,3-4.1,4-9.2,3.1-14.1-.4-2.4-1.4-4.8-2.8-6.9-.3-.5-.7-.9-1.1-1.4-.4-.5-1-1-1-1.7,0-.6.6-1.2.9-1.7.4-.6.9-1.2,1.3-1.8,3.4-4.9,6.5-10,9.3-15.3,2.8-5.3,5.3-10.7,7.4-16.3,1.1-2.8,2.1-5.6,3-8.4.9-2.7,1.9-5.4,3.2-8,2.4-4.5,6.3-7.5,9.8-11.1,1.6-1.6,3.2-3.5,4.2-5.5,1-2,1.6-4.1.8-6.3-.5-1.5-1.7-2.9-3.3-2.9"/></g></g><g class="cls-22"><g class="cls-11"><path class="cls-3" d="m674,314.8c-.8,0-1.6.1-2.4.3-5,1-8.3,5.1-9.1,10-1.2,6.8,1.8,13.2,2.4,19.9.3,3.7,0,7.6-3.1,10.1-1.3,1.1-3,1.8-4.6,1.8-1.8,0-3.4-.8-4.2-3-1.9-5,.3-10.5-4.8-14.1-1.3-.9-2.7-1.3-3.9-1.3-2.8,0-5.1,2.2-4.7,6,.5,3.6,2.4,7.5,3.8,10.8,1.6,3.7,3.3,7.3,5.2,10.8,1,1.9,2.1,3.7,3.2,5.6,1,1.6,3.4,5.7-.2,5.8,0,0-.2,0-.3,0-4-.1-7.4-7.4-9.2-10.2-5-7.5-9.7-15.2-14.1-23-.3-.6-.9-.8-1.5-.8-.8,0-1.5.5-1.7,1.3-1.5,8.5-.7,17.3,2.6,25.3,1.6,3.9,3.7,7.5,6.3,10.8,1.1,1.4,8.5,10.1,3.7,10.1-.4,0-1,0-1.6-.2-6.7-1.5-11.6-8.8-15.7-13.6-4.3-5.1-9.1-10-15.8-11.7-.2,0-.3,0-.5,0-1,0-1.7.8-1.7,1.8-.6,10.7,3.8,21.5,11.6,28.8,4,3.7,8.7,5.5,13.2,8.3,3.2,2,5.5,5.7,1.1,8.1-1,.6-2.1.8-3.2.8-2.6,0-5.4-1.2-7.8-2.1-7.1-2.8-14.2-5.7-21.2-8.5-3.9-1.6-9.4-4.9-14.2-4.8-1.2,0-2.4.3-3.4.8-3.4,1.7-4.2,5.4-3.3,8.8,1.3,5.2,5.4,8.8,9.5,11.9,10.2,7.7,22.6,11.8,35.3,12.2-2.4,4.3-7.1,6.9-12,7.9-1.4.3-2.7.4-4.1.4-5.4,0-10.8-1.7-15.7-4-5.9-2.8-11.3-6.6-17.4-9-2.4-.9-4.8-1.6-7.2-1.5-2.5,0-4.8.8-7,2.6-.5.5-.7,1.6-.2,2.1,11.3,14.5,30,18,46.6,23,4.6,1.4,9.8,3.3,10.1,8.9.2,4.2-2.4,8.6-5.8,10.9-2.3,1.5-4.8,2.2-7.2,2.2-7.8.1-16-5.9-21.2-10.8-6.8-6.5-13.3-14.9-22.6-17.8-1.8-.6-3.7-.8-5.4-.8-5.8.1-10.8,3.4-11.6,10.1-1,8.4,3.6,17.4,9.1,23.4,2.9,3.1,6.5,5.8,10.4,7.6,4.6,2.2,9.8,3,14.5,5,4.9,2.1,11.3,7.8,7.7,13.6-2,3.2-6.3,4.2-10,4.3-.7,0-1.4,0-2,0-8.1-.5-15.5-5.4-23.3-5.2-2.3,0-4.7.5-7.1,1.7-.9.4-1,1.7-.6,2.4,3.8,6.7,10.4,10.2,17.5,12.7,3.9,1.4,8,2.5,12,3.8,3.8,1.2,11.4,3,12.3,7.6,1,5.2-3.6,6.8-8,6.9-2.2,0-4.4-.3-5.8-.8-4.6-1.4-8.8-3.9-13.1-6.2-6.5-3.6-13.2-7-20.6-6.8-1.1,0-2.3.1-3.5.3-.9.2-1.4,1.4-1.2,2.2,2.1,7.2,7.7,11.8,14.1,15.1,3.6,1.8,7.4,3.3,11.1,4.8,4.1,1.6,8.6,3.1,12,6.1,1.9,1.6,3.9,4,3.9,6.6,0,3.3-2.9,4.5-5.7,4.5-.4,0-.7,0-1.1,0-5-.4-10.1-2.8-14.6-5.1-9.7-4.8-17.6-11.7-24.8-19.7-2.8-3.2-10.5-13-16.5-12.8-1.1,0-2.2.4-3.1,1.1-3.1,2.5-.9,7.5.3,10.4,1.5,3.7,3.6,7.1,6,10.3,5.2,6.9,11.8,12.6,17.8,18.7,6.5,6.7,16.2,16.8,13.4,27-1.7,6.1-7,11.4-11,16-4.1,4.6-8.4,8.9-12.9,13-9.3,8.4-19.4,15.9-29.9,22.6-2.1,1-4.3,1.7-6.5,2.4-1.1.4-2.3.8-3,1.9-1.4,2.3.5,4.5,2.7,5.1,1,.2,2.1.3,3.2.3,3.1,0,6.5-.9,9.3-1.5,4.7-1,9.2-2.5,13.6-4.4,8.8-3.8,16.8-9.2,23.6-15.9,3.3-3.2,6.2-6.8,8.8-10.5,2.6-3.8,4.8-10.1,9.3-12,.8-.4,1.7-.5,2.7-.5,4.8,0,10.5,3.7,14.1,5.8,4.9,2.9,9.4,6.5,13.5,10.6,4.9,4.9,11,11.2,18.3,11.1,1.5,0,3-.3,4.6-1,7.7-3.1,7.7-12.9,3.1-18.7-6-7.7-16.9-7.6-25.5-10-2.8-.8-6.8-2-8.8-4.3-2.6-3.1,1.3-4,3.9-4.1,0,0,.1,0,.2,0,5.9,0,11.7,1.4,17.7,1.3.5,0,1,0,1.5,0,10.3-.6,21-5,25.7-14.9.5-1.1-.1-2.7-1.5-2.6,0,0,0,0-.1,0-11.9,1-23.8,2.4-35.7,3-.5,0-1,0-1.5,0-3.5,0-7.5-.4-10.1-2.6-4.7-4.2,2-10.3,5.5-12.6,6.2-4,13.4-5,20.7-5.1,3.2,0,6.4,0,9.5.2,2.3,0,4.7.1,7,0,7.8-.1,15.5-1.1,22.9-4.2,9.7-4,18.2-10.4,24.5-18.7.8-1.1.5-2.5-.8-2.9-6.4-1.9-12.9-2.4-19.4-2.3-10.8.2-21.7,2.2-32.5,3-2.3.2-4.6.3-6.9.4-1.8,0-3.6,0-5.3-.1-1.7-.1-3.7-.3-5.3-1.2-3.4-1.8-2.6-5.1-.4-7.5,4.5-4.7,11.6-6.7,17.7-7.7,12.7-2.1,25.8-.4,38.3-3.8,5.3-1.4,10.2-3.9,14.1-7.8,1.8-1.8,3.8-4.2,3.3-7-.6-3.4-4.8-4.3-7.6-4.7-.9-.1-1.8-.1-2.7-.1-3,0-6,.7-9,1.4-3,.6-5.9,1.3-8.9,1.4-.5,0-1.1,0-1.6,0-3.1-.2-6.7-1.1-9-3.3-3.5-3.4-2.2-8.2.9-11.4,5.2-5.4,13.8-7.2,20.9-8.6,7.1-1.4,14.3-2.4,21.1-4.7,5.4-1.8,13.1-5.1,15.8-10.5,2.7-5.4-1.8-11-6.7-13-2.5-1-5-1.4-7.4-1.3-3.9,0-7.8,1.1-11.7,2.2-3.9,1.1-7.8,2.1-11.7,2.2-2,0-4.1-.2-6.2-.9-3.9-1.2-7-4.6-6.3-8.9.7-4.1,4.2-7.4,7.6-9.4,8.3-5,19-5.1,28.2-7.2,8-1.8,15.4-5.1,20.6-11.7,4.4-5.5,6.5-12.6,3.8-19.3-.3-.7-1.1-1.3-1.8-1.3-.4,0-.8.2-1.1.6-4.5,5.3-9.9,9.8-16.1,13.1-5.1,2.7-11.7,5.5-17.7,5.6-.5,0-1.1,0-1.6,0-4.1-.3-7.6-2.7-5.3-7.2,1.6-3.1,4.7-5.8,7.3-8.2,5.3-4.9,11.3-9,17.7-12.2,6-3,12.5-4.5,18.6-7.3,4.6-2.1,9.4-5.4,10.7-10.6,1.7-6.8-2.5-14.5-8.8-14.4-1.5,0-3.1.5-4.8,1.5-2.6,1.5-4.6,4.2-7.5,5.3-.7.3-1.6.5-2.5.5-.6,0-1.3,0-1.7-.4-2.1-1.4-.7-5.2-.2-7,1.8-7.5,4.8-14.4,7.4-21.6,2-5.5,3.2-12.3-.9-17.1-2.4-2.8-6.1-4.2-9.7-4.1"/></g></g><g class="cls-21"><g class="cls-9"><path class="cls-3" d="m346.8,46.4c-4,0-6.3,3.7-6.7,7.5-.8,6.8,2.6,14.2,5.4,20.1,3.8,7.8,9,14.7,15.2,20.7h-.2c0,0-.2-.2-.2-.2-1.2-1.1-2.4-1.6-3.6-1.5-3.9,0-7,5.7-5.3,9.8,2.1,5.3,8.2,9.2,12.3,12.8,4.8,4.3,9.5,8.5,14.3,12.8-2.7,1-4.6,3.5-4.9,6.5-.5,4.7,2.8,9,5.9,12.2,8.8,9.1,21.2,13.2,30.8,21.2,2.1,1.7,6.2,5,5.9,8.1-.2,2.2-2.9,3-5.3,3.1-.9,0-1.8,0-2.5-.3-2.1-.5-4.3-1-6.4-1.5-4.4-1.1-9.9-3.4-14.7-3.3-.8,0-1.7.1-2.5.3-9.3,2.1-2.1,13.6,2.3,16.8,9.4,6.7,21.8,7.7,31.5,13.9,2.4,1.5,7.8,4.4,8.9,7.2.2.3.4.5.6.8-1,1.1-1.9,2.2-2.9,3.4,0,0-.1,0-.2,0-.5,0-1.5-.4-1.9-.5-1.6-.4-3.2-1-4.8-1.5-3.7-1.3-7.7-3-11.7-2.9-1.2,0-2.4.2-3.5.6-11.7,3.8,4.6,15.6,8.9,18.6,5.4,3.8,11.2,6.9,17,9.9,2.9,1.5,5.9,3,8.8,4.6,1.3.7,2.7,1.5,4,2.2,1.4.8,5.8,3.2,5.5,5.1-.2,1-3.8,3.3-4.5,3.4,0,0,0,0,0,0-.7,0-1.7-.5-2.3-.7-2-.6-4-1.2-6.1-1.8-3.8-1.1-7.5-2.4-11.3-3.4-1.4-.4-3.1-.7-4.7-.7-1.9,0-3.8.6-4.9,2.4-2.3,3.8,1.4,8.3,4.1,10.7,4,3.5,9,5.3,13.8,7.1,13.5,5,24.3,12.9,32.7,24.7,8.6,12,13.7,26,17.9,40,4.5,15.2,8.4,30.6,12.5,46,2.1,7.9,4.3,15.9,6.4,23.8,1.7,6.4,2.5,14.5,6.3,20.1,1.6,2.4,4.5,4.3,7.4,4.3.7,0,1.4-.1,2.1-.4,4.1-1.5,4.7-6.2,4.7-10,0-15-4.5-30-7.8-44.5-3.6-15.8-7.3-31.7-11.3-47.4-2-7.9-4.2-15.7-6.4-23.5-2.3-7.9-5.5-16.3-3.7-24.7,2.4-11.2,13.1-20.2,12.2-32.3-.2-3.1-1.9-6.3-5.3-6.2-.1,0-.3,0-.4,0-4.6.4-7.5,5.4-9.8,8.8-4.2,6.1-8.3,12.1-12.5,18.2-6.2-4.8-.9-18.4,1.7-23.7,3.2-6.6,7.6-12.5,11.6-18.6,2.7-4.1,19-29.4,7.9-31.4-.4,0-.8,0-1.2,0-5,0-10.7,5.7-13.2,9.2-2,2.8-3.1,5.9-3.9,9.2-1.1,4.6-1.6,11.7-7.3,12.9-.5.1-1,.2-1.4.2-6.7.1-4.6-11-3.4-15.1,1.4-4.7,3.8-9,6.2-13.3,3.8-7.1,7.7-14.7,7.6-22.9,0-4.7-2.1-13.7-8.2-13.8,0,0-.1,0-.2,0-6.5.1-9,11-11,15.4-1.1,2.6-2.2,5.2-3.4,7.8-.4.9-.7,2-1.3,2.8-1,1.4-2.3,2-3.6,2-1.9,0-3.8-1.3-4.3-3.3-1.4-5.2,1.1-11.6,2.4-16.8,2.3-8.6,4.7-17.3,4.5-26.2-.2-7-2-14.4-6.5-20-1.7-2.1-3.6-3.1-5.3-3.1-2.1,0-4,1.6-5.2,4.7-1.2,3.1-1.2,6.6-1.5,9.9-.5,5.6-1.1,11.3-1.6,16.9-.4,4.5,0,12.6-4.4,15.3-.9.5-1.7.8-2.4.8-5.1,0-4.2-13.6-4.3-16.8-.2-11.8-.5-23.6-.7-35.4-.1-6.9,1.6-18.4-5.1-22.9-1.6-1.1-3.2-1.6-4.6-1.5-3.6,0-6.3,3.3-6.9,7.7-1.5,10.5-1.6,21.3-2.2,31.9-12.3-8.1-8-26.7-8.8-39.2-.4-6-1.7-12.2-5.6-16.9-1.5-1.9-3.7-3.5-5.8-3.5-1.2,0-2.5.6-3.5,2.1-1.4,1.9-1.6,4.4-1.6,6.7,0,1.4.2,2.7.1,4.1,0,.8-.8,3.8-2.3,3.9,0,0,0,0,0,0-.6,0-2.3-3.2-2.6-3.6-5.3-7.6-10.3-15.3-15-23.2-2.7-4.4-5.9-11.9-11.9-12.4-.2,0-.5,0-.7,0"/></g></g><g class="cls-22"><g class="cls-10"><path class="cls-3" d="m303.9,145.6c-7.1.1-14.3,4.2-16.4,11-1.4,4.5-.6,9.4,1.1,13.7,5.7,14.6,20.2,23.7,29.4,36.5,1.8,2.5,3.4,5.4,3.1,8.4-.3,2.5-2.6,4.8-4.9,4.9-.5,0-1,0-1.5-.3h.7c-8-14.2-21.9-24.2-36.9-30.7-6-2.6-12.4-4.7-18.9-4.6-.6,0-1.2,0-1.7,0-7.1.6-14.3,4.5-16.9,11.1-3.7,9.2,2.6,19.9,11.3,24.8,8.7,4.9,19,5.4,28.8,6.5,9.9,1,20.3,2.9,27.6,9.7,1.2,1.1,2.3,2.5,2.1,4-.2,1.6-1.7,2.6-3.2,3.3-5.8,2.9-12,3.7-18.4,3.8-4,0-8.2-.2-12.3-.4-4.1-.2-8.3-.5-12.4-.4-3.9,0-7.7.4-11.4,1.3-5.1,1.2-10.2,3.6-12.8,8-4.9,8.2.6,18.6,6.4,26.1,1.4,1.8,2.9,3.7,4.9,4.9,1.9,1.1,4,1.5,6.2,1.5,2.2,0,4.4-.5,6.5-1.1,14-4.1,25.8-13.8,35.6-24.7,2.1-2.4,4.2-4.8,7-6.4,1.5-.9,3.3-1.4,5.1-1.5,1.4,0,2.8.3,4,1,2.8,1.8,3.9,5.5,3.4,8.8-.5,3.3-2.3,6.3-4.1,9.1-4.2,6.5-8.8,12.8-13.8,18.7-6.6,7.6-14.5,15.7-14.4,25.7,0,10.1,9.4,18.8,19.5,19.4.5,0,.9,0,1.4,0,9.6-.2,18.5-6.9,22.2-15.8,6-14.4-.8-31,1.5-46.4.5-3.6,2.8-7.8,6.1-7.9.3,0,.7,0,1,.1,1.2.3,2.3,1.1,3.2,2,4.8,4.6,8.4,10.5,10.2,16.8,1.9,6.6,1.9,13.6,3.4,20.3,1.5,6.7,5,13.6,11.2,16.4,2.2,1,4.6,1.4,6.9,1.3,2.7,0,5.4-.6,7.9-1.6,3.7-1.4,7.3-3.9,8.8-7.6,2.6-6.4-1.9-13.3-6.4-18.5-7.1-8.2-15-15.7-23.4-22.4-1.9-1.5-4-3.1-5.1-5.3-1.1-2.2-1.1-5.2.7-6.8.9-.8,2.1-1.1,3.4-1.2,1.4,0,2.9.3,4.3.7,12.1,3.6,23.5,9.8,33.2,17.9,4,3.4,8.3,7.3,13.5,7.2,0,0,.2,0,.3,0,3.1-.1,6-1.8,8.5-3.7,4.3-3.2,8.2-7.5,9.2-12.7,1-5.5-1.3-11.2-5.2-15.3-3.9-4-9-6.6-14.3-8.4-7.5-2.6-15.4-3.8-23.3-3.7-1.5,0-3,.1-4.4.2-1.3.1-2.6.3-3.9.3-1.3,0-2.6,0-3.9-.5-2.5-.8-4.8-3.1-4.5-5.7.2-2.1,1.9-3.7,3.6-4.9,8.6-5.8,19.6-5.6,29.9-6.8,10.3-1.2,21.8-5.1,25.5-14.8,3.7-9.6-3.1-21.1-12.8-24.3-2.5-.8-5-1.2-7.6-1.1-7.5.1-15.1,3.7-20.4,9.2-6.9,7.2-10.9,17.4-19.6,22.1-1.7.9-3.8,1.5-5.8,1.6-2.5,0-4.8-.8-6.1-2.8-1.7-2.8-.8-6.4.4-9.4,4.8-12.4,12.6-23.6,22.6-32.3,4.3-3.7,9.3-7.8,9.3-13.4,0-2.6-1.1-5.1-2.7-7.1-3.9-5.2-10.4-7.8-16.9-7.6-3.3,0-6.5.8-9.4,2.2-8.7,4.3-14.2,13.9-14.9,23.6-.8,10.6,3.3,22.1-1.7,31.5-.8,1.4-1.8,2.8-3.2,3.6-.7.4-1.5.6-2.3.6-2.9,0-5.8-2.1-7.1-4.8-1.6-3.5-1.3-7.6-1-11.4.7-8.8.8-17.9-2-26.3s-9.1-16.1-17.6-18.5c-1.7-.5-3.5-.7-5.3-.7"/></g></g><g class="cls-4"><g class="cls-13"><path class="cls-3" d="m712.7,169.3c-1.2,0-2.6.4-3.9,1.2-1.3.8-1.5,2.3-.9,3.6,8.8,18.7,17.5,37.6,23.6,57.4,6.2,20.1,8.7,40.4,7.2,61.4-.8,10.8-2,21.7-1,32.5.8,9.1,3,18,6.1,26.6,6.7,18.5,17,35.2,25.9,52.6,6.5,12.8,12.5,26.7,15,40.9-1.6-3.5-3.6-6.9-6-10-5.6-11.9-12.8-23-21.5-33-2.8-3.2-5.7-6.3-8.7-9.2-3.5-3.3-7.4-6.3-10.6-9.9-6-6.9-7.2-16.7-10.9-24.9-4.1-9-10.1-17.1-16.1-24.9-5.7-7.3-11.6-14.4-18.7-20.5-10.1-8.6-23.3-15.2-36.7-14.9-3.6,0-7.2.6-10.7,1.7-16.2,5.1-28,20.5-28.8,37.4,0,1.7,1.1,2.5,2.4,2.5,1.1,0,2.3-.7,2.7-1.9,2.6-7,5.6-15.3,12.7-18.8,2.3-1.2,4.7-1.7,7.2-1.7,5.5,0,11.2,2.3,15.4,5.7,13.4,11.1,15.3,30.5,22.5,45.4,15.5,31.8,53.7,37.4,80.4,55.9,5.5,3.8,10.8,8.6,15,14.2,1.7,3.6,3.2,7.3,4.6,11.1.5,1.2,1.5,1.8,2.6,1.7h0c.3.9.6,1.8.9,2.6l1.3,7.3c.2,3.2,0,6.4-.7,9.7-.2.9-.4,1.7,0,2.2-5.1,4.1-1.1,15.2.6,20.1,1.8,5.1,4.1,10.1,7,14.7,2.8,4.5,6.2,8.6,8.5,13.4.5,1.1.9,2.1,1.3,3.2-.5.7-.6,1.7,0,2.7.3.5.6,1,.9,1.5,0,.7.1,1.4.2,2.1l-7.4,30.4c-.2-6.7-1.1-13.4-2.7-19.9,0-6.4-.4-12.9-1.2-19.2-.1-.9-.2-1.7-.4-2.6-.3-2.5-.7-5-1.4-7.5-.9-3.4-2.4-6.5-4.1-9.5-1.8-3.6-3.8-7.1-5.7-10.6-5.3-10.2-6.1-20.6-7-31.9-.7-9.7-2.1-19.8-8-27.8-5.4-7.3-13.7-12.4-22.7-13.6-1.7-.2-3.4-.3-5-.3-7.9.1-15.5,3-21.6,8.1-2,1.6-3.7,3.6-6.3,4.2-.7.2-1.5.3-2.3.3-1,0-2.1,0-3.2-.2-1.1,0-2.1-.2-3.2-.2-.2,0-.5,0-.7,0-4.2.3-8.1,2-11.4,4.7-3.5,2.9-5.7,6.8-6.7,11.2-1.2,5.5-.9,11.2-3.1,16.5-2,4.8-5.2,9-8.3,13.2-3.8,5.1-7.6,10.3-11.4,15.4-3.7,5-7.3,9.9-11,14.9-1.2,1.6.5,4,2.3,3.9.2,0,.5,0,.7-.2,13.7-5.7,18.9-19.6,26.4-31.3,3.9-6.1,9.1-12.6,16.4-14.8,2.3-.7,4.7-.9,7.1-.9.6,0,1.1,0,1.7,0,.6,0,1.1,0,1.7,0,3.9,0,7.7-.4,11.1-3.2,5.5-4.4,7.8-11.8,15-14.2,1.7-.6,3.3-.8,5-.9,5.6,0,10.9,2.8,14.2,7.7,3.9,5.8,5.6,12.8,8.2,19.2,2.7,6.5,6.7,12.2,11.2,17.6,1.3,1.5,2.6,3.1,3.9,4.6-1.2-1.2-2.6-2.3-3.9-3.3-7.5-5.6-17.3-8.9-26.8-8.7-7.3.1-14.5,2.3-20.5,6.9-17.1,13.3-15.8,37.1-16.7,56.5-.5,11.4-2.6,22.6-6.4,33.3-3.7,10.5-9.4,19.9-14.8,29.6-10.1,18.1-18.8,41.9-4.1,60.1.5.6,1.1.8,1.7.8,1.4,0,2.8-1.3,2.8-2.7.1-18.4.3-38.2,9.7-54.6,8.3-14.5,22.5-24.7,30.2-39.6,4.1-7.9,5.6-16.6,6.5-25.4.9-9.1,1.3-18.5,5.1-27,3.1-6.9,8.2-13.7,15.9-15.6,1.2-.3,2.5-.5,3.7-.5,6.8-.1,13.1,4,17.7,9,6.9,7.5,11.2,17.4,14,27.1.3.9.5,1.9.8,2.8,0,4-.1,8-.3,11.9-.3,7.5-2.9,20.8,7.4,23,.9.2,1.6.3,2.3.3,8.2-.1,7.5-12.9,8.3-19.1.7-5.9,1.4-11.7,2.1-17.6.2-1.3.3-2.7.5-4,3.2,5.2,6.3,10.4,9.5,15.6,4.9,8,10.2,15.9,14.4,24.3,4.3,8.6,5.1,17.4,4.6,26.9-.5,8.9-1.3,17.8,1,26.5.3,1.3,1.3,1.8,2.3,1.8,1.1,0,2.3-.7,2.7-1.9,7.7-21.8,9.3-45.4,4.4-68-1.2-5.6-2.8-11.2-3.8-16.9-1.1-6.2-1.1-12.5-.4-18.8.8-7.7,2.4-15.5,3.4-23.2.8-.2,1.6-.2,2.3-.3,12.1-.2,19.4,17.4,27.7,23.9,2.1,1.7,4.4,3,7,3.9,2.7.9,7.2,0,8.9,2.6,2.1,3,2.8,7.7,3.9,11.1,1.3,4.1,2.7,8.2,4,12.3.4,1.2,1.5,1.9,2.6,1.9.6,0,1.3-.3,1.8-.8,6.4-6.7,6.3-18.9,4.9-27.5-1.7-10.8-10.4-16-18.2-22.2-4.6-3.6-8.8-7.8-12.4-12.5-3.4-4.4-6.1-9.3-9.5-13.7-4.3-5.5-11.3-11-18.5-10.9-2,0-4,.5-6,1.5-1.6.8-2.9,2-3.9,3.4-2-1.9-4.6-3.2-7.7-3.5-.5,0-1,0-1.5,0-3.7,0-6.9,2-9.2,5-1.8,2.3-4.9,8.8-8.5,8.9-.8,0-1.6-.3-2.4-1-.3-.3-.6-.6-.9-.9,0-.2.1-.5.2-.8h0c.9-.1,1.7-.7,1.9-2,.3-2.3.6-4.6,1-6.9,3.6-6.2,9.7-11.2,14.1-16.4,3.6-4.2,6.3-8.6,8.2-13.7,2.3-6.2,4.5-11.6,9.3-16.3,8.1-8.2,18.8-13.3,27.6-20.6,9.4-7.8,16.8-17.9,21.7-29.1,5.5-12.4,7.9-26,6.7-39.5-.1-1.3-1.2-2.6-2.6-2.6-.2,0-.5,0-.8.2-9.3,3.7-12.7,13.4-20.7,18.5-5,3.1-11.3,3.1-16.8,4.9-5.3,1.7-9.8,4.8-13.7,8.7-4.3,4.2-7.9,9.1-11.5,13.9-3.8,5.1-7.4,10.3-10.4,15.9-5.9,11-8.6,23.3-10.6,35.5-2.1,13.2-3.8,26.4-5.7,39.6-1,1.9-1.8,3.8-2.3,5.9-.8-.8-1.7-1.5-2.7-2.2.8-.6,1.3-1.5,1.1-2.7-.3-1.7-.5-3.4-.8-5,1.3-18.1,2.6-36.2,3.9-54.3.1-.5.3-1.1.4-1.6,2.9-9.8,6.8-19.2,11.9-28,5.2-9.2,12.1-17.3,17-26.7,4.8-9.1,7.6-19.1,10.7-28.8,3.2-10,7-19.6,12.7-28.5,10.6-16.6,25.5-30.1,40.4-42.7,4.1-3.5,8.4-8.1,13.3-10.3,1-.4,2-.6,2.9-.7,3.8,0,6.6,3.2,8,7,3.7,9.6-.8,20.2,4.6,29.6.5.9,1.4,1.2,2.2,1.2,1.1,0,2.2-.7,2.6-1.9,3-11.5,3.8-24.6.5-36.2-3.2-11-13-12.4-23-13.4-3.1-.3-6.2-.5-9.4-.4-7.6.1-15,1.7-21.1,6.8-8.2,6.9-12.4,17.4-19.5,25.3-14.5,16.3-34.2,27.7-44.4,47.6-10.7,20.9-11.1,45.3-12.8,68.2-.8,10.8-1.6,21.7-2.4,32.5-5,17.9-6.3,36.8-4,55.2-.1,1.5-.2,3-.3,4.6-2.1-1.1-4.4-2-6.7-2.3,1.4-8.3,1.3-16.3.2-24.1,1-15.8,1.9-31.7,2.9-47.5.6-10.2,1.1-20.5-.3-30.6-1.4-10-4.8-18.8-10.2-27.4-2.9-4.5-5.8-9-7.4-14.1-1.6-5.1-2.1-10.5-2.2-15.9-.3-10.6.2-21.1-2-31.6-4.3-21.1-15.4-40.6-25.2-59.6-5.9-11.4-11.9-22.8-17.9-34.1-2.8-5.2-7.9-17.8-15.4-17.6"/></g></g><g class="cls-29"><g class="cls-17"><path class="cls-3" d="m176,164.3c-2.4,0-4.8,1-6.7,2.2-6.4,4.2-9.1,12.3-10.3,19.6-1.2,7.7-.9,15.6.8,23.2,3.4,15.3,12.2,29.5,24.9,38.9,1.5,1.1,3.1,2.2,4.8,3.2.1,0,.2.1.3.1.2,3.4.4,6.7.5,10.1-.2,0-.3,0-.5,0-.3-.1-.5-.6-.8-.9-.6-.8-1.3-1.6-1.9-2.4-2.4-2.8-5.1-5.4-8.1-7.6-6-4.7-12.8-8.2-19.9-11-7.2-2.8-14.7-4.9-22.2-6.5-2.7-.6-5.6-1.3-8.5-1.2-1.6,0-3.2.3-4.7.9-1.6.7-3.1,1.7-4.2,3.1-1.1,1.5-1.6,3-1.7,4.8-.3,4-2.9,7.3-3.9,11.1-.9,3.5-.3,7.1,1.7,10,4.5,6.7,12.3,8.7,19.6,10.7,3.9,1,7.8,2.2,11.2,4.4.6.4,1.2.8,1.7,1.3-2,4.4-1.9,9.7.5,13.9,1.7,3.2,4.5,5.7,7.4,7.9,3.1,2.3,6.4,4.3,9.9,6,6.3,3,13.2,4.9,20.1,4.8,1.3,0,2.7-.1,4.1-.3-.3,6.2-.6,12.4-1.1,18.6-.3,4.5-.7,9-1.2,13.5-7.3-8.7-14.7-17.4-23.4-24.8-4.4-3.8-9.2-7.2-14.3-10-5.3-2.9-11.3-5.4-17.4-6-.6,0-1.3,0-2,0-5,0-10.2,2.3-12.5,7-2.9,5.9,1.3,11.9,4.7,16.6,7.8,10.7,18.3,19.2,28.1,28.1,4.6,4.2,9.1,8.8,15.2,10.6,4,1.1,8.3,1.4,12.4,1.3,1.4,0,2.8,0,4.2-.2.8,0,1.5-.1,2.2-.2-1.4,10-3,19.9-5,29.9-6-10.1-13.8-19.2-22.9-26.7-5-4.1-10.4-7.8-16.1-10.9-5.5-3-11.9-6.5-18.4-6.3-.5,0-1.1,0-1.6.1-6.4.7-10.9,5.4-13.7,10.9-2.8,5.6-4.6,12.5-4,18.9.3,3.4,1.5,6.6,3.6,9.3,2.1,2.7,4.9,4.8,7,7.5,2,2.6,3.7,5.4,5.7,7.9,2.1,2.6,4.5,4.8,7.6,6.1,6.3,2.9,13.8,2.8,20.6,2.8.8,0,1.6,0,2.4,0,7.3-.1,14.5-.8,21.7-1.9,1.6-.2,3.1-.5,4.7-.8-.2,1.1-.5,2.1-.7,3.2-4.3,18.5-9.6,36.6-15.6,54.6-.7-8.4-2.4-16.7-5.6-24.5-3.6-8.9-9.3-17.5-17.2-23.2-3.5-2.5-7.8-4.5-12.2-4.4-.5,0-1.1,0-1.6.1-5,.7-8.6,4.6-9.7,9.4-1.4,5.8.5,11.8,2.3,17.3,1.8,5.4,4.3,10.4,8,14.8,4.3,5.2,9.7,9.7,14.7,14.3,5.1,4.7,10.2,9.4,15.2,14.1-1.2,3.4-2.4,6.8-3.7,10.2-1,2.6-1.9,5.2-2.9,7.8-.2-5.5-2.3-10.7-5.7-15-4-5-9.2-8.9-14.2-12.8-2.8-2.2-5.6-4.3-8.5-6.3-2.6-1.9-5.2-3.7-8.1-5.1-3.4-1.7-7.3-2.8-11.1-2.7-1.9,0-3.8.4-5.6,1-12.2,4.5-10.1,20.2-6.2,29.8,2.3,5.6,5.5,10.7,9.3,15.4,3.8,4.8,7.9,9.4,12.5,13.4,4.5,3.9,9.7,7.3,15.6,8.4,1.7.3,3.5.5,5.3.4,2.7,0,5.3-.5,7.9-1.3-2.9,8.6-5.6,17.3-7.9,26.1-2-14.1-13.9-23.8-25.8-30-7.1-3.7-14.6-6.6-21.8-10.3-3.6-1.8-6.9-4-10.4-6.1-3.3-1.9-6.8-3.6-10.6-4-.9-.1-1.7-.2-2.6-.1-2.6,0-5.3.7-7.4,2.2-2.5,1.8-4.2,4.5-5,7.4-2,7.2,1.1,14.1,5,20.1,3.9,5.9,8,11.8,12.8,16.9,4.5,4.9,10,9.2,16.4,11.3,3.5,1.1,6.9,1.5,10.4,1.5,11.8-.2,23.5-5.9,35.2-7,.2,0,.3,0,.5,0,.5,0,1,0,1.5.2.2,0,.5.2.7.4.2.2.2,0,0,.3-.2.5,0,.9.3,1.1-1.5,6.1-2.8,12.3-3.9,18.6-4.3,26.1-4.3,53.7,4.8,78.9,1.1,3,2.3,6,3.6,8.9.2.4.4.5.7.6,3,2.1,6.5,2.8,10.1,2.7.8,0,1.6,0,2.5-.1.8,0,1.3-.7,1.1-1.5-4.8-27.9-4.7-56.4-1.8-84.5,1.3-12.9,3.2-25.8,5.6-38.5,7.7.2,15.1,2.7,22.6,4.3,3.6.7,7.4,1.3,11.1,1.2.5,0,1.1,0,1.6,0,4-.3,8-1.2,11.8-2.7,3.7-1.6,7.2-3.7,10.3-6.3,3.3-2.9,6-6.4,8.6-10,5.5-7.9,10.8-15.9,16.2-23.9,2.7-4,5.5-8.1,8.2-12.1,2.4-3.6,5-7.2,6.2-11.4,1.1-3.6.8-7.6-1.7-10.6-2-2.4-5-3.7-8.1-4.1-.7,0-1.5-.1-2.2-.1-6.7.1-12.2,4.5-16.7,9.3-2.9,3-5.7,6.2-8.7,9.1-3.1,3.1-6.4,6-9.7,8.8-13.3,11.2-28,20.5-42.8,29.6-1.1.7-2.3,1.4-3.4,2.1,1.2-5.5,2.4-11,3.6-16.5h0c4.2-4.9,10.1-7.8,16-10.2,5.8-2.4,11.6-4.5,17.1-7.4,10.6-5.6,20.5-13.1,27.6-22.9,3.4-4.8,6.1-10.1,7.7-15.8,1.5-5.2,2.5-12.6-3.1-15.8-1.6-.9-3.3-1.3-5.1-1.2-4.5,0-9.2,2.7-12.6,5.2-2.8,2-5.3,4.4-7.9,6.7-2.6,2.3-5.2,4.7-7.8,7-9.5,8.7-18.6,17.9-25.9,28.6,4.8-19.2,9.8-38.2,14.5-57.4,2,1.8,4.1,3.5,6.3,5.1,1.5,1,3.1,2.1,4.9,2.7.7.2,1.3.3,2,.3,1.1,0,2.2-.3,3.2-.8,3.7-1.6,7.3-3.7,11-5.5,3.6-1.8,7.2-3.7,10.8-5.5,13-6.7,26-14.2,35.2-25.9,4.3-5.5,7.8-11.7,9.7-18.5,1.7-5.9,3.3-14.5-1.8-19.2-2.1-2-5.1-2.8-7.9-2.8-.2,0-.4,0-.6,0-3.7.2-7.1,1.9-10.2,3.9-6.3,4.1-12.2,8.8-18.1,13.6-11.6,9.5-22.9,19.6-35.9,27.2-1,.6-2,1.2-3.1,1.5,2.3-10.6,4.5-21.3,6.3-32,2.5.6,5,.9,7.4.8,10.5-.2,20.4-5.9,27.7-13.5,4.6-4.8,8.5-10.4,11.9-16.2,3.7-6.1,6.8-12.6,9.3-19.3,2.4-6.1,4.7-12.6,5.3-19.2.4-4.1-.1-8.4-2.3-11.7.1,0,.3-.1.4-.2,9.5-7.9,17.5-17.6,23.5-28.4,3.1-5.5,5.5-11.5,5.9-17.9.3-5.2-1.1-10.7-4.3-14.9-3.4-4.4-8.4-6.8-14-6.7-.2,0-.4,0-.6,0-5.9.3-11.7,2.8-16.6,6-9.9,6.4-17.2,16.1-23.2,26.1-3.4,5.6-6.5,11.4-9.8,17.1-1.6,2.8-3.3,5.6-5.1,8.3-1.6,2.5-3.3,5.3-5.7,7.2-.9.7-1.9,1.2-3.1,1.2-.2,0-.3,0-.5,0,0,0,0,0-.1,0-.1,0-.2,0-.3,0-.5-11.1-1.6-22.1-3.5-33.1,7.3-1.4,11.2-8.9,12.4-15.7.8-4.5.8-9.1,1.5-13.6.4-2.2.9-4.4,1.9-6.4,1-2,2.4-3.8,3.3-5.8.9-1.9,1.3-4,.8-6.1-.5-2.2-1.9-4.2-3.3-5.9-1.2-1.5-2.5-3.4-4.6-3.7-.2,0-.4,0-.6,0-1.8,0-3.3,1.2-4.3,2.6-1.3,1.9-1.5,4.1-1.6,6.3,0,2,0,4.4-1.8,5.8-.6.5-1.3.8-1.9.8-.7,0-1.3-.4-1.6-1.3-.7-2.4-1-5.1-1.5-7.5-1-5.3-2.1-10.5-3.1-15.8-.9-4.7-1.8-9.5-3.2-14.1-.7-2.2-1.6-4.4-2.6-6.4-1-1.9-2.2-4-3.9-5.4-1.4-1.1-3-1.6-4.7-1.6m9.9,116.3c1.7,0,3.3-.3,4.9-.6,0,2.2,0,4.5,0,6.7-2.6-2.1-5.2-4.1-7.8-6.2.5,0,1,0,1.5.1.5,0,1,0,1.4,0m13.6,12.9c1.3,0,2.6-.5,3.6-1.2h25c-4.4,3.3-8,7.8-11.2,12.1-4,5.4-7,11.4-9.7,17.5-2.4,5.4-4.9,11.1-8.9,15.6-.4.5-.9,1-1.4,1.4,0-.9.2-1.8.3-2.7,1.3-14.2,1.9-28.6,1.4-42.9.1,0,.2,0,.4,0,.2,0,.4,0,.6,0"/></g></g><g class="cls-27"><g class="cls-20"><path class="cls-3" d="m609.1-19.8c-.2-.3-.6-.5-1.1-.5-4.2.2-8.2-1.3-12.2-2.2-4.4-1-8.9-1.2-13.2-2.2-4.6-1.1-9.1-2.2-13.8-2.9-4.4-.7-8.8-1.4-13.2-1.9-8.5-.9-17.4-1.1-25.7,1.3-7.9,2.3-14.2,7.8-21.4,11.5-1.9,1-3.9,1.8-5.9,2.5-2.4.9-4.7,1.9-7.1,2.9-4.7,1.9-9.5,3.8-14.5,4.1h-.1c-3.1-1.5-6.2-3-9.4-3.9.3-.4.6-.8.9-1.2,3.9-4.4,9.9-6.3,15.5-7.8,6.6-1.7,13.1-3.4,19.2-6.7,5.8-3.2,11.1-7.6,14.6-13.2,3.6-5.7,5.4-12.2,7.9-18.4,1.5-3.7,3.2-7.3,5.6-10.5,2.5-3.3,5.8-5.4,9.3-7.5,1-.6.9-1.7.3-2.3-.4-.5-1.1-.7-1.8-.3-.2,0-.3.2-.5.3h-.2c-13.8-1.8-28.1,1.1-40.2,7.9-6.6,3.7-12.7,8.6-17.3,14.6-4.5,6-7.2,13.3-8.7,20.6-.8,4.1-1,8.3-1.9,12.4-.7,3.3-2.4,6.1-4.3,8.8-.6.7-1.2,1.5-1.8,2.3-.7-2.4-.2-4.9.4-7.3.7-3,1.5-5.9,1.9-8.9.8-6.3.5-12.9-1.1-19.1-.9-3.3-2.4-6.2-4.5-8.9-.3-.4-.7-.8-1-1.2-1.9-2.3-4-4.4-6-6.6-.3-.4-.6-.7-.9-1.1-3.8-4.5-6.8-9.6-8.8-15.1-1.8-4.9-2.9-10-3.3-15.1,1.2,0,2.5-.2,3.7-.6-.8,3.1-.2,6.6,1.9,9.1.4.5.9,1,1.5,1.4,4,3,9.8,2.1,13.1-1.4,3.7,3.4,9.7,4.9,14.1,1.8,3.4-2.4,4.7-7.1,3.4-10.8,3.9.2,8-1.7,9.9-5.2,1.8-3.3,1.4-7.3-.4-10.4,3.4-.5,6.6-3,7.1-6.6.3-2.2-.5-4.3-1.8-5.9-1.2-1.5-3-2.6-4.8-3,1.6-2.7,2-6,.9-9-.4-1.1-1-2.1-1.7-3-.9-1-1.9-1.9-3.1-2.5,1.3-1.3,2.1-3.2,1.9-5.1-.1-1.3-.6-2.4-1.4-3.3-1.1-1.3-2.7-2.2-4.5-2.6.5-1,.7-2,.8-3.1.1-2.3-.7-4.5-2.2-6.3-.4-.4-.8-.8-1.2-1.2-3.4-2.9-8.2-3.8-12.3-2.3,0-1.7-.7-3.4-1.8-4.8-.1-.2-.3-.3-.4-.5-1.5-1.5-3.4-2.2-5.4-2.4,1.7-3,1.4-7.2-.8-9.9-.3-.4-.7-.8-1.1-1.1-2.4-1.8-5.7-2.3-8.6-1.4-3.1.9-5.4,3.2-6.6,6.2-.6,1.4-.8,3-.7,4.5-.1,0-.3,0-.4,0-1.6-.2-3,.3-4.4,1.1-.2-1.4-.8-2.7-1.8-3.8-.9-1-2-1.8-3.2-2.3-3.7-1.3-7.2.7-9.4,3.6-.4-.9-.9-1.7-1.5-2.4-.5-.5-1-1-1.6-1.5-2.7-1.9-6.7-1.9-9.3.3-2.6,2.2-3,6.1-1.9,9.2.5,1.4,1.2,2.5,2.1,3.6.8.9,1.7,1.8,2.7,2.5-.6.2-1.2.5-1.7.8-1.1.7-2,1.5-2.7,2.5-.4-1.7-1.3-3.4-2.4-4.8-1.8-2.1-4.3-3.6-7.2-3.8-6.9-.6-12.8,5.6-11.8,12.4.3,2.1,1.2,4,2.6,5.6.3.4.7.7,1,1.1-4.2,2.3-5.8,8.3-3,12.6.2.4.5.7.8,1.1,4.2,5,12.4,5.9,17.2,1.2.2-.2.3-.4.4-.6,2.5,1,5.5.4,7.4-1.5,1,.9,2.1,1.6,3.3,2.2-2.4,2.7-3.5,6.5-2.3,10,.4,1.2,1,2.3,1.8,3.2,1.9,2.3,4.7,3.7,7.7,3.8.4,1.6,1.2,3.1,2.3,4.4,0,0,0,0,0,0-4.7,5.9-9.7,11.7-14.6,17.5-5.5,6.6-11.1,13.1-16.9,19.5-11.5,12.8-23.7,25-37.2,35.7-7.1,5.6-14.9,10.6-20.2,18h0c0-.4,0-.8.1-1.1.2-.9.5-1.8.8-2.7.5-1.6,1-3.2.9-4.9,0-.9-.3-2-.9-2.7-.5-.6-1.2-.9-2.2-.7-1.9.4-2.6,2.7-3.2,4.2-1.1,2.6-1.9,5.2-2.4,8-20,14-39.9,28.3-59.6,42.8-17.2,12.7-34.3,25.6-51.2,38.7,2.4-4.2,4.6-8.5,5.9-13.1,2.2-7.5,1.6-15.3,0-22.9-1.5-7.7-4-15.1-5.6-22.8-.8-3.7-1.3-7.5-1.4-11.4,0-4.7.7-9.3,1.9-13.8,2.7-10.7,6.1-21.3,9.6-31.8.3-.2.6-.5.7-.9,1.3-5.8,8-9.6,13.5-7.3,1.9.8,3.6,2.1,5.3,3.2,1.6,1.1,3.3,2.1,5,3,3.4,1.7,7,3,10.7,3.9,7.2,1.6,14.5,1.4,21.6-.2,6.8-1.5,13.3-3.9,19.9-5.8,7.2-2.1,14.8-3.7,22.3-2.4,1.4.2,2.5-1.4,1.6-2.4-.1-.1-.3-.3-.5-.4-7.6-4.3-15.3-8.4-23.1-12.3-6.7-3.3-13.5-6.8-20.6-9.2-6-2.1-12.5-3.5-18.9-2.8-3.2.3-6.4,1.3-9.3,2.8-3.7,1.9-7,4.7-10.2,7.4-6.5,5.4-13.1,10.8-19.6,16.2-.3,0-.6-.2-1-.3.1-4.9.6-9.8,3-14.1,3.3-5.9,9.8-7.8,15-11.6,2.5-1.9,4.6-4.3,5.6-7.3,1-3.3.7-6.8.6-10.2-.3-7.2-1.1-14.4-2.1-21.6-.9-6.5-1.9-13.6,1.3-19.7.3-.6.2-1.3-.2-1.8-.5-.6-1.4-.8-2.1-.1-5.3,5.7-11.1,10.9-17.5,15.3-3,2.1-6.2,3.9-8.9,6.3-2.7,2.3-4.7,5.1-6.1,8.3-2.6,5.9-3.3,12.7-3.6,19.1-.1,3.3,0,6.7.8,9.9.8,3.4,2.4,6.5,4,9.6,1.8,3.4,3.5,6.7,4.8,10.4.7,2.2,1.3,4.5,1.7,6.8-.9,0-1.7-.1-2.6-.1-3.2-1.1-6.6-1.4-10-1.2-6.2.4-12.3,2-18.6,1.7-6.2-.2-12.3-1.3-18.5-1.3-5.5,0-11.1.5-16.5,1.5-11,2-21.7,6.2-31.2,12.2-4.8,3-9.3,6.5-13.4,10.4-4.5,4.2-8.4,9-12.1,13.9-8.8,11.7-16.7,24.8-29.6,32.4-1,.6-.9,1.7-.4,2.3.4.5,1.1.7,1.8.3C85.6,1.6,96.8.7,107.7,0c5.6-.3,11.2-.7,16.7-1.4,5.7-.8,11.4-2.1,16.9-4-5.5,4.2-10.6,9.2-13.2,15.7-2.5,6.5-1.7,13.7-4.2,20.2-2.4,6.1-7,11.3-6.8,18.1,0,3.4,1.1,6.6,2.2,9.7,1.2,3.2,2.3,6.5,3.2,9.8,1.7,6.8,2.3,13.8,1.8,20.8-.1,1.7-.3,3.4-.5,5.1,0,.4,0,.7.3,1,.7.8,2.3.7,2.7-.5,8-26.8,34.6-41.2,53.5-59.4,5-4.9,9.7-10.2,13.6-16,3.4-5.2,6-10.9,8-16.8,3.9-11.3,5.7-23.2,9-34.7,1.9-6.4,4.2-12.7,7.6-18.4,2-3.3,5.2-7.9,9.3-9h0s0,0,0,0c0,0,.1.2.2.3.5.6,1.3.7,2,.3.2,0,.3.1.5.2-3.2,9.5-6.2,19-8.8,28.7-1.3,4.7-2.5,9.5-2.9,14.4-.3,3.8,0,7.7.5,11.5,2.1,14.7,9.4,29.2,7.4,44.4-.7,5.2-2.8,10-5.3,14.6-1.3,2.4-2.7,4.8-4.1,7.2-.5.7-1,1.4-1.5,2.1-1.1.8-2.1,1.7-3.2,2.5-20.2,15.8-40.2,31.8-59.9,48.1-19.8,16.3-39.3,32.9-58.6,49.7-9.6,8.4-19.3,16.8-28.7,25.4-4.7,4.3-9.2,8.7-13.6,13.3-2.2,2.4-4.3,4.8-6.4,7.2-1.6,2-3.5,3.9-4.6,6.2-1,2.1-.7,4.2.5,5.6,1.1,1.3,2.9,2.1,5,1.8,2.5-.3,4.5-2.2,6.1-4,2-2.3,3.9-4.7,6-7,8.4-9.6,17.2-18.8,26.4-27.6,13.4-12.8,27.4-24.8,41.7-36.5l50.2,1.1c7.9,3.2,15.7,6.7,24.4,6.9,7.6.2,15.1-1.7,22.6-3.1,1-.2,2-.3,3-.5-1.8,3.2-5.7,4.6-9.1,5.2-4.3.7-8.6.6-12.8,1.9-7.7,2.3-14.2,7.7-18.2,14.6-3.8,6.7-5,14.7-4,22.3.5,3.8,1.7,7.4,3.2,10.9.8,1.7,1.7,3.5,1.7,5.3,0,1.8-.9,3.4-2.2,4.7-2.8,2.9-6.6,4.6-8.9,8-2,2.9-2.8,6.6-.4,9.6,0,0,0,0,0,0,.5.6,1.5.5,2.1,0,2.9-2.4,6.3-4.2,9.9-5.3,3.7-1.1,7.4-1.1,11.2-1.8,7.7-1.4,13-8,17.8-13.7,4.8-5.7,8.9-11.8,9.7-19.4.7-7-1-13.9-1.7-20.8-.7-6.9-.2-15.1,4.9-20.3,1.1,1.6,2.2,3.1,3.3,4.6,3,5.8,4.2,12.6,4.3,19.2.2,9.8-1.4,19.5-1,29.3.3,9.1,2.1,18.2,5.2,26.7,1.6,4.4,3.5,8.6,5.7,12.6,2.3,4.3,4.8,8.4,6.9,12.8,4.4,9.2,5.6,19.3,2.5,29.1-.2.5,0,1,.2,1.3.5.6,1.5.8,2.2.2,16.3-13.9,20-36.4,20.2-56.7.1-10.1.1-20.6-3.8-30.1-2.3-5.5-5.6-10.5-9.5-15.1-2.8-3.3-5.8-6.4-8.9-9.4-6.8-6.5-14.1-12.7-20.1-19.8-.5-.5-.9-1.1-1.4-1.7-1-1.8-2.1-3.6-3.4-5.2.6,0,1.2,0,1.9,0,.2.1.4.2.7.2,1.9,0,3.7.2,5.6.3,1.6.3,3.2.7,4.8,1.3,4.5,1.7,8.3,4.9,11.6,8.3,2.1,2.2,4.1,4.6,6.1,6.9.6.8,1.3,1.5,1.9,2.3.6.7,1.2,1.5,1.9,2.2.2.2.3.4.5.6,7.1,8.4,14.2,16.8,21.3,25.3.1.2.3.3.4.5.7.8,1.4,1.6,2,2.5.7.8,1.3,1.6,2,2.4,2,2.4,4,4.7,6.1,6.9,3.6,3.7,7.7,6.6,12.5,8.7,4.4,1.9,9.1,3.3,13.8,4.5,4.5,1.1,9.1,1.9,13.8,2,9.1.3,18.6-2.1,25.6-8.2,1.7-1.5,3.2-3.2,4.4-5,.4-.6.3-1.2,0-1.6-.4-.4-1-.7-1.6-.6-4.6.5-9.6.7-13.8-1.5-2.4-1.3-4.5-3.1-6.2-5.2-1.4-1.7-2.6-3.5-3.7-5.3-2.8-4.5-5.1-9.2-8-13.7-1.9-2.9-3.9-5.8-6.2-8.5-1.2-1.5-2.5-2.9-3.9-4.2-7.2-6.9-16.3-11.2-25.7-14.1-9.7-3-19.8-4.9-29.9-6.4-9.7-1.5-19.5-2.4-29.4-2.9-2.4-.4-4.9-.5-7.4-.4.9-1.1,1.8-2.2,2.6-3.4.8-1.2,1.7-2.4,2.4-3.8,5.8-1.1,11.7-1.2,17.5-.2,5.5.9,11.4,2.3,16.5-.7,4.8-2.8,6.2-8.2,3.6-13.1-.4-.8-1-1.6-1.6-2.3-3.2-3.8-8.2-5.6-12.5-7.8-5.8-2.9-11.2-6.6-16-10.9-2.3-2.1-4.5-4.3-6.5-6.6-1.6-1.8-3.4-3.7-5.6-4.7-5.3-2.5-10.1,1.4-11.8,6.4-1.8,4.9-1.1,10.4.8,15.2,1.3,3.2,3.2,6.2,5.4,8.9.1.2.3.3.4.5,2.1,2.6,4.6,4.8,6.9,7.2,0,.1.2.2.3.3.9,1,1.5,2.2,1.2,3.6-.3,1.5-1.2,2.9-2,4.1-1.7,2.8-3.7,5.3-5.9,7.6-.7,0-1.5.2-2.2.3-1.5.2-2.9.5-4.4.7l-37.3-.8c-2-.8-4-1.6-6-2.4-8.5-3.5-17.1-5.9-26.3-6.5-4.4-.3-8.8-.2-13.2.3-1.7.2-3.3.4-5,.7,2.8-2.2,5.5-4.4,8.3-6.7,20-16,40.4-31.6,60.8-47,20.4-15.5,40.9-30.9,61.3-46.4,20.3-15.6,40.5-31.3,60.4-47.6,1.9-1.6,3.9-3.2,5.8-4.8.3,2.5,1.1,5,2.4,7.2.2.3.4.7.7,1,.7.9,1.7,1.5,2.9,1.6,1.4.1,2.7-.6,3.3-1.9.6-1.3.4-2.9.2-4.4,2.6,2,5.3,3.8,8,5.6.9.5,1.9,0,2.2-.9,1.3-3.7,0-6.7-2.3-9.4-1.4-1.7-3.2-3.3-4.8-4.9.4,0,.8,0,1.2,0,2.6,3,5.3,5.9,8.6,8.1,3.4,2.4,7.4,3.9,11.5,4.8,8.2,1.9,16.8,2.4,25.2,1.7,1.9-.2,3.9-.4,5.8-.6.1.2.3.4.4.6,2.5,3.9,4.3,8.3,5.1,12.9.9,5.3,0,10.6-1.5,15.7-3.4,11.2-8.7,22-14.9,31.9-3.3,5.4-7,10.5-11,15.4-.2-1.5-.5-3-1-4.5,2.3-1,3.8-3.4,4-5.9.2,0,.4-.2.6-.4,3.9-3.9,5.2-10.8,1.5-15.2-.3-.4-.6-.7-1-1-4.4-3.9-11.7-3.4-14.1,2.4-.4-.3-.7-.7-1.2-1-2.2-1.5-5.1-2.1-7.6-1-3.7,1.7-4.2,5.5-3.4,9.1-3.1-.9-6.8-.2-9.1,2.4-2.1,2.4-2.8,5.5-2.3,8.5-1.2-.4-2.5-.5-3.7-.3-3.6.4-6.3,3.3-6.9,6.7-.5,2.8.2,5.6,1.9,7.7.5.6,1.1,1.1,1.8,1.6,1.2.9,2.7,1.4,4.1,1.6-1.2,1-2.2,2.3-2.6,3.9-.6,2.5.2,4.8,1.7,6.7,1.2,1.4,2.7,2.5,4.4,3.1-1.1,3.5-.5,7.5,1.9,10.3,0,.1.2.2.3.3,2.5,2.7,6.2,3.7,9.7,3.2,0,1.8.6,3.6,1.8,5,.2.2.3.4.5.6,2.2,2.2,5.2,2.9,8.2,3.1.1.9.6,1.8,1.2,2.6.4.5,1,1,1.6,1.3,1.8,1,3.8.9,5.7.5,0,2.5,1.1,5,2.7,6.9,2,2.4,5.1,4,8.4,3.8,5.2-.3,9.3-5,9.8-9.9,1.3.6,2.8.8,4.2.4,1.9-.5,3.4-1.9,4.2-3.7,2.9,2,7,2.2,10,.3,3-2,4.5-5.7,3.9-9.2,1.9-.3,3.7-1.5,4.8-3.2,1.7-2.6,1.3-5.8-.6-8.1,0,0,0-.1-.1-.2-1.9-2.2-5-3.2-7.8-3,.8-1.1,1.5-2.4,1.8-3.9.4-2.2,0-4.4-1.5-6.2,0-.1-.2-.2-.3-.3-.3-.3-.6-.6-1-.8,2-1.8,3.1-4.5,2.1-7.2-.2-.6-.5-1-.9-1.5-1.9-2.3-5.6-2.7-8.1-1-.4-.7-.8-1.3-1.3-1.9-3.7-4.4-10.4-5.4-15.5-2.1-1.6,1-2.9,2.3-4,3.9-.8,1.2-1.7,3.5-3.2,3.9-1.5.3-3-2.1-4.3-2.7-.6-.3-1.2-.5-1.8-.6v-.2c.3-.3.5-.5.7-.8,4-4.8,7.7-9.8,11.1-15,6.7-10.3,12.2-21.4,16.2-33,1.9-5.4,3.2-11.1,2.7-16.8-.4-5-1.9-9.8-4.3-14.2-.4-.7-.8-1.4-1.2-2,5.3-.8,10.5-1.9,15.7-2.9,8.7-1.7,17.5-3,26.4-3.9,4.8-.5,9.7-1.3,14.6-.9,3.1.2,6.2.9,9.2,2.1-1.4,1.2-2.6,2.7-3.6,4.2-1.5.6-3.2.9-4.9.8-2.6-.2-5.2-1.1-7.8-1.5-2.3-.4-4.5-.4-6.8,0-9.1,1.3-16.7,8.3-21.2,16-3.1,5.4-5.3,12.2-10.7,15.8h0c-.1,0-.2.1-.3.2-.7.6-.6,1.5,0,2.1.4.5,1.1.8,1.8.3.3-.2.6-.4.9-.7,3.3-2.4,7.5-2.9,11.5-3,4.6-.2,9.2,0,13.7-1,4.9-1.1,9.4-3.5,13.2-6.8,3.9-3.4,6.5-7.8,8.7-12.4,1.2-2.4,2.4-5,3.9-7.4,1.3-.6,2.5-1.5,3.6-2.5,0,.6,0,1.2.1,1.8.2,2.4.6,5-.3,7.3-1.3,3.2-5.2,4.5-7.6,6.7-2.6,2.3-4,5.5-5,8.8-1.9,6.2-3.3,13.1-1.1,19.4,2,5.8,5.6,11.1,8.2,16.6,2.7,5.7,4.7,12.1,3.1,18.5-.1.5,0,1,.3,1.3.5.6,1.5.8,2.2.2,9.3-7.2,13.4-19.1,13.9-30.5.5-11.9-2.3-23.9-5.3-35.3-1.5-5.8-3.3-11.4-5.2-17.1.4-.2.7-.6.8-1,3.7,1.1,7.1,2.9,10.5,4.7,4.5,2.3,8.9,4.7,13.3,7,8.8,4.6,17.8,9,27.4,11.5,19.4,5.1,39.6.6,56.7-9.3,11.1-6.3,20.9-14.6,30-23.6.6-.6.5-1.5,0-2.1m-265.1-3.6c4.6-5.7,10.8-9.8,16.6-14.3,6.8-5.2,13.2-10.9,19.4-16.8,12.5-11.9,23.8-24.9,35-38.1,5.4-6.4,10.9-12.8,16.1-19.4.6.4,1.3.8,2,1.1-2.9,3.6-4.6,8.5-2.1,12.8.2.4.5.7.8,1.1,1,1.1,2.2,2,3.6,2.4-5.5,8.4-6.8,19.2-6.2,29.2.5,6.9,1.2,14,3.9,20.4,2.2,5.3,5.7,10.1,9.4,14.6.9,1.1,1.8,2.1,2.7,3.1,2.7,3,5.7,5.7,9.2,7.7,3.4,2.1,7.1,3.8,9.8,6.8.2.3.5.4.8.5,0,0,0,.2,0,.3-1.9-.7-3.8-1.2-5.8-1.5-4.1-.7-8.3-.5-12.4,0-8.9.9-17.7,1.9-26.5,3.5-7.7,1.4-15.3,3.1-23.1,4.2-.5-.7-1-1.3-1.5-1.9-4.8-5.7-11-10-17.9-12.8-10.7-4.2-22.6-4.7-33.9-2.9m4.3,6c1.5-.5,2.8-1.3,3.9-2.4.4-.4.5-1,.4-1.5,15.2-.7,30.9,3.5,40.8,15.3.2.2.3.4.5.6-7.9.9-15.8.9-23.6-.3-4.5-.7-9.1-1.8-13.2-4.1-3.4-1.9-6.3-4.6-8.9-7.6m54.3,122.6c0,0-.1-.2-.2-.3.2,0,.3-.1.5-.2-.1.1-.2.3-.3.4M176.2-27.1c8.3-8.3,15-18.1,24.1-25.6,5.9-4.9,13.4-8.9,21.1-9.6-1.8.5-3.6,1.2-5.3,2.2-6.1,3.5-10,9.2-14.1,14.6-2.4,3.2-4.9,6.3-8,8.7-3.2,2.5-6.8,4.3-10.5,6-2.5,1.2-4.9,2.4-7.3,3.7"/></g></g><g class="cls-26"><g class="cls-16"><path class="cls-3" d="m810,122.3c-7.1.1-14.3,4.2-16.5,11-1.4,4.5-.6,9.4,1.1,13.7,5.7,14.6,20.2,23.7,29.4,36.5,1.8,2.5,3.4,5.4,3.1,8.4-.3,2.5-2.6,4.8-4.9,4.9-.5,0-1,0-1.5-.3h.7c-8-14.2-22-24.2-36.9-30.7-6-2.6-12.4-4.7-18.9-4.6-.6,0-1.2,0-1.7,0-7.1.6-14.3,4.5-17,11.1-3.8,9.2,2.6,19.9,11.3,24.8,8.7,4.9,19,5.4,28.8,6.5,9.9,1,20.3,2.9,27.6,9.7,1.2,1.1,2.3,2.5,2.1,4-.2,1.6-1.7,2.6-3.2,3.3-5.8,2.9-12,3.7-18.4,3.9-4,0-8.2-.2-12.3-.4-4.1-.2-8.3-.5-12.4-.4-3.9,0-7.7.4-11.4,1.3-5.1,1.2-10.2,3.6-12.8,8-4.9,8.2.6,18.6,6.4,26.1,1.4,1.8,2.9,3.7,5,4.9,1.9,1.1,4,1.5,6.2,1.5,2.2,0,4.4-.5,6.5-1.1,14-4.1,25.8-13.8,35.6-24.7,2.1-2.4,4.2-4.8,7-6.4,1.5-.9,3.3-1.4,5.1-1.5,1.4,0,2.8.3,4,1,2.8,1.8,3.9,5.5,3.4,8.8-.5,3.3-2.3,6.3-4.1,9.1-4.2,6.5-8.8,12.8-13.9,18.7-6.6,7.6-14.5,15.7-14.4,25.8,0,10.1,9.4,18.9,19.5,19.4.5,0,.9,0,1.4,0,9.6-.2,18.6-6.9,22.2-15.8,6-14.4-.8-31,1.5-46.4.5-3.6,2.8-7.8,6.1-7.9.3,0,.7,0,1,.1,1.2.3,2.3,1.1,3.2,2,4.8,4.6,8.4,10.5,10.2,16.9,1.9,6.6,1.9,13.6,3.4,20.3,1.5,6.7,5,13.6,11.3,16.4,2.2,1,4.6,1.4,6.9,1.3,2.7,0,5.4-.6,7.9-1.6,3.7-1.4,7.3-3.9,8.8-7.6,2.6-6.4-1.9-13.3-6.4-18.5-7.1-8.2-15-15.7-23.4-22.4-1.9-1.5-4-3.1-5.1-5.3-1.1-2.2-1.1-5.2.7-6.9.9-.8,2.1-1.1,3.4-1.2,1.4,0,2.9.3,4.3.7,12.1,3.6,23.5,9.8,33.2,17.9,4,3.4,8.4,7.3,13.5,7.2,0,0,.2,0,.3,0,3.1-.1,6-1.8,8.5-3.7,4.3-3.2,8.2-7.5,9.2-12.7,1-5.5-1.3-11.2-5.2-15.3-3.9-4-9-6.6-14.3-8.4-7.5-2.6-15.4-3.8-23.4-3.7-1.5,0-3,0-4.4.2-1.3.1-2.6.3-3.9.3-1.3,0-2.6,0-3.9-.5-2.5-.8-4.8-3.1-4.5-5.7.2-2.1,1.9-3.7,3.6-4.9,8.6-5.8,19.6-5.6,29.9-6.8,10.3-1.2,21.8-5.1,25.5-14.8,3.7-9.6-3.1-21.1-12.8-24.3-2.5-.8-5-1.2-7.6-1.1-7.5.1-15.1,3.7-20.4,9.3-6.9,7.2-10.9,17.4-19.7,22.2-1.7.9-3.8,1.5-5.8,1.6-2.5,0-4.8-.8-6.1-2.8-1.7-2.8-.8-6.4.4-9.4,4.8-12.4,12.6-23.6,22.6-32.3,4.3-3.7,9.3-7.8,9.3-13.5,0-2.6-1.1-5.1-2.7-7.2-3.9-5.2-10.4-7.8-16.9-7.7-3.3,0-6.5.8-9.4,2.2-8.7,4.3-14.2,13.9-14.9,23.6-.8,10.6,3.3,22.1-1.7,31.5-.8,1.4-1.8,2.8-3.2,3.6-.7.4-1.5.6-2.3.6-2.9,0-5.8-2.1-7.1-4.8-1.6-3.5-1.3-7.6-1-11.4.7-8.8.8-17.9-2-26.4-2.8-8.4-9.1-16.1-17.6-18.6-1.7-.5-3.5-.7-5.3-.7"/></g></g><path class="cls-3" d="m-23.7,334.2c-2.3,0-4.6.4-6.7,1.2-7.8,3-12.6,11.5-12.9,19.8-.3,8.4,3.4,16.4,8.5,23.1l4.7,1.8c-6.9-2-14.1-3.2-21.3-3.5-.6,0-1.3,0-1.9,0-1.6,0-3.1.2-4.5.9-2.1,1.1-3.5,3.1-4.8,5.1-4.2,6.4-8.4,12.7-12.6,19.1-2,3.1-4.1,6.2-4.6,9.9-.5,3.5.4,7,1.4,10.4,1.9,6.8,3.8,13.6,5.7,20.3.4,1.3.8,2.8,2.1,3.4.5.3,1.1.3,1.7.3.5,0,.9,0,1.4-.1,6.5-1,13.1-1.9,19.6-2.9-4.3,4-8.6,8-12.9,11.9-1.4,1.3-2.9,2.8-3.3,4.6-.3,1.5.2,3.1.6,4.6,2.6,7.8,5.7,15.4,9.3,22.7,3.4,6.9,8.9,14.5,16.5,14.4.2,0,.5,0,.7,0,6.3-.5,12.1-7.6,17.4-10-2.9,6-5.7,18,.2,22.9,3.5,2.9,7.8,3.5,12.4,3.4,3.2,0,6.4-.5,9.5-.7,6.1-.4,11.8-1.4,18.5-5.7,2-1.3,3.2-3.6,3.1-6-.2-4.4-.4-8.8-.5-13.1,0,0,.2,0,.3,0,3.9,0,5.1,6.2,8.8,7.8.7.3,1.5.4,2.3.4,1.4,0,2.9-.5,4.3-1,5.8-2,11.6-4,17.4-6,4.4-1.5,8.9-3.1,12.1-6.4.1-.1.3-.3.4-.4,3.9-4.5,2.4-11.5-2.9-14.1-4.3-2.2-8.3-4.9-11.9-8.2,5.2-.4,10.3-.7,15.5-1.1,2.7-.2,5-2.1,5.7-4.8,3.5-14,2.5-29-2.9-42.4-.6-1.4-1.2-2.8-2.3-3.8-1.4-1.2-3.1-1.6-4.9-1.5-1.1,0-2.3.2-3.5.3-1.2.2-2.4.3-3.6.3-1,0-1.9,0-2.9-.3,4.5-2.5,8.9-4.9,13.4-7.4.9-.5,1.8-1,2.3-1.9.5-1,.3-2.3,0-3.4-2.1-9.2-4.7-18.4-9.6-26.4-5-8-12.6-14.7-21.8-16.7-1.8-.4-3.7-.6-5.5-.5-7.6.1-15.2,3.8-19,10.4,2.1-6.1,3.8-13.8-.9-18.1-1.6-1.4-3.6-2.2-5.6-3-4.7-1.8-9.5-3.6-14.2-5.4-5.8-2.2-12-4.4-18-4.3m31.8,114.9c-1.8,0-3.6-.1-5.3-.6-12.3-2.8-20.9-16.6-17.9-28.8,2.4-10,12.5-17.3,22.7-17.5,2.2,0,4.5.3,6.6,1l1.5.5c6.4,2.5,6.6,4,11.3,9,2.6,2.8,5,6.1,5.8,9.8.6,2.8.3,5.7-.5,8.5-2.9,10.4-13.4,17.9-24,18.1"/><g class="cls-23"><g class="cls-15"><path class="cls-3" d="m71.5-37.8c-1.3,0-2.5,1.5-2.2,2.8,3.2,15.4,6.7,31.8,1.9,47.2-4.2,13.6-14.2,24.6-17.9,38.4-2,7.3-1.6,14.8-.8,22.3.9,7.7,2.3,15.6.7,23.3-1.3,6.3-4.4,12.9-10.4,15.9-2,1-4,1.4-6.1,1.5-4.7,0-9.4-2-13.2-4.7-7.1-5-12.5-12.5-16.6-20-.4-.7-.8-1.5-1.2-2.2-.7-3.3-1.3-6.7-1.9-10-1.1-6.3-1.4-17.8-10.3-17.8,0,0-.1,0-.2,0-9.1.2-5.8,11.9-5.2,17.6.5,5,.9,10,1.4,15,.1,1.1.2,2.3.4,3.4-3.6-3.8-7.2-7.5-10.8-11.3-5.5-5.8-11.3-11.4-16.4-17.6-5.2-6.4-7.4-13.5-8.7-21.5-1.2-7.5-2.2-15-5.7-21.8-.4-.8-1.1-1.2-1.8-1.1-1.1,0-2.2.9-2.4,2.1-2.5,19.5.6,39.4,8.7,57.3,2,4.5,4.4,8.8,6.2,13.4,2,5,3.2,10.2,3.8,15.6.8,6.6.8,13.3,1.4,19.9-1.4.6-2.8.9-4.1.9-9.2.2-17.6-11.5-25.1-15.1-2.1-1-4.2-1.7-6.5-2-.2,0-.5,0-.7,0-.7,0-1.4.1-2.1.2-.7,0-1.4.2-2.1.2-1.1,0-2.1-.2-2.9-.9-2.3-2.1-3.7-5.9-5.3-8.5-1.9-3.2-3.7-6.3-5.6-9.5-.4-.8-1.2-1.1-2-1.1-.7,0-1.4.3-1.8,1-4.1,6.8-1.8,16.8.9,23.8,3.3,8.6,11.5,11.4,19.2,15.2,4.5,2.2,8.7,4.9,12.6,8.1,3.6,3,6.7,6.6,10.4,9.7,3.9,3.2,9.4,6.1,14.7,6,2.6,0,5.2-.8,7.4-2.7,1.2-1,2.1-2.2,2.6-3.5,1.7,1,3.7,1.6,6,1.6.4,0,.7,0,1.1,0,3.7-.4,6.4-2.8,8-6,1.1-2.4,2.6-8.9,6-9,.5,0,1.1.1,1.6.5.3.2.6.4.9.6,0,.2,0,.4,0,.7h0c-.7.3-1.3.9-1.2,2,.1,2,.3,3.9.4,5.9-1.8,5.8-6,11.1-8.8,16.2-2.2,4.1-3.7,8.3-4.3,12.9-.7,5.6-1.7,10.4-4.8,15.3-5.3,8.3-13.2,14.5-19.2,22.2-6.4,8.2-10.7,18-12.8,28.1-2.3,11.3-1.8,23,1.6,34.1.3.9,1.3,1.8,2.3,1.8.3,0,.7-.1,1-.3,7-4.7,8.1-13.5,13.9-19.1,3.6-3.5,8.8-4.6,13.1-7.1,4.1-2.3,7.3-5.8,9.8-9.7,2.8-4.3,4.9-9,7.1-13.6,2.2-4.9,4.3-9.9,5.7-15.1,2.9-10.2,2.9-20.9,2.3-31.5-.7-11.3-1.6-22.6-2.5-33.9.5-1.7.8-3.5.8-5.3.8.5,1.7.9,2.6,1.3-.6.6-.8,1.5-.4,2.5.5,1.3,1.1,2.7,1.5,4,2.2,15.3,4.4,30.6,6.6,45.9,0,.5,0,.9,0,1.4-.6,8.6-2.2,17.2-4.8,25.5-2.7,8.6-6.9,16.6-9.3,25.3-2.4,8.4-2.9,17.2-3.7,25.9-.8,8.9-2.3,17.5-5.4,26-5.8,15.8-15.7,29.6-25.9,42.9-2.8,3.6-5.5,8.3-9.2,11-1.1.8-2.3,1.2-3.4,1.2-2.7,0-5.2-2-6.8-4.5-4.8-7.3-3-17-9.2-23.7-.4-.5-1-.7-1.6-.7-1.1,0-2.2.9-2.3,2.1-.4,10.1,1.3,21.1,6.2,30.2,3.4,6.3,8.8,7.6,14.7,7.5,2.2,0,4.5-.3,6.8-.6,9-1,18.4-3.3,24.2-10.9,5.6-7.2,7.2-16.7,11.6-24.6,9.1-16.2,23.4-29.2,28.3-47.7,5.1-19.3,1-39.7-1.8-59-1.3-9.2-2.6-18.3-4-27.5.9-15.8-1.4-31.7-6.7-46.7-.2-1.3-.4-2.6-.6-3.9,1.7.5,3.6.8,5.3.8.2,0,.4,0,.7,0,.4,7.1,1.9,13.8,4.2,20.1,2.1,13.3,4.2,26.7,6.3,40,1.3,8.6,2.8,17.2,5.8,25.4,3,8.1,7.4,14.8,13.5,20.9,3.2,3.2,6.4,6.4,8.7,10.4,2.3,4,3.6,8.4,4.7,12.8,2.2,8.8,3.7,17.6,7.4,25.9,7.4,16.8,20.2,30.9,31.8,45,7,8.4,14,16.8,21.1,25.1,3.1,3.6,9,12.1,14.8,12,1.4,0,2.9-.6,4.3-1.9.9-.9.8-2.2,0-3.1-10.7-14-21.4-28.1-30.1-43.4-8.8-15.6-14.6-32-17.2-49.7-1.3-9.1-2.3-18.4-5.1-27.2-2.3-7.4-5.8-14.5-9.9-21-8.9-14.1-20.6-26.1-31.1-39-7.8-9.5-15.2-19.9-19.9-31.3,2,2.6,4.3,5.1,6.8,7.2,6.8,8.9,14.9,16.8,23.9,23.6,2.9,2.2,5.9,4.2,8.9,6,3.5,2.1,7.3,3.9,10.6,6.3,6.2,4.7,9,12.6,13.6,18.7,5.1,6.8,11.5,12.4,18,17.8,6,5,12.3,9.9,19.2,13.6,7.7,4.1,16.7,6.9,25.4,6.7,5.7,0,11.2-1.4,16.4-4.3,12.5-7.2,19.6-22.1,17.1-36.3-.2-1.2-1-1.7-1.9-1.7-1.1,0-2.3.8-2.5,2.1-.9,6.3-1.9,13.7-7.1,18-2.7,2.2-6,3.2-9.4,3.2-3.5,0-7.1-.9-10.1-2.4-13.2-6.8-18.3-22.6-27-33.6-18.7-23.6-51.4-21.4-77-31.9-5.3-2.2-10.5-5.2-15-9.1-2.1-2.7-4-5.5-5.8-8.4-.5-.8-1.2-1.1-1.9-1.1-.2,0-.4,0-.5,0-.4-.7-.8-1.3-1.2-2l-2.4-5.8c-.8-2.6-1.2-5.3-1.2-8.2,0-.8,0-1.5-.5-1.8,3.5-4.3-1.8-12.8-4.1-16.6-2.4-3.9-5.2-7.6-8.5-10.9-3.1-3.2-6.7-6.1-9.5-9.6-.6-.8-1.2-1.6-1.6-2.5.3-.7.2-1.5-.5-2.2-.3-.3-.7-.7-1-1-.2-.6-.4-1.1-.5-1.7l.6-26.6c1.4,5.5,3.4,10.9,5.9,16.1,1.2,5.3,2.7,10.6,4.5,15.8.2.7.5,1.4.8,2.1.7,2,1.5,4,2.5,5.9,1.4,2.6,3.2,5,5.2,7.2,2.2,2.7,4.5,5.2,6.6,7.8,6.3,7.5,8.8,16,11.6,25.2,2.4,7.9,5.3,16.1,11.7,21.7,5.4,4.7,12.4,7.4,19.5,7.3.6,0,1.2,0,1.8,0,8.2-.7,15.7-4.9,20.8-11.4,1.3-1.7,2.4-3.6,4.4-4.6,2.4-1.2,5.2-.9,7.7-1.7,3.4-1,6.4-3.1,8.6-5.9,2.4-3,3.5-6.7,3.6-10.5,0-4.8-1.3-9.5-.4-14.3.8-4.3,2.7-8.4,4.5-12.4,2.2-5,4.4-9.9,6.6-14.9,2.1-4.8,4.3-9.6,6.4-14.4.6-1.4-.9-2.9-2.2-2.9-.3,0-.7.1-1,.3-10.4,7.2-12.2,19.8-16.2,30.8-2.1,5.8-5.3,12.1-10.9,15.3-5.6,3.2-12.7,1.9-17.2,7.3-3.8,4.7-4.3,11.2-9.9,14.5-2.2,1.3-4.5,1.9-6.8,2-3.7,0-7.4-1.4-10.3-4.2-4.3-4.1-7-9.6-10.3-14.5-3.5-5-7.8-8.9-12.5-12.6-1.3-1.1-2.7-2.1-4.1-3.2,1.2.7,2.5,1.4,3.9,2,5,2.3,10.6,3.4,16.2,3.3,8.9-.2,17.7-3.4,23.4-10.4,11.8-14.2,6.4-33.7,3.6-50-1.6-9.5-1.9-19.2-.7-28.8,1.2-9.4,4.2-18.3,7-27.3,5.1-16.9,8-38.2-7.5-50.7-.4-.3-.8-.4-1.1-.4"/></g></g><g class="cls-28"><g class="cls-14"><path class="cls-3" d="m954.1,235.8c-.1,0-.2,0-.4,0-4.2.2-8.3,2.1-11.3,5-3.7,3.5-6.1,8-7.9,12.7-3.6,9.2-5.4,19-5.4,28.9,0,.1,0,.3,0,.4-3.2.4-6.1,2.3-8.3,4.6-3.7,3.8-6.5,8.5-9,13.1-2.8,5-5.1,10.2-7,15.5-1.8,5-3.2,10.2-3.8,15.5-1.1,10.2,1.5,21.6,10.1,27.9-5.6,6.6-11.1,13.3-16.4,20.2-.3-.8-.5-1.8-.7-2.7-2-11.8-1.5-23.9-1.6-35.8,0-6-.1-12-.9-18-.4-2.9-1.1-5.8-2.8-8.2-1.4-2-3.6-3.5-6.1-3.9-.4,0-.8,0-1.1,0-5,0-9,5-11.5,8.8-3.2,4.6-5.2,9.9-6.4,15.3-2.5,11.5-.4,23.4,2.1,34.7.7,3.2,1.4,6.3,2.1,9.4.7,3.2,1.3,6.4,2.2,9.5.4,1.4,1.1,2.6,2.3,3.4,1.2.8,2.7,1.2,4.1,1.6,2.1.6,4.2,1,6.3,1.3-9.4,12.6-18.5,25.4-27.8,38.1,2.9-9.9,3.8-20.2,4.4-30.4.1-2.8.2-5.6.3-8.3,0-2.7.2-5.5,0-8.2-.3-4.6-1.6-11-6.5-12.8-.8-.3-1.6-.4-2.3-.4-3.8,0-6.9,3.6-8.9,6.6-2.6,3.9-4.5,8.2-5.7,12.8-2.4,9.3-2,19.2,0,28.6,1,4.9,2.7,9.5,4.2,14.3,1.5,4.8,2.7,9.9,1.9,14.9h0c-2.7,3.6-5.5,7.2-8.3,10.7-.2-1-.3-2.1-.5-3.1-2-13.7-3.7-27.4-3.7-41.3,0-3.5.2-7,.4-10.4.3-3.3.8-6.6,1.1-9.9.7-5.7.5-12-4-16.2-1.8-1.7-4.1-2.9-6.6-2.8,0,0,0,0,0,0-3.1,0-5.6,1.9-7.3,4.4-1.9,2.9-2.8,6.3-3.8,9.6-1.1,3.7-2.2,7.5-3.2,11.2-2.1,7.4-4.4,14.7-6.4,22.1-.9,3.4-1.7,6.8-1.8,10.3,0,3.2.4,6.4,1.4,9.5,1,3.1,2.4,6,4.3,8.6,2,2.7,4.5,5.1,7.2,7.2,4.8,3.8,10.1,7.1,14.1,11.7-6.6,7.9-13.5,15.6-20.7,23-15.7,16.1-33.1,30.6-52.6,41.9-.6.3-.7.9-.4,1.5,2,2.9,4.5,5.4,8,6.4.1,0,.3.2.5.2,0,0,.2,0,.2,0,2.5-.7,4.9-1.4,7.3-2.3,20-7.3,36.9-21.3,50.7-37.3,3.3-3.8,6.4-7.8,9.4-11.8,0,0,0,0,.1,0,.2,0,.5-.1.7-.4,0-.1,0-.2.1-.2s0,0,.1,0c.2,0,.4.1.6.2.5.3.8.6,1.1,1.1,6.9,10,9,23.8,19.9,30.7,4.6,2.9,9.9,4,15.3,4.3,1.6,0,3.3.1,4.9,0,4,0,8-.4,12-.9,5.6-.6,11.5-2.3,14.8-7.2,1.4-2,2.2-4.4,2-6.9-.2-2.8-1.8-5.3-3.8-7.2-2.2-2.1-5-3.4-7.9-4.4-3-1.1-6.1-2-9-3.3-5.9-2.5-11.5-5.6-17.4-8.1-5.8-2.4-12.2-4.2-18.5-4.1-4.5,0-9,1.1-13,3.6,4.2-5.9,8.2-11.9,12-18.1,1.3,3.3,3.4,6.2,6.1,8.5,3.7,3.1,8.4,4.5,13.1,5.3,4.5.7,9.1.9,13.6.8.3,0,.6,0,.9,0,4.8-.1,9.6-.7,14.2-2.2,7.9-2.5,18.6-9.2,15.1-19-1.6-4.4-5.4-7.5-9.5-9.3-2.3-1-4.8-1.7-7.2-2.4-2.7-.7-5.5-1.4-8.2-2-4.9-1.1-9.9-2.3-15-2.2,0,0,0,0-.1,0-4.4,0-8.6,1.5-12.1,4.1,1.1-1.9,2.2-3.8,3.3-5.7,1.4-2.5,2.9-5,4.4-7.5,5.5.7,10.9,1.4,16.4,2.1,5.4.7,10.8,1.7,16.2,1.7.2,0,.3,0,.5,0,4.4,0,8.6-1.1,12.6-2.7,4.3-1.6,8.9-3.6,11.8-7.4,2.4-3.2,2.9-7.3.8-10.8-2.1-3.3-5.9-5.3-9.6-6.3-3.1-.8-6.2-1.1-9.4-1.1-4.6,0-9.2,1-13.6,2.3-6.4,2-12.3,5.2-17.8,9.1,7.9-12.8,16.3-25.3,25.5-37.3.5-.7,1.1-1.4,1.6-2.1.6,1.1,1.2,2.2,1.9,3.3,3.3,5.5,7,10.8,11.1,15.7,3.5,4.2,7.2,8.7,12.2,11.2,2.4,1.1,4.9,1.6,7.6,1.5,0,0,0,0,0,0,2.6,0,5.1-.5,7.7-.5,0,0,.1,0,.2,0,1.3,0,2.6.1,3.9.2,1.3.1,2.6.3,3.9.2,0,0,0,0,0,0,2.7,0,5.3-1,7.5-2.5,4.2-2.8,7.5-7.5,9.5-12.1,2-4.5,2.5-9.6-.3-13.9-3.1-4.7-9-7.1-14-9.1-4.8-1.9-9.8-3.3-14.9-4.3-5.5-1-11.1-1.5-16.7-1.4-3.8,0-7.6.4-11.3,1,5.1-6.2,10.3-12.3,15.7-18.2.3.5.7,1,1,1.5,2.6,3.5,5.5,7.1,9.2,9.6,4.2,2.9,9.3,3.2,14.2,3.9,9.4,1.3,19,3.1,28.5,3,1,0,1.9,0,2.9-.1,4.6-.3,10.4-.8,12.6-5.6,1.9-4.3,0-9.2-3.1-12.3-3.4-3.4-8-5.8-12.5-7.6-4.3-1.7-8.8-2.9-13.4-3.7-8.9-1.5-18-1.7-27.1-1.7,2.5-2.6,5.1-5.1,7.7-7.6,3.5-3.4,7.2-6.8,10.8-10.1,3.6,5.7,9,9.8,15.1,12.5,2.8,1.3,5.7,2.3,8.7,3,2,.5,4,.8,6.1.8.8,0,1.7,0,2.5-.3,3.8-.8,7.1-3.4,8.8-6.8.6.1,1.1.3,1.7.4,3.1.9,5.8,2.7,8.4,4.6,4.6,3.3,9.5,6.8,15.3,6.7.4,0,.8,0,1.2,0,2.8-.3,5.4-1.7,7-4.1,1.8-2.5,2.5-5.8,4.8-8.1,1-1,1.8-2.1,2.1-3.5.3-1.4.2-2.8-.3-4.1-1.1-3.4-4.2-5.8-6.9-7.9-4.8-3.8-9.9-7.3-15.3-10.3-5.3-2.9-10.9-5.2-16.9-6.5-2.9-.6-5.8-1-8.8-1-.5,0-1,0-1.5,0-.3,0-.6,0-.9,0-.2,0-.4,0-.6,0-.1,0-.3,0-.4,0-.1,0-.2-.1-.3-.2,2.1-1.6,4.3-3.2,6.4-4.8,0,0,.2,0,.3.1,1.4.5,2.9.9,4.4,1.3,4.2,1,8.5,1.5,12.8,1.4,8.2-.1,16.4-2.2,23.7-6,5.5-2.9,10.5-6.7,14.6-11.3,3.9-4.4,7.4-10.2,6.7-16.2-.4-3.1-2.1-6.7-5.4-7.3-.6-.1-1.1-.1-1.7-.1-1.2,0-2.5.3-3.6.5-1.8.4-3.6,1-5.3,1.6-3.6,1.4-6.9,3.4-10.3,5.2-3.7,2-7.5,4.1-11.2,6.1-1.8,1-3.5,2.1-5.4,2.9-.2.1-.5.1-.7.2-1,0-1.5-1-1.5-2,0-1.7,1.5-2.9,2.6-4,1.3-1.2,2.6-2.4,3.1-4.2.4-1.5.3-3.2-.9-4.3-1-.9-2.4-1-3.7-1-.3,0-.6,0-.9,0-1.8,0-3.7.2-5.3,1-1.5.8-2.6,2-3.3,3.6-.8,1.6-1.1,3.4-1.8,5-.7,1.6-1.8,3.1-2.9,4.4-2.4,2.8-5.2,5.1-7.6,7.9-3.6,4.2-6.2,10.4-3.3,15.6-7.7,4.4-15,9.4-22,14.7,0-.1-.1-.2-.2-.3-.8-.8-1-1.7-1.1-2.8,0-2.4.8-4.9,1.5-7.2.7-2.5,1.6-4.9,2.5-7.3,1.8-4.9,3.8-9.7,5.5-14.7,3.1-8.8,5.3-18.2,4.2-27.5-.6-4.6-2-9.4-4.8-13.2-2.7-3.6-6.7-5.6-11.2-5.5m-24.9,103.7c0-.5,0-1.1.2-1.6.7-4.8,2.9-9.1,5-13.4,2.3-4.8,4.4-9.7,5.7-14.9,1.1-4.2,2-8.6,1.7-13l12.7,15.3c.1,1.2.6,2.3,1.4,3.2,0,0,.2.1.3.2-9,7-17.5,14.6-25.5,22.7-.5.5-1,1-1.5,1.5m42.9-21.3c-2.6-.5-5.2-1.1-7.8-1.6,1.4-1.1,2.7-2.3,4.1-3.4.8,1.5,1.7,2.9,2.9,4.2.3.3.5.6.8.8"/></g></g><path class="cls-3" d="m1094.9,57.3c-.3,0-.6,0-.9.2,0,0-.1,0-.2,0h0c-1.2.6-2,1.8-2.8,2.8-.9,1.1-1.8,2.2-2.7,3.4-1.7,2.3-3.4,4.6-5,6.9-3.2,4.7-6.2,9.6-9,14.5-5.8,10-11,20.4-16.5,30.6-2.6,4.8-5.2,9.6-7.8,14.5-3.3-3-7.8-4.7-12.4-4.7-.1,0-.2,0-.3,0-4.6,0-8.7,2-12.1,4.9-6.6,5.7-10.4,14.5-18.2,18.7-2.3,1.3-5,1.7-7.2,3.1-2,1.2-3.6,3.4-3.5,5.8.1,2.6,2.4,4,4.7,4.3,1.9.3,4.8,0,6.1,1.8.7.9.2,1.9-.3,2.8-.6,1-1.2,2-1.2,3.2,0,2.4,2.5,3.8,4.5,4.3,2.1.6,5.1.6,5.8,3.1.4,1.2.4,2.5,1,3.7.5,1,1.4,1.9,2.4,2.5,1,.6,2.1.9,3.3,1,0,0,.1,0,.2,0,.5,0,1,0,1.5-.2.7-.2,1.4-.5,2.2-.6,0,0,0,0,0,0,2.2,0,3.1,3.1,4,4.7.9,1.5,2.6,3,4.3,3,.6,0,1.2-.2,1.7-.6.4-.2.8-.8,1.3-.9,0,0,0,0,0,0,.5,0,.8.7.9,1.1.4,1.2.2,2.5,1,3.6.7,1,1.7,1.4,2.7,1.4,1.3,0,2.6-.7,3.4-1.7,1.7-2.1,2.1-5.1,2.3-7.7.4-5.5-.7-11.6,1.8-16.7,2.3-4.6,6.7-7.6,9.7-11.6,3-4.1,4-9.2,3.1-14.1-.4-2.4-1.4-4.8-2.8-6.9-.3-.5-.7-.9-1.1-1.4-.4-.5-1-1-1-1.7,0-.6.6-1.2.9-1.7.4-.6.9-1.2,1.3-1.8,3.4-4.9,6.5-10,9.3-15.3,2.8-5.3,5.3-10.7,7.4-16.3,1.1-2.8,2.1-5.6,3-8.4.9-2.7,1.9-5.4,3.2-8,2.4-4.5,6.3-7.5,9.8-11.1,1.6-1.6,3.2-3.5,4.2-5.5,1-2,1.6-4.1.8-6.3-.5-1.5-1.7-2.9-3.3-2.9"/><g class="cls-26"><g class="cls-18"><path class="cls-3" d="m375.5,286.4c-.5,0-1.1,0-1.6.1-3.6.5-6.1,2.8-8.5,5.3-10.8,11.1-24.9,18.2-40.3,20-5.6.6-12.1.9-16.6,4.7-5.9,4.9-3.9,12.8-2.1,19.2,4.2,14.9,11.5,28.8,21.3,40.7,9.8,11.9,26.3,23.3,25.6,40.6,0,1.3-.5,2.6-.2,3.8,0,.1,0,.2,0,.3-25.1-12.1-41.8-35.6-55.1-59.3-3.9-7-7.6-14.1-11.3-21.2-.2-.3-.5-.5-.8-.5-.3,0-.6.1-.8.3-4.6,3.9-8.9,8.2-12.8,12.9-3.6,4.4-7.5,9.2-9.7,14.5-2.3,5.6-.5,10.5,1.9,15.6,2.2,4.7,4.8,9.3,7.6,13.7,11.5,17.5,27.8,31.8,46.7,40.7,8.9,4.2,21.2,7.7,25,17.8-1.9.8-3.9,1.2-5.9,1.2-2.1,0-4.1-.2-6.2-.7-3.9-.8-7.7-1.9-11.4-3.1-7.5-2.3-14.9-5.3-22-8.7-14.1-6.9-27.2-15.8-38.7-26.4-6.5-6-12.5-12.5-17.8-19.5-.2-.3-.6-.5-1-.5-.3,0-.6.2-.7.5-7,16.1-15.1,37.1-4.8,53.6,5.3,8.5,14.6,13.6,22.9,18.6,9.8,5.9,19.8,11.4,30,16.5,5.5,2.8,11.2,5.4,16.8,8,3.9,1.8,8.7,4.3,10,8.7-26.3-2.8-52.1-9.9-76.2-21-6.8-3.1-13.4-6.6-19.9-10.4-.2,0-.3-.1-.5-.1-.5,0-1,.4-1,1,.7,10.4,1.4,21.3,6.5,30.7,4.1,7.5,10.8,13.2,18.4,17,17.3,8.6,36.7,8,55.4,9.2,11.4.7,23,2.2,33.4,7.1-12.3,5.3-25.7,8.1-39.1,8.3-7.2.1-14.3-.5-21.4-1.8-5.9-1.1-11.6-2.8-17.2-4.9-.1,0-.2,0-.3,0-.6,0-1.1.7-.9,1.3,5.9,20.5,27.3,30.3,39.1,46.6,3.5,4.8,5.5,10.2,7.9,15.6,2.4,5.3,5.9,10.4,11.8,12.1,1.1.3,2.2.5,3.2.5,4,0,7.2-2.6,9.9-5.8,1.8-2.2,3.4-4.6,5.8-6.2,2.5-1.7,5.5-2.5,8.4-3,3.5-.6,7.1-1,10.4-2.1,2.9-1,5.4-2.6,7.7-4.6,4-3.4,6.9-7.9,9.4-12.5,0,8.5-.6,17.1-2,25.5-.8,4.7-1.8,9.4-3,14-.6,2.2-1.2,4.4-1.9,6.6-.6,2.1-1.6,4.2-1.9,6.3-.6,3.4,2.4,4.7,5.2,5.1,1.7.2,3.4.3,5,.4.4,0,.7,0,1.1,0,1,0,1.8-.3,2.4-1.2.9-1.6,1.1-4,1.4-5.8.4-2.3.7-4.5,1-6.8.5-4.7.7-9.5.8-14.2.1-5.3.3-10.5.6-15.8.2-4.1.4-8.3.3-12.4,4.9,8.2,8.8,17.2,15.6,24,7.5,7.6,18.2,11.1,28.7,11.2.6,0,1.1,0,1.7,0,11.3-.2,22.3-4.1,32.4-8.9,10.4-5,20.6-10.7,29.9-17.5,10-7.2,19-15.8,25.9-26.1.5-.7-.2-1.5-.9-1.5-.2,0-.3,0-.4.1-12.4,6.9-26.4,10.5-40.6,10.8-1,0-1.9,0-2.9,0-7.5-.1-14.9-1.2-22.1-3.2-3.3-.9-7-1.8-9.8-4-2-1.6-5.5-5.6-1.9-7.6.7-.4,1.6-.6,2.5-.6,1,0,2.1.1,3.1.3,2.3.3,4.6.6,6.9.8,4.2.5,8.4,1,12.6,1.4,7.9.7,15.9,1.2,23.9,1.1.6,0,1.3,0,1.9,0,7.4-.2,15.6-.5,22.4-3.5,6.8-3,10.5-9.3,14.3-15.4,8.7-14.4,17.6-30.8,14.1-48.2,0-.4-.6-.7-1-.7-.2,0-.3,0-.5.2-24.3,18.8-53.8,32-84.4,36.4-1.8.3-3.7.5-5.6.5-4.7,0-9.6-.8-12.6-4.4,28.3-11.9,56.6-23.7,84.9-35.6,6-2.5,13.5-4.6,17.2-10.4,0,0,0-.1.1-.2,0,0,0-.1,0-.2,1.7-3.2,1.9-6.7,2.1-10.3.3-4.5.4-8.9.5-13.4.2-8.8.1-17.6-.2-26.5,0-.6-.5-1-1-1-.2,0-.5,0-.7.3-15.9,14.3-32.9,27.4-50.8,39.1-9,5.8-18.1,11.3-27.5,16.4-4.6,2.5-9.3,5-14.1,7.3-3,1.5-6.4,3.2-9.9,3.3-.7,0-1.5,0-2.2-.2-2-.5-3.6-2-3.6-4.1,0-2.7,1.8-5.1,3.5-7,3.4-3.9,7.1-7.6,10.9-11.2,7.7-7.4,16-14.2,24.7-20.5,8.3-5.9,17.1-10.9,25.7-16.3,8.1-5.1,16.2-11.2,20.8-19.7,2.3-4.3,3.5-9.1,3-14-.6-5.4-2.9-10.5-5-15.5-4.3-10.1-9.3-20-14.8-29.6-1.4-2.5-2.9-4.9-4.4-7.3-.2-.3-.5-.5-.8-.5-.4,0-.8.3-1,.7-6,21.1-16.7,40.5-29.7,57.9-6.5,8.7-13.7,17-21.1,24.9-3.7,4-7.6,7.8-11.5,11.6-3.9,3.8-8.2,7.9-13.7,9.3-.8.2-1.7.3-2.6.3-3.6,0-7.3-1.4-9.2-4.4-3.3-5.2,1.6-11.1,4.9-14.9,7.4-8.5,15.7-16.1,24.1-23.5,8.5-7.4,17-14.7,24.9-22.8,7.6-7.8,14.8-16.3,19.4-26.2,4.4-9.3,6.5-19.9,3.4-29.9-2.8-9.3-9.7-16.8-17.5-22.2-2.1-1.4-4.2-2.7-6.4-3.9-.1,0-.3-.1-.5-.1-.4,0-.9.3-1,.7-2.5,15.6-7.2,30.8-13.9,45.1-3.3,7.1-7.1,13.9-11.3,20.4-2.2,3.4-4.5,6.7-7,10-2.2,2.9-4.4,6.2-7.4,8.4-1.4,1.1-3.6,2.4-5.5,2.4-1.1,0-2.1-.4-2.9-1.4-2.1-2.8-.4-8,.3-11.1,1.9-7.3,5.4-14,9.5-20.3,4-6.3,8.6-12.3,12.8-18.5,4.1-5.9,7.8-12.1,9.6-19.1,1.6-6.3,1.3-13.2-2.9-18.5-4.5-5.7-12.2-7.8-18.8-10.1-8.4-2.9-17-5.4-25.6-7.5-3.4-.8-7-2-10.6-1.9"/></g></g><g class="cls-30"><g class="cls-19"><path class="cls-3" d="m736.6-86.4c-4.8.5-9.6,1.4-14.3,2.8-.9.3-.6,1.6.2,1.7,13.2,2.6,25.6,8.7,35.8,17.5,5,4.3,9.4,9.2,13.2,14.6,1.7,2.5,3.6,5.1,4.4,8,.5,1.9,1,5.5-1.1,6.7-.3.2-.6.2-.9.3-1.1.1-2.3-.6-3.1-1.3-1.5-1.3-2.7-2.8-4.1-4.2-2.6-2.8-5.2-5.5-7.8-8.2-5.5-5.7-11.2-11.2-17.3-16.2-3-2.4-6.1-4.8-9.3-6.9-3-2-6.1-3.8-9.6-4.9-2.5-.8-5.1-.9-7.6-.6-4.7.5-9.3,2.3-13.8,3.9-13.3,4.7-27.5,10.9-34.6,23.9-.3.5.1,1.2.7,1.2,26.8,1.1,53.2,8.7,76.4,22.2,5.2,3.1,12.5,7.7,12.4,14.5-25.4-7.9-50.9-15.8-76.3-23.7-3.4-1.1-6.8-2.2-10.2-3.1-2.4-.7-4.9-1.1-7.3-.8-.9,0-1.8.3-2.6.6,0,0-.1,0-.2,0-3.1,1.3-5.4,3.7-7.6,6.1-2.7,2.8-5.3,5.7-7.9,8.7-5.2,5.9-10.1,11.9-14.9,18.1-.5.6,0,1.5.8,1.4,19.4-.7,38.8.1,58,2.5,9.6,1.2,19.1,2.7,28.5,4.7,4.7,1,9.4,2,14.1,3.2,3.2.8,7.9,2.2,9.3,5.6,1.6,4-3.3,5.9-6.4,6.5-2,.3-4,.6-6,.8-2.7.3-5.4.5-8.1.7-9.9.7-19.8.6-29.7-.2-9.7-.8-19.1-2.7-28.7-3.9-4.5-.5-9.2-.8-13.9-.3-4.3.5-8.5,1.6-12.3,3.7-7.8,4.4-10.2,12.6-12.6,20.6-2.8,9.3-5,18.7-6.7,28.3-.4,2.4-.8,4.8-1.2,7.2,0,.6.4,1.1,1,1,.1,0,.3,0,.4-.2,16.6-11.3,35.7-18.5,55.2-22.9,9.7-2.2,19.6-3.7,29.5-4.8.5,0,1-.1,1.5-.2,4.5-.5,9-.9,13.5-1.1,4.6-.2,9.9-.1,13.7,2.8,3,2.3,5.2,6.8,3.3,10.4-2.1,4-7.4,4.8-11.3,5.4-2.5.4-5.1.7-7.6,1-8.4.9-16.9,1.1-25.3,1.3-9.5.2-19,.3-28.5,1.3-1.6.2-3.2.4-4.7.6-8.4,1.2-16.8,3.2-24.4,7.1-7,3.6-13.2,8.8-16.7,16-4.1,8.2-3.9,17.8-1.6,26.5.6,2.3,1.4,4.5,2.2,6.7.1.4.6.6,1,.6.1,0,.3,0,.4-.2,10.9-9.4,23.1-17.2,36.1-23.2,6.5-3,13.1-5.5,19.9-7.5,3.5-1.1,7.1-2,10.7-2.8,1.9-.4,3.9-.9,5.9-1.1,1-.1,2-.1,3.1,0,2,.2,5,.8,5.7,3,1,3.2-3.2,6.1-5.4,7.7-5.3,4.1-11.5,6.8-17.9,8.8-6.3,2.1-12.8,3.6-19.2,5.3-5.8,1.6-11.5,3.3-16.7,6.4-4.4,2.6-8.5,6.3-10.2,11.3-2.3,6.7.8,12.9,4.1,18.7,3.9,6.7,8.1,13.3,12.7,19.7,2.1,3,4.2,6.1,6.6,8.9,2,2.4,4.4,4.3,7.7,4.6,3.4.3,6.9-.5,10.4-.5,3.6,0,7.1.2,10.6.8,6.8,1.2,13.4,3.5,19.3,6.9,5.4,3.1,10.7,8.3,17.3,8.4.4,0,.9,0,1.3,0,5.8-.6,8.8-6.3,11.1-11.2,6-13,9.1-27.4,9.1-41.7,0-13.6-4.5-30.6,6-41.6.7-.8,1.6-1.3,2.1-2.2,0,0,0-.2.1-.3,10.2,22.7,8.1,48.4,3.6,72.2-1.3,7-2.9,14-4.5,20.9-.1.6.4,1,1,1,3.1,0,6.2-.2,9.3-.5,2.2-.2,4.4-.5,6.5-.9,4.7-.8,9.6-1.9,14-3.8,4.1-1.8,6.5-4.7,7.9-8.9,1.4-4.4,2.4-9,3.1-13.5,2.9-18.7.5-38.3-6.9-55.8-2.1-4.8-4.7-9.4-6.7-14.3-1.9-4.7-3-9.8-1.3-14.7,6.2,1.7,10.1,8.4,13.5,13.4,4,6,7.5,12.3,10.5,18.8,6,13,10,27,11.9,41.2,1.1,8,1.4,16.1,1.1,24.2,0,.5.4,1.1.9,1.1,0,0,.2,0,.3,0,12.7-6.4,28-14.6,32.8-29,3.1-9.2.4-18.5-2.6-27.3-3.4-10-7.1-19.8-11.2-29.5-2.3-5.5-4.8-11-7.4-16.4-1.8-3.8-4.3-8.8-2.5-13,16.4,17,30,36.7,40,58.1,2.8,6.1,5.4,12.2,7.7,18.5.1.4.6.6.9.6.2,0,.4-.1.6-.3,5.1-7,10.4-14.2,12.7-22.7,2.2-8.4.8-17.2-2.7-25-7.4-16.4-22-27.2-34.5-39.4-6.6-6.4-12.6-13.5-16.5-21.8,17.6,5.3,33.5,16,45.1,30.3,3.4,4.1,6.3,8.5,8.9,13.1.2.3.5.4.8.4.3,0,.6-.2.8-.5,8.3-18.9-2.8-39.2.5-58.7,1.5-8.6,8.1-19.5.9-27.3-2.5-2.7-5.8-3.1-9.1-2.8-1.2.1-2.4.3-3.5.6-1,.2-2.1.4-3.1.5-1.5.2-3.1.1-4.6-.2-2.3-.6-4.3-1.7-6.3-2.9-2.2-1.3-4.4-2.8-6.8-3.8-2.6-1.1-5.3-1.6-8-1.6-1,0-2.1,0-3.1.1-3.8.4-7.6,1.6-11.1,3,4.6-5.5,9.7-10.8,15.1-15.5,3.3-2.9,6.7-5.6,10.2-8.1,3.4-2.4,7-4.4,10.3-6.8,2.8-2.1,1.7-4.8-.3-7.1-1-1.1-2-2-3-3-.8-.8-1.6-1.4-2.5-1.3-.3,0-.7.2-1.1.4-3.3,2-6.2,5-9,7.6-3,2.9-5.8,6-8.6,9.2-3,3.4-6,6.8-9.1,10.1-2.5,2.6-4.9,5.3-7.2,8.1,1.5-9,4.2-18.1,2.9-27.3-1.2-8.7-6.3-16.4-12.9-22.2-7.3-6.3-16.3-10.1-25.5-12.7-10.1-2.9-20.5-4.9-31-5.8-7-.6-14-.7-21,0"/></g></g><path class="cls-3" d="m1030.8,462.7c-.5,0-1,0-1.4.1-3.2.4-5.5,2.5-7.6,4.7-9.6,9.9-22.2,16.3-36,17.8-5,.6-10.8.8-14.8,4.2-5.3,4.4-3.5,11.5-1.9,17.2,3.7,13.3,10.2,25.7,19,36.4,8.8,10.7,23.5,20.8,22.8,36.2,0,1.2-.4,2.3-.2,3.4,0,0,0,.2,0,.3-22.4-10.8-37.3-31.8-49.2-53-3.5-6.2-6.8-12.6-10.1-19-.2-.3-.4-.4-.7-.4-.2,0-.5.1-.7.3-4.1,3.5-8,7.3-11.4,11.5-3.2,3.9-6.7,8.2-8.7,12.9-2,5-.4,9.3,1.7,14,2,4.2,4.3,8.3,6.8,12.2,10.2,15.6,24.8,28.4,41.7,36.3,7.9,3.7,18.9,6.9,22.3,15.9-1.7.7-3.4,1.1-5.2,1.1-1.8,0-3.7-.2-5.5-.6-3.4-.7-6.8-1.7-10.2-2.7-6.7-2.1-13.3-4.7-19.6-7.8-12.6-6.1-24.3-14.1-34.6-23.6-5.8-5.3-11.1-11.2-15.9-17.4-.2-.3-.5-.4-.9-.4-.3,0-.5.1-.7.4-6.2,14.4-13.5,33.2-4.3,47.9,4.7,7.6,13,12.1,20.5,16.6,8.7,5.2,17.7,10.1,26.8,14.7,5,2.5,10,4.8,15,7.2,3.5,1.6,7.8,3.9,9,7.8-23.5-2.5-46.6-8.9-68-18.8-6.1-2.8-12-5.9-17.8-9.3-.1,0-.3-.1-.4-.1-.5,0-.9.4-.9.9.6,9.3,1.3,19,5.8,27.4,3.7,6.7,9.7,11.8,16.4,15.1,15.4,7.7,32.8,7.2,49.5,8.2,10.2.6,20.5,2,29.8,6.4-11,4.7-22.9,7.2-34.9,7.4-6.4.1-12.8-.4-19.1-1.6-5.2-1-10.3-2.5-15.3-4.3,0,0-.2,0-.3,0-.5,0-1,.7-.8,1.2,5.3,18.3,24.3,27,35,41.6,3.1,4.3,4.9,9.1,7.1,13.9,2.1,4.7,5.3,9.3,10.5,10.8,1,.3,1.9.4,2.8.4,3.5,0,6.5-2.3,8.8-5.2,1.6-1.9,3.1-4.1,5.2-5.5,2.2-1.6,4.9-2.2,7.5-2.7,3.1-.6,6.3-.9,9.3-1.9,2.5-.9,4.9-2.3,6.9-4.1,3.6-3.1,6.2-7,8.4-11.2,0,7.6-.6,15.2-1.8,22.8-.7,4.2-1.6,8.4-2.7,12.5-.5,2-1.1,4-1.7,5.9-.6,1.8-1.4,3.7-1.7,5.6-.5,3,2.1,4.2,4.6,4.6,1.5.2,3,.2,4.5.4.3,0,.7,0,1,0,.9,0,1.6-.2,2.2-1.1.8-1.4,1-3.6,1.2-5.2.4-2,.6-4,.9-6.1.5-4.2.6-8.5.8-12.7.1-4.7.3-9.4.5-14.1.2-3.7.4-7.4.3-11.1,4.3,7.3,7.8,15.3,13.9,21.5,6.7,6.8,16.2,9.9,25.6,10,.5,0,1,0,1.5,0,10.1-.2,19.9-3.7,28.9-8,9.3-4.4,18.4-9.6,26.7-15.6,8.9-6.4,17-14.1,23.1-23.3.4-.6-.2-1.3-.8-1.3-.1,0-.3,0-.4.1-11.1,6.1-23.6,9.4-36.2,9.6-.9,0-1.7,0-2.6,0-6.7-.1-13.3-1.1-19.7-2.9-3-.8-6.2-1.6-8.7-3.6-1.8-1.4-4.9-5-1.7-6.8.7-.4,1.4-.5,2.2-.5.9,0,1.9.1,2.7.2,2,.2,4.1.5,6.1.7,3.8.4,7.5.9,11.3,1.2,7.1.7,14.2,1.1,21.3,1,.6,0,1.1,0,1.7,0,6.6-.2,13.9-.4,20-3.1,6.1-2.7,9.4-8.3,12.7-13.8,7.8-12.8,15.7-27.5,12.6-43,0-.4-.5-.7-.9-.6-.2,0-.3,0-.4.1-21.7,16.8-48.1,28.6-75.4,32.5-1.6.2-3.3.4-5,.4-4.2,0-8.6-.7-11.3-4,25.3-10.6,50.5-21.2,75.8-31.8,5.4-2.2,12.1-4.1,15.4-9.3,0,0,0-.1.1-.2,0,0,0-.1,0-.2,1.5-2.8,1.7-6,1.9-9.2.2-4,.4-8,.5-12,.2-7.9.1-15.8-.2-23.6,0-.5-.5-.9-.9-.9-.2,0-.4,0-.6.2-14.2,12.8-29.4,24.5-45.4,34.9-8,5.2-16.2,10.1-24.6,14.7-4.2,2.3-8.3,4.4-12.6,6.5-2.7,1.3-5.7,2.9-8.8,2.9-.7,0-1.3,0-2-.2-1.8-.4-3.2-1.8-3.2-3.7,0-2.4,1.6-4.6,3.1-6.3,3.1-3.5,6.4-6.8,9.7-10,6.9-6.6,14.3-12.7,22-18.3,7.4-5.3,15.3-9.7,23-14.6,7.2-4.5,14.4-10,18.5-17.6,2.1-3.8,3.1-8.2,2.6-12.5-.6-4.8-2.6-9.4-4.5-13.8-3.9-9-8.3-17.9-13.2-26.4-1.3-2.2-2.6-4.4-3.9-6.5-.2-.3-.5-.4-.8-.4-.4,0-.7.2-.9.7-5.4,18.8-14.9,36.1-26.6,51.7-5.8,7.8-12.2,15.2-18.9,22.3-3.3,3.5-6.8,7-10.3,10.4-3.5,3.4-7.3,7.1-12.2,8.3-.8.2-1.6.3-2.4.3-3.2,0-6.6-1.2-8.3-4-2.9-4.7,1.4-9.9,4.4-13.3,6.6-7.6,14-14.4,21.6-21,7.5-6.6,15.2-13.1,22.3-20.3,6.8-6.9,13.2-14.6,17.3-23.4,3.9-8.3,5.8-17.8,3-26.7-2.5-8.3-8.6-15-15.6-19.9-1.8-1.3-3.7-2.4-5.7-3.5-.1,0-.3-.1-.4-.1-.4,0-.8.2-.9.7-2.3,13.9-6.4,27.5-12.4,40.3-2.9,6.3-6.3,12.4-10.1,18.2-2,3-4,6-6.2,8.9-2,2.6-3.9,5.5-6.6,7.5-1.3.9-3.2,2.1-4.9,2.1-1,0-1.9-.3-2.6-1.3-1.9-2.5-.4-7.1.3-9.9,1.7-6.5,4.9-12.5,8.4-18.1,3.6-5.7,7.6-11,11.4-16.5,3.6-5.3,7-10.8,8.5-17,1.4-5.6,1.2-11.8-2.6-16.5-4.1-5.1-10.9-7-16.8-9-7.5-2.6-15.2-4.8-22.9-6.7-3-.7-6.3-1.8-9.5-1.7"/><path class="cls-3" d="m455.1-217c-.5,0-1,0-1.4.1-3.2.4-5.5,2.5-7.6,4.7-9.6,9.9-22.2,16.3-36,17.8-5,.6-10.8.8-14.8,4.2-5.3,4.4-3.5,11.5-1.9,17.2,3.7,13.3,10.2,25.7,19,36.4,8.8,10.7,23.5,20.8,22.8,36.2,0,1.2-.4,2.3-.2,3.4,0,0,0,.2,0,.3-22.4-10.8-37.3-31.8-49.2-53-3.5-6.2-6.8-12.6-10.1-19-.2-.3-.4-.4-.7-.4-.2,0-.5.1-.7.3-4.1,3.5-8,7.3-11.4,11.5-3.2,3.9-6.7,8.2-8.7,12.9-2,5-.4,9.3,1.7,14,2,4.2,4.3,8.3,6.8,12.2,10.2,15.6,24.8,28.4,41.7,36.3,7.9,3.7,18.9,6.9,22.3,15.9-1.7.7-3.4,1.1-5.2,1.1-1.8,0-3.7-.2-5.5-.6-3.4-.7-6.8-1.7-10.2-2.7-6.7-2.1-13.3-4.7-19.6-7.8-12.6-6.1-24.3-14.1-34.6-23.6-5.8-5.3-11.1-11.2-15.9-17.4-.2-.3-.5-.4-.9-.4-.3,0-.5.1-.7.4-6.2,14.4-13.5,33.2-4.3,47.9,4.7,7.6,13,12.1,20.5,16.6,8.7,5.2,17.7,10.1,26.8,14.7,5,2.5,10,4.8,15,7.2,3.5,1.6,7.8,3.9,9,7.8-23.5-2.5-46.6-8.9-68-18.8-6.1-2.8-12-5.9-17.8-9.3-.1,0-.3-.1-.4-.1-.5,0-.9.4-.9.9.6,9.3,1.3,19,5.8,27.4,3.7,6.7,9.7,11.8,16.4,15.2C351.8.3,369.1-.2,385.9.8c10.2.6,20.5,2,29.8,6.4-11,4.7-22.9,7.2-34.9,7.4-6.4.1-12.8-.4-19.1-1.6-5.2-1-10.3-2.5-15.3-4.3,0,0-.2,0-.3,0-.5,0-1,.7-.8,1.2,5.3,18.3,24.3,27,35,41.6,3.1,4.3,4.9,9.1,7.1,13.9,2.1,4.7,5.3,9.3,10.5,10.8,1,.3,1.9.4,2.8.4,3.5,0,6.5-2.3,8.8-5.2,1.6-1.9,3.1-4.1,5.2-5.5,2.2-1.6,4.9-2.2,7.5-2.7,3.1-.6,6.3-.9,9.3-1.9,2.5-.9,4.9-2.3,6.9-4.1,3.6-3.1,6.2-7,8.4-11.2,0,7.6-.6,15.2-1.8,22.8-.7,4.2-1.6,8.4-2.7,12.5-.5,2-1.1,4-1.7,5.9-.6,1.8-1.4,3.7-1.7,5.6-.5,3,2.1,4.2,4.6,4.6,1.5.2,3,.2,4.5.4.3,0,.7,0,1,0,.9,0,1.6-.2,2.2-1.1.8-1.4,1-3.6,1.2-5.2.4-2,.6-4,.9-6.1.5-4.2.6-8.4.8-12.7.1-4.7.3-9.4.5-14.1.2-3.7.4-7.4.3-11.1,4.3,7.3,7.8,15.3,13.9,21.5,6.7,6.8,16.2,9.9,25.6,10,.5,0,1,0,1.5,0,10.1-.2,19.9-3.7,28.9-8,9.3-4.4,18.4-9.6,26.7-15.6,8.9-6.4,17-14.1,23.1-23.3.4-.6-.2-1.3-.8-1.3-.1,0-.3,0-.4.1-11.1,6.1-23.6,9.4-36.2,9.6-.9,0-1.7,0-2.6,0-6.7-.1-13.3-1.1-19.7-2.9-3-.8-6.2-1.6-8.7-3.6-1.8-1.4-4.9-5-1.7-6.8.7-.4,1.4-.5,2.2-.5.9,0,1.9.1,2.7.2,2,.2,4.1.5,6.1.7,3.8.4,7.5.9,11.3,1.2,7.1.7,14.2,1.1,21.3,1,.6,0,1.1,0,1.7,0,6.6-.2,13.9-.4,20-3.1,6.1-2.7,9.4-8.3,12.7-13.8,7.8-12.8,15.7-27.5,12.6-43,0-.4-.5-.7-.9-.6-.2,0-.3,0-.4.1-21.7,16.8-48.1,28.6-75.4,32.5-1.6.2-3.3.4-5,.4-4.2,0-8.6-.7-11.3-4,25.3-10.6,50.5-21.2,75.8-31.8,5.4-2.2,12.1-4.1,15.4-9.3,0,0,0-.1.1-.2,0,0,0-.1,0-.2,1.5-2.8,1.7-6,1.9-9.2.2-4,.4-8,.5-12,.2-7.9.1-15.8-.2-23.6,0-.5-.5-.9-.9-.9-.2,0-.4,0-.6.2-14.2,12.8-29.4,24.5-45.4,34.9-8,5.2-16.2,10.1-24.6,14.7-4.2,2.3-8.3,4.4-12.6,6.5-2.6,1.3-5.7,2.9-8.8,2.9-.7,0-1.3,0-2-.2-1.8-.4-3.2-1.8-3.2-3.7,0-2.4,1.6-4.6,3.1-6.3,3.1-3.5,6.4-6.8,9.7-10,6.9-6.6,14.3-12.7,22-18.3,7.4-5.3,15.3-9.7,23-14.6,7.2-4.5,14.4-10,18.5-17.6,2.1-3.8,3.1-8.2,2.6-12.5-.6-4.8-2.6-9.4-4.5-13.8-3.9-9-8.3-17.9-13.2-26.4-1.3-2.2-2.6-4.4-3.9-6.5-.2-.3-.5-.4-.8-.4-.4,0-.7.2-.9.7-5.4,18.8-14.9,36.1-26.6,51.7-5.8,7.8-12.2,15.2-18.9,22.3-3.3,3.5-6.8,7-10.3,10.4-3.5,3.4-7.3,7.1-12.2,8.3-.8.2-1.6.3-2.4.3-3.2,0-6.6-1.2-8.3-4-2.9-4.7,1.4-9.9,4.4-13.3,6.6-7.6,14-14.4,21.6-21,7.5-6.6,15.2-13.1,22.3-20.3,6.8-6.9,13.2-14.6,17.3-23.4,3.9-8.3,5.8-17.8,3-26.7-2.5-8.3-8.6-15-15.6-19.9-1.8-1.3-3.7-2.4-5.7-3.5-.1,0-.3-.1-.4-.1-.4,0-.8.2-.9.7-2.3,13.9-6.4,27.5-12.4,40.3-2.9,6.3-6.3,12.4-10.1,18.2-2,3-4,6-6.2,8.9-2,2.6-3.9,5.5-6.6,7.5-1.3.9-3.2,2.1-4.9,2.1-1,0-1.9-.3-2.6-1.3-1.9-2.5-.4-7.1.3-9.9,1.7-6.5,4.9-12.5,8.4-18.1,3.6-5.7,7.6-11,11.4-16.5,3.6-5.3,7-10.8,8.5-17,1.4-5.6,1.2-11.8-2.6-16.5-4.1-5.1-10.9-7-16.8-9-7.5-2.6-15.2-4.8-22.9-6.7-3-.7-6.3-1.8-9.5-1.7"/></g></g></g></g></g></svg>