<svg xmlns="http://www.w3.org/2000/svg" width="72.946" height="101.14" viewBox="0 0 72.946 101.14">
  <g id="Layer_1-2" transform="translate(0.051 -0.034)">
    <path id="Path_36" data-name="Path 36" d="M17.185,833.712s-2.029,14.049,10.233,10.964l.745-2.355,8.791-27.768-3.486-4.882-.531-.74a23.388,23.388,0,0,0-5.417-.247,5.977,5.977,0,0,0-3.876,1.471c-2.234,2.476-4.83,9.666-4.83,9.666a3.154,3.154,0,0,0-1.829,1.349,6.678,6.678,0,0,0-1.056,3.4c-.326,4.3-.572,7.553,1.256,9.135Z" transform="translate(-15.019 -770.953)" fill="#f6f6f6"/>
    <path id="Path_37" data-name="Path 37" d="M9.156,830.5a14.011,14.011,0,0,0,3.42-.465.732.732,0,1,0-.358-1.419c-3.123.786-5.5.465-7.074-.949-3.132-2.82-2.266-9.14-2.257-9.2a.72.72,0,0,0-.247-.656c-1.55-1.345-1.312-4.514-1.01-8.53.275-3.621,2.21-4.072,2.294-4.091a.716.716,0,0,0,.549-.47c.023-.07,2.578-7.083,4.686-9.424,1.606-1.782,6.771-1.322,8.623-1a.73.73,0,1,0,.256-1.438c-.763-.135-7.53-1.243-9.963,1.457-2.043,2.266-4.3,8.083-4.854,9.568-.875.344-2.764,1.517-3.048,5.282-.316,4.212-.572,7.576,1.219,9.465-.158,1.526-.489,7.176,2.769,10.117A7.179,7.179,0,0,0,9.156,830.5Z" transform="translate(0 -755.609)" fill="#371a45"/>
    <path id="Path_38" data-name="Path 38" d="M74.547,1037.759a.73.73,0,0,0,.731-.721,3.3,3.3,0,0,0-1.08-2.55c-2.076-1.917-6.51-1.545-6.7-1.526a.729.729,0,0,0,.13,1.452h0c1.1-.1,4.253-.079,5.58,1.145a1.854,1.854,0,0,1,.61,1.461.735.735,0,0,0,.721.74Z" transform="translate(-63.771 -984.819)" fill="#371a45"/>
    <path id="Path_39" data-name="Path 39" d="M20.089,1075.156a7.8,7.8,0,0,1,4.658.144,4.861,4.861,0,0,1,1.377.875,5.055,5.055,0,0,0-1.2-1.2,8.758,8.758,0,0,0-5.077-1.266.736.736,0,1,0,.247,1.443h0Z" transform="translate(-18.313 -1023.71)" fill="#371a45"/>
    <path id="Path_40" data-name="Path 40" d="M35.032,1332.381a8.409,8.409,0,0,0,2.9-.5.732.732,0,0,0-.507-1.373c-2.764,1.024-5.519-.093-6.692-.568a2.135,2.135,0,0,0-.824-.242.732.732,0,0,0-.084,1.456c.07.023.223.084.358.14A12.911,12.911,0,0,0,35.032,1332.381Z" transform="translate(-27.886 -1267.784)" fill="#371a45"/>
    <path id="Path_41" data-name="Path 41" d="M173.381,828.372a11.642,11.642,0,0,0-4.137-1.848c-.693-.107-2.5-.326-2.318.9a.738.738,0,0,0,.889.554,3.7,3.7,0,0,1,1.359-.363,11.285,11.285,0,0,1,4.207.754Z" transform="translate(-159.194 -787.946)" fill="#371a45"/>
    <g id="Group_47" data-name="Group 47" transform="translate(0.677 50.217)" opacity="0.2">
      <path id="Path_42" data-name="Path 42" d="M17.09,1090.941s-2.029,14.049,10.233,10.964l.745-2.355-1.294-14.482s-6.7,6.124-9.81-6.366c-.023-.1-.051-.2-.079-.3a6.677,6.677,0,0,0-1.056,3.4c-.326,4.3-.572,7.553,1.256,9.135Z" transform="translate(-15.6 -1078.4)" fill="#371a45"/>
    </g>
    <path id="Path_43" data-name="Path 43" d="M236.01,904.672l-1.056,9.745s-1.257,2.8,2.68,5.887,7.758,3.49,10.806,1.987a3.866,3.866,0,0,0,1.871-3.811,10.186,10.186,0,0,0-.4-2.569v0a.039.039,0,0,0-.009-.028A15.8,15.8,0,0,0,259,920.3c5.561.61,6.622-2.68,6.254-4.714a2.782,2.782,0,0,0-.237-.7c-.87-1.866-3.625-3.844-3.625-3.844s3.737-9.949.2-16.325,1.619-16.2,1.619-16.2a75.459,75.459,0,0,0-14.705-10.764c-9.331-5.361-21.207-4.835-21.207-4.835s-11.029,5.682-8.837,21.886c0,0-.047.209-.1.577-.475,3.109-1.657,17.763,17.647,19.285Z" transform="translate(-208.058 -822.708)" fill="#f6f6f6"/>
    <path id="Path_44" data-name="Path 44" d="M229.612,909.12a8.857,8.857,0,0,0,3.951-.926c2.141-1.056,2.4-3.393,2.248-5.138a16.281,16.281,0,0,0,7.907,3.22c3.355.368,5.082-.647,5.938-1.564a4.66,4.66,0,0,0,1.112-4c-.335-1.862-2.685-3.881-3.709-4.682.731-2.183,3.2-10.592-.023-16.418-3.3-5.961,1.582-15.417,1.629-15.511a.728.728,0,0,0-.13-.856,75.551,75.551,0,0,0-14.859-10.88c-9.41-5.4-21.109-4.956-21.6-4.933a.68.68,0,0,0-.3.079,17.342,17.342,0,0,0-5.5,5.091c-2.331,3.239-4.868,8.879-3.746,17.423-.209,1.066-1.35,7.874,2.788,13.482,2.969,4.025,7.911,6.4,14.687,7.069l-.968,8.912c-.228.647-.968,3.569,2.946,6.636a12.5,12.5,0,0,0,7.623,3Zm5.091-8.73a.7.7,0,0,0-.368.1.733.733,0,0,0-.326.856c.014.042,1.35,4.333-1.089,5.538-3,1.48-6.566.805-10.029-1.908-3.393-2.657-2.5-4.928-2.462-5.021a.855.855,0,0,0,.056-.214L221.542,890a.725.725,0,0,0-.163-.544.715.715,0,0,0-.507-.261c-6.715-.531-11.55-2.732-14.366-6.538-4.011-5.422-2.536-12.369-2.518-12.439a.678.678,0,0,0,.009-.256c-.88-6.5.27-12.025,3.42-16.437a16.722,16.722,0,0,1,4.891-4.63c1.471-.033,12.2-.1,20.639,4.747a78.434,78.434,0,0,1,14.175,10.28c-1.019,2.131-4.63,10.517-1.368,16.4,3.332,6.012-.209,15.618-.247,15.711a.738.738,0,0,0,.256.852c1.256.907,3.337,2.82,3.565,4.086a3.253,3.253,0,0,1-.745,2.746c-.9.963-2.532,1.35-4.709,1.108a15.236,15.236,0,0,1-8.642-4.2.734.734,0,0,0-.535-.233Z" transform="translate(-192.86 -807.945)" fill="#371a45"/>
    <path id="Path_45" data-name="Path 45" d="M1475.122,1298.6c2.7-1.936,1.354-4.379.051-5l-1.773,3.7" transform="translate(-1404.882 -1233.368)" fill="#f5f5f5"/>
    <path id="Path_46" data-name="Path 46" d="M518.993,1375.2l-.456,1.522a1.739,1.739,0,0,1-1.568,1.238l-20.718,1.252a3.534,3.534,0,0,1-1.759-.349l-14.221-6.888a1.545,1.545,0,0,1-.87-1.391v-1.187a1.547,1.547,0,0,1,1.48-1.545l27.764-1.15,10.35,8.5Z" transform="translate(-457.139 -1303.066)" fill="#bdc1c6"/>
    <path id="Path_47" data-name="Path 47" d="M483.546,1367.236a2.246,2.246,0,0,0,.251-.009l20.718-1.252a2.364,2.364,0,0,0,2.113-1.671l.456-1.522a.61.61,0,0,0-.2-.647l-10.35-8.5a.633.633,0,0,0-.41-.14l-27.764,1.149a2.151,2.151,0,0,0-2.066,2.155v1.187a2.176,2.176,0,0,0,1.215,1.941l14.222,6.887a4.145,4.145,0,0,0,1.815.414Zm22.254-4.412-.34,1.131a1.131,1.131,0,0,1-1.019.805l-20.718,1.252a2.912,2.912,0,0,1-1.457-.288l-14.222-6.887a.944.944,0,0,1-.531-.842v-1.187a.934.934,0,0,1,.9-.935l27.531-1.14,9.856,8.1Z" transform="translate(-444.649 -1290.475)" fill="#371a45"/>
    <path id="Path_48" data-name="Path 48" d="M495.992,1401.281a.481.481,0,0,0,.47-.368l.54-2.1a2.109,2.109,0,0,0-1.177-2.453l-15.269-6.948a.488.488,0,1,0-.4.889l15.269,6.948a1.137,1.137,0,0,1,.633,1.326l-.54,2.1a.484.484,0,0,0,.349.591.531.531,0,0,0,.121.014Z" transform="translate(-457.584 -1324.678)" fill="#371a45"/>
    <g id="Group_48" data-name="Group 48" transform="translate(22.451 65.174)" opacity="0.2">
      <path id="Path_49" data-name="Path 49" d="M483.5,1399.8l15.269,6.948a1.622,1.622,0,0,1,.9,1.889l-.54,2.1-14.5-6.832" transform="translate(-483.5 -1399.8)" fill="#371a45"/>
    </g>
    <path id="Path_50" data-name="Path 50" d="M323.3,36.029a25.748,25.748,0,0,0,20.3,30.23,26.1,26.1,0,0,0,18.386-2.96h0A25.243,25.243,0,0,0,373.95,35.414c0-.019-.009-.042-.014-.06-.088-.354-.182-.7-.289-1.052l-.014-.056a26.009,26.009,0,0,0-19.773-18.01A25.748,25.748,0,0,0,323.3,36.029Z" transform="translate(-307.805 -14.929)" fill="#f5f5f5"/>
    <g id="Group_49" data-name="Group 49" transform="translate(14.972 1.14)" opacity="0.2">
      <path id="Path_51" data-name="Path 51" d="M323.3,43.76a25.748,25.748,0,0,0,20.3,30.23,26.1,26.1,0,0,0,18.386-2.96h0c.33-.191.656-.391.977-.6a26.185,26.185,0,0,1-9.731-.168,25.751,25.751,0,0,1-20.3-30.23,25.254,25.254,0,0,1,11.2-16.237A25.544,25.544,0,0,0,323.3,43.764Z" transform="translate(-322.777 -23.8)" fill="#371a45"/>
    </g>
    <path id="Path_52" data-name="Path 52" d="M479.716,170.962c-2.35,11.443,5.91,22.8,18.447,25.376a24.726,24.726,0,0,0,13.072-.81h0A25.243,25.243,0,0,0,523.2,167.644c0-.019-.009-.042-.014-.061-.149-.549-.251-.921-.289-1.052l-.014-.056A23.984,23.984,0,0,0,506.665,154.9c-12.537-2.573-24.6,4.616-26.954,16.06Z" transform="translate(-457.06 -147.164)" fill="#003b6a"/>
    <path id="Path_53" data-name="Path 53" d="M436.666,85.589a.735.735,0,0,0,.656-.4c3.458-6.966,8.809-11.671,15.464-13.6a27.467,27.467,0,0,1,21.77,3.272.732.732,0,0,0,.759-1.252,28.924,28.924,0,0,0-22.933-3.425c-7.06,2.048-12.723,7.013-16.367,14.356a.729.729,0,0,0,.656,1.056Z" transform="translate(-415.699 -65.891)" fill="#371a45"/>
    <g id="Group_50" data-name="Group 50" transform="translate(22.257 14.463)" opacity="0.7">
      <path id="Path_54" data-name="Path 54" d="M479.716,319.435c-2.35,11.443,5.91,22.8,18.447,25.376a24.726,24.726,0,0,0,13.072-.81h0a25.611,25.611,0,0,0,6.864-5.789,26.135,26.135,0,0,1-13.044.624A25.786,25.786,0,0,1,484.5,310.1a19.62,19.62,0,0,0-4.784,9.335Z" transform="translate(-479.316 -310.1)" fill="#111a28"/>
    </g>
    <path id="Path_55" data-name="Path 55" d="M333.988,52.609a26.627,26.627,0,0,0,14.524-4.3,25.966,25.966,0,0,0,7.469-36.391A26.755,26.755,0,0,0,339.042.591a26.513,26.513,0,0,0-31.426,20.36h0a26.513,26.513,0,0,0,20.867,31.1,27.327,27.327,0,0,0,5.505.563Zm-.4-51.111a25.845,25.845,0,0,1,5.166.526,25.263,25.263,0,0,1,16.018,10.708,24.509,24.509,0,0,1-7.05,34.353,25.325,25.325,0,0,1-38.672-25.837h0A24.958,24.958,0,0,1,333.588,1.494Z" transform="translate(-292.843)" fill="#371a45"/>
    <path id="Path_56" data-name="Path 56" d="M273.557,401.27c-.5,4.551,1.894,8.544,5.342,8.921s6.254-3.048,6.752-7.6-1.5-8.5-4.947-8.879S274.054,396.719,273.557,401.27Z" transform="translate(-260.813 -375.331)" fill="#f5f5f5"/>
    <g id="Group_51" data-name="Group 51" transform="translate(12.678 19.517)" opacity="0.2">
      <path id="Path_57" data-name="Path 57" d="M273.557,425.122c-.5,4.551,1.894,8.544,5.342,8.921,3.192.349,5.831-2.56,6.6-6.6a4.8,4.8,0,0,1-3.355.917c-3.448-.377-5.84-4.374-5.342-8.921.028-.251.061-.493.107-.74a9.29,9.29,0,0,0-3.351,6.422Z" transform="translate(-273.491 -418.7)" fill="#371a45"/>
    </g>
    <path id="Path_58" data-name="Path 58" d="M264.366,396.07a5.965,5.965,0,0,0,4.519-2.234,12,12,0,0,0,1.364-12.476,5.861,5.861,0,0,0-4.519-3.253,6.316,6.316,0,0,0-5.291,2.155,10.991,10.991,0,0,0-1.373,12.532,6.319,6.319,0,0,0,4.7,3.248,5.113,5.113,0,0,0,.6.033Zm.763-16.534c.149,0,.3.009.447.023a4.45,4.45,0,0,1,3.392,2.494,10.558,10.558,0,0,1-1.182,10.824,4.446,4.446,0,0,1-3.849,1.7,4.89,4.89,0,0,1-3.6-2.546,9.521,9.521,0,0,1,1.177-10.773,5.03,5.03,0,0,1,3.621-1.731Z" transform="translate(-245.763 -360.446)" fill="#371a45"/>
    <path id="Path_59" data-name="Path 59" d="M263.268,422.118a4.421,4.421,0,0,0,3.458-1.875,10.442,10.442,0,0,0,1.094-9.977,4.328,4.328,0,0,0-3.383-2.648,4.615,4.615,0,0,0-4,1.81,8.989,8.989,0,0,0-1.982,4.858c-.437,3.993,1.536,7.492,4.393,7.8.14.014.279.023.414.023Zm.749-13.058a2.445,2.445,0,0,1,.261.014A2.943,2.943,0,0,1,266.5,410.9a9.024,9.024,0,0,1-.926,8.437,2.95,2.95,0,0,1-2.569,1.3c-2.024-.223-3.444-3.057-3.1-6.194h0a7.5,7.5,0,0,1,1.638-4.063A3.348,3.348,0,0,1,264.017,409.06Z" transform="translate(-246.419 -388.593)" fill="#371a45"/>
    <path id="Path_60" data-name="Path 60" d="M444.106,761.546a.731.731,0,0,0,.116-1.452c-6.45-1.052-17.833-4.528-21.584-15.976a.73.73,0,1,0-1.387.456c2.96,9.033,11.034,15.055,22.738,16.962A1.053,1.053,0,0,0,444.106,761.546Z" transform="translate(-401.663 -708.978)" fill="#371a45"/>
    <g id="Group_52" data-name="Group 52" transform="translate(44.915 11.387)" opacity="0.5">
      <path id="Path_61" data-name="Path 61" d="M966.2,244c9.987,5.91,15.264,14.7,15.068,26.824C987.719,256.411,983.954,246.871,966.2,244Z" transform="translate(-966.2 -244)" fill="#fff"/>
    </g>
    <g id="Group_53" data-name="Group 53" transform="translate(29.949 31.527)" opacity="0.5">
      <path id="Path_62" data-name="Path 62" d="M648.5,678.263a14.528,14.528,0,0,0,2.09,5.933,1.615,1.615,0,0,1-.619,2.35l-.042.019a1.783,1.783,0,0,1-1.866-.172,8.01,8.01,0,0,1-3.332-8.2,1.662,1.662,0,0,1,1.536-1.382l.358-.028A1.741,1.741,0,0,1,648.5,678.263Z" transform="translate(-644.603 -676.777)" fill="#fff"/>
    </g>
    <g id="Group_54" data-name="Group 54" transform="translate(29.176 22.376)" opacity="0.5">
      <ellipse id="Ellipse_2" data-name="Ellipse 2" cx="2.876" cy="2.359" rx="2.876" ry="2.359" transform="matrix(0.201, -0.98, 0.98, 0.201, 0, 5.634)" fill="#fff"/>
    </g>
    <path id="Path_63" data-name="Path 63" d="M864.075,1154.654h0a3.349,3.349,0,0,1-.023,3.3l-7.483,13.03a3.145,3.145,0,0,1-2.5,1.568l-20.146,1.382a3.289,3.289,0,0,1-2.238-.684l-.614-.479a.626.626,0,0,1-.158-.805l8.046-14.049a4.756,4.756,0,0,1,3.811-2.383l20.4-1.373a.971.971,0,0,1,.912.5Z" transform="translate(-792.211 -1100.416)" fill="#bdc1c6"/>
    <g id="Group_55" data-name="Group 55" transform="translate(47.507 53.742)" opacity="0.6">
      <path id="Path_64" data-name="Path 64" d="M1044.21,1155.854a3.352,3.352,0,0,1-.023,3.295l-7.478,13.03a3.137,3.137,0,0,1-.219.33,3.136,3.136,0,0,0,2.266-1.54l7.483-13.03a3.36,3.36,0,0,0,.023-3.3.962.962,0,0,0-.912-.493l-20.4,1.373a4.754,4.754,0,0,0-3.053,1.391,4.571,4.571,0,0,1,1.005-.182l20.4-1.373a.971.971,0,0,1,.912.5Z" transform="translate(-1021.9 -1154.143)" fill="#fff"/>
    </g>
    <path id="Path_65" data-name="Path 65" d="M821.316,1162.037a2.535,2.535,0,0,0,.265-.009l20.146-1.382a3.742,3.742,0,0,0,2.992-1.871l7.483-13.03a3.977,3.977,0,0,0,.028-3.9h0a1.593,1.593,0,0,0-1.484-.81l-20.4,1.373a5.365,5.365,0,0,0-4.3,2.69L818,1159.151a1.25,1.25,0,0,0,.312,1.592l.614.479a3.873,3.873,0,0,0,2.387.819Zm29.532-19.783a.349.349,0,0,1,.312.186h0a2.76,2.76,0,0,1-.019,2.7l-7.483,13.03a2.514,2.514,0,0,1-2.02,1.261l-20.146,1.382a2.663,2.663,0,0,1-1.824-.558l-.614-.479c-.009,0-.009-.014,0-.023L827.1,1145.7a4.143,4.143,0,0,1,3.323-2.08l20.4-1.373h.023Zm.847-.112Z" transform="translate(-779.831 -1087.905)" fill="#371a45"/>
    <path id="Path_66" data-name="Path 66" d="M865.069,1216.012a.491.491,0,0,0,.419-.237l8.065-13.319a4.5,4.5,0,0,1,3.5-2.15l19.638-1.447a.488.488,0,1,0-.07-.973l-19.638,1.447a5.467,5.467,0,0,0-4.267,2.615l-8.065,13.319a.49.49,0,0,0,.163.67.5.5,0,0,0,.251.07Z" transform="translate(-824.398 -1142.107)" fill="#371a45"/>
    <path id="Path_67" data-name="Path 67" d="M1356.438,1385.237c1.717.986,4.072-.391,5.505-2.3a6.053,6.053,0,0,0,1.247-2.834,2.2,2.2,0,0,0-2.694-2.359,4.91,4.91,0,0,0-1.7.805C1356.383,1380.248,1354.665,1383.92,1356.438,1385.237Z" transform="translate(-1292.667 -1313.543)" fill="#f5f5f5"/>
    <path id="Path_68" data-name="Path 68" d="M1342.74,1371.242a4.611,4.611,0,0,0,2.071-.54,7.968,7.968,0,0,0,4.151-5.566,2.848,2.848,0,0,0-.945-2.471,2.969,2.969,0,0,0-2.639-.684c-2.518.582-4.793,3.472-5.259,5.7a2.9,2.9,0,0,0,.931,3.095.4.4,0,0,0,.074.047,3.232,3.232,0,0,0,1.619.419Zm-1.256-1.056Zm4.556-6.818a1.5,1.5,0,0,1,1,.386,1.4,1.4,0,0,1,.47,1.214,6.578,6.578,0,0,1-3.355,4.43,2.492,2.492,0,0,1-2.266.177,1.6,1.6,0,0,1-.34-1.6c.368-1.754,2.262-4.137,4.156-4.574a1.631,1.631,0,0,1,.33-.037Z" transform="translate(-1277.712 -1298.496)" fill="#371a45"/>
    <path id="Path_69" data-name="Path 69" d="M1495.353,1284.557a.738.738,0,0,0,.423-.135,3.785,3.785,0,0,0,1.857-3.448,3.577,3.577,0,0,0-1.917-2.8.731.731,0,0,0-.624,1.322,2.11,2.11,0,0,1,1.084,1.61,2.434,2.434,0,0,1-1.252,2.131.732.732,0,0,0,.428,1.326Z" transform="translate(-1425.114 -1218.591)" fill="#371a45"/>
    <path id="Path_70" data-name="Path 70" d="M343.193,1188.1l4.547,2.234a5.3,5.3,0,0,1,4.547,1.727c1.866,2.15,4,4.57,4,4.57a3.023,3.023,0,0,1,.284.512,1.619,1.619,0,0,1-2.527,1.88l-2.066-1.722s.8,6.352-5.338,3.709l-4.225-3.067-4.3-.67c-1.177-2.922,1.34-8.446,5.077-9.177Z" transform="translate(-322.147 -1132.777)" fill="#f6f6f6"/>
    <path id="Path_71" data-name="Path 71" d="M336.855,1190.039a3.144,3.144,0,0,0,1.945-.6,4.2,4.2,0,0,0,1.415-3.057l1.061.884a2.2,2.2,0,0,0,2.774.065,2.176,2.176,0,0,0,.7-2.657,3.634,3.634,0,0,0-.349-.628.3.3,0,0,0-.037-.042c-.023-.023-2.15-2.439-4-4.565a5.862,5.862,0,0,0-4.9-1.95l-4.388-2.155a.616.616,0,0,0-.386-.051,7.249,7.249,0,0,0-4.709,3.9,7.562,7.562,0,0,0-.814,6.1.6.6,0,0,0,.47.372l4.16.647,4.1,2.978a.568.568,0,0,0,.116.065,7.35,7.35,0,0,0,2.834.693Zm2.741-5.57a.6.6,0,0,0-.293.074.609.609,0,0,0-.312.61c.079.665.074,2.564-.926,3.313-.721.54-1.9.47-3.5-.209l-4.17-3.025a.6.6,0,0,0-.265-.107l-3.942-.614a6.807,6.807,0,0,1,.866-4.747,6.192,6.192,0,0,1,3.676-3.244l4.356,2.141a.613.613,0,0,0,.363.056,4.66,4.66,0,0,1,3.993,1.522c1.745,2.01,3.742,4.277,3.979,4.547a2.9,2.9,0,0,1,.209.382.96.96,0,0,1-.316,1.2.983.983,0,0,1-1.261-.028l-2.066-1.722a.61.61,0,0,0-.391-.14Z" transform="translate(-309.759 -1120.546)" fill="#371a45"/>
    <path id="Path_72" data-name="Path 72" d="M523.349,1223.868l-.949,2,1.717-1.391a.5.5,0,1,0-.768-.6h0Z" transform="translate(-498.138 -1166.61)" fill="#371a45"/>
    <path id="Path_73" data-name="Path 73" d="M736.7,1445.37a.486.486,0,0,0,.177-.94l-2.648-1.024,3.611-.135a.489.489,0,0,0,.47-.507.482.482,0,0,0-.5-.47l-5.98.223a.482.482,0,0,0-.461.4.489.489,0,0,0,.3.535l4.854,1.875a.46.46,0,0,0,.177.032Z" transform="translate(-697.374 -1375.142)" fill="#371a45"/>
    <path id="Path_74" data-name="Path 74" d="M210.327,1270.464a.732.732,0,0,0,.107-1.457c-2.9-.437-4.551-1.824-5.207-4.37a.73.73,0,1,0-1.415.363c.805,3.137,2.9,4.919,6.4,5.449a.907.907,0,0,0,.112.009Z" transform="translate(-194.353 -1205.229)" fill="#371a45"/>
    <path id="Path_75" data-name="Path 75" d="M399.043,1165.724l-2.843-.624,2.476,1.526a.493.493,0,1,0,.368-.9Z" transform="translate(-377.811 -1110.848)" fill="#371a45"/>
    <path id="Path_76" data-name="Path 76" d="M453.246,1061a17.951,17.951,0,0,0-1.573,4.5c-.116.526-.2,1.056-.27,1.592a.485.485,0,0,0,.419.549.491.491,0,0,0,.554-.5,17.94,17.94,0,0,1,.866-6.138h0Z" transform="translate(-430.441 -1011.592)" fill="#371a45"/>
    <path id="Path_77" data-name="Path 77" d="M1002.232,1092.211a.734.734,0,0,0,.721-.619,9.548,9.548,0,0,0-.689-5.305.729.729,0,0,0-1.308.647,8.248,8.248,0,0,1,.554,4.435.731.731,0,0,0,.61.833A.882.882,0,0,0,1002.232,1092.211Z" transform="translate(-954.353 -1035.316)" fill="#371a45"/>
    <path id="Path_78" data-name="Path 78" d="M586.836,1162.76a.61.61,0,0,0,.586-.447l.256-.917a2.543,2.543,0,0,1,2.587-1.866l16.316.772a.61.61,0,0,0,.056-1.219l-16.316-.772a3.757,3.757,0,0,0-3.816,2.755l-.256.917a.607.607,0,0,0,.423.749.69.69,0,0,0,.163.023Z" transform="translate(-558.996 -1104.371)" fill="#371a45"/>
    <path id="Path_79" data-name="Path 79" d="M642.125,1212.687a.609.609,0,0,0,.6-.507l.219-1.275a1.109,1.109,0,0,1,1.135-.922l14.426.493a.608.608,0,0,0,.042-1.215l-14.426-.493a2.341,2.341,0,0,0-2.378,1.936l-.219,1.275a.611.611,0,0,0,.5.7.762.762,0,0,0,.1.009Z" transform="translate(-611.711 -1152.483)" fill="#371a45"/>
    <path id="Path_80" data-name="Path 80" d="M814.42,1233.427a.486.486,0,0,0,.47-.363l.6-2.252,2.466-.186a.481.481,0,0,0,.433-.358l1.038-3.816a.486.486,0,0,0-.94-.251l-.945,3.486-2.466.186a.482.482,0,0,0-.433.358l-.689,2.587a.485.485,0,0,0,.344.6.587.587,0,0,0,.126.019Z" transform="translate(-776.109 -1168.76)" fill="#371a45"/>
    <ellipse id="Ellipse_3" data-name="Ellipse 3" cx="1.689" cy="1.843" rx="1.689" ry="1.843" transform="translate(32.964 59.152)" fill="#003b6a"/>
    <path id="Path_81" data-name="Path 81" d="M703.462,1267.021a2.216,2.216,0,1,0-2.062-2.21A2.143,2.143,0,0,0,703.462,1267.021Zm0-3.681a1.479,1.479,0,1,1-1.322,1.471A1.406,1.406,0,0,1,703.462,1263.34Z" transform="translate(-668.808 -1203.811)" fill="#371a45"/>
    <path id="Path_82" data-name="Path 82" d="M853.428,1638.381a.674.674,0,0,0,.326-.079.729.729,0,0,0,.326-.982l-1.382-2.764c2.913-6.175,1.717-13.728,1.666-14.049a.731.731,0,1,0-1.443.233c.014.074,1.21,7.693-1.694,13.491a.73.73,0,0,0,0,.651l1.545,3.085a.73.73,0,0,0,.656.4Z" transform="translate(-811.589 -1544.475)" fill="#371a45"/>
    <path id="Path_83" data-name="Path 83" d="M594.436,1767.277a8.6,8.6,0,0,0,4.9-1.117.73.73,0,0,0-.889-1.159c-1.7,1.3-7.73,1-11.117-.563-1.042-.479-1.675-1.029-1.7-1.475a.729.729,0,0,0-1.457.079c.056,1.052.912,1.969,2.546,2.722a19.963,19.963,0,0,0,7.716,1.517Z" transform="translate(-557.037 -1680.231)" fill="#371a45"/>
    <path id="Path_84" data-name="Path 84" d="M586.012,1690.1l.572-3.7-1.945,3.2a.744.744,0,1,0,1.373.5Z" transform="translate(-557.376 -1607.889)" fill="#371a45"/>
    <path id="Path_85" data-name="Path 85" d="M788.848,1920.158c.009-.037.009-.009.009-.009a.972.972,0,0,1,0,.116c-.209,1.117-1.5,1.605-2.49,1.875l-.568.126.586.056a3.94,3.94,0,0,0,3.541-1.233,1.971,1.971,0,0,0,.377-.782.73.73,0,0,0-1.452-.154h0Z" transform="translate(-749.281 -1830.148)" fill="#371a45"/>
    <path id="Path_86" data-name="Path 86" d="M901.138,1742.283a21.273,21.273,0,0,0,7.143-1.336.731.731,0,0,0-.526-1.364c-3.444,1.322-9.526,2.1-11.653-.41a.73.73,0,1,0-1.117.94C896.336,1741.711,898.672,1742.283,901.138,1742.283Z" transform="translate(-853.222 -1657.96)" fill="#371a45"/>
    <path id="Path_87" data-name="Path 87" d="M1048.474,1885.024a5.87,5.87,0,0,1-3.406,1.1l-.568.014a7.679,7.679,0,0,0,4.109.33,2.945,2.945,0,0,0,.679-.233.731.731,0,0,0-.819-1.21h0Z" transform="translate(-995.942 -1797.15)" fill="#371a45"/>
    <g id="Group_56" data-name="Group 56" transform="translate(38.316 56.476)" opacity="0.2">
      <path id="Path_88" data-name="Path 88" d="M833.707,1212.9l2.555,2.1s-6.692,13.1,8.781,13.4l-16.9,1.545h-1.759l-1.987-1.419" transform="translate(-824.4 -1212.9)" fill="#371a45"/>
    </g>
    <g id="Group_57" data-name="Group 57" transform="translate(63.041 65.007)" opacity="0.2">
      <path id="Path_89" data-name="Path 89" d="M1356.438,1402.887c1.717.987,4.072-.391,5.505-2.3-4.416.2-3.2-4.216-3.151-4.388C1356.383,1397.9,1354.665,1401.57,1356.438,1402.887Z" transform="translate(-1355.708 -1396.2)" fill="#371a45"/>
    </g>
    <g id="Group_58" data-name="Group 58" transform="translate(10.119 39.765)" opacity="0.2">
      <path id="Path_90" data-name="Path 90" d="M246.681,865.909s-12.095,1.424-18.591-5.235c0,0-5.356,3.49-4.747,8.688s7.832,6.776,7.832,6.776,2.3,6.776,7.046,3.667c0,0-1.489,5.273-5.347,2.471s-4.467-3.1-4.467-3.1-6-.689-7.222-1.717-3.309-3.057-2.522-8.456,3.89-11.7,8.9-15.2c0,0,6.762,11.373,19.122,12.109Z" transform="translate(-218.488 -853.8)" fill="#371a45"/>
    </g>
    <g id="Group_59" data-name="Group 59" transform="translate(9.987 61.353)" opacity="0.2">
      <path id="Path_91" data-name="Path 91" d="M233.51,1338.311l-1.056,9.745s-1.256,2.8,2.68,5.887,7.758,3.49,10.806,1.987a3.866,3.866,0,0,0,1.871-3.811c-.237-.149-.4-.228-.4-.228s-2.639,2.5-8.176,1.522-.554-9.074,0-14.743-2.8-5.119-2.8-5.119-12.8-2.373-13.84-6.9,5.212-3.686,5.212-3.686l-1.675-1.154s-4.817-1.238-7.4-1.847c-2.5-.586-2.145-2.159-2.122-2.266-.033.061-.34.586-.749,1.317-.475,3.109-1.657,17.763,17.647,19.285Z" transform="translate(-215.661 -1317.7)" fill="#371a45"/>
    </g>
    <g id="Group_60" data-name="Group 60" transform="translate(40.442 75.566)" opacity="0.2">
      <path id="Path_92" data-name="Path 92" d="M871.5,1640.742a.039.039,0,0,0-.009-.028,15.8,15.8,0,0,0,9.093,4.421c5.561.61,6.622-2.68,6.255-4.714a2.782,2.782,0,0,0-.237-.7c-1.019,1.592-3.537,2.555-6.529,2.937-3.351.428-6.52-3.411-4.933-7.66a32.842,32.842,0,0,0,1.666-9.4l5.766-2.5-10.354.368-.824,9.936-1.294,4.528s.679,1.345,1.4,2.806Z" transform="translate(-870.1 -1623.1)" fill="#371a45"/>
    </g>
    <g id="Group_61" data-name="Group 61" transform="translate(21.935 68.283)" opacity="0.2">
      <path id="Path_93" data-name="Path 93" d="M493.016,1477.727l-5.086-1.908-15.2-7.609-.326-1.61s2.518,1.271,3,1.61,13.379,6.431,13.379,6.431l3.546.163" transform="translate(-472.4 -1466.6)" fill="#371a45"/>
    </g>
    <g id="Group_62" data-name="Group 62" transform="translate(12.502 37.663)" opacity="0.2">
      <path id="Path_94" data-name="Path 94" d="M271.813,814.553l4.775-3.178-.94-1.7-.531-.74a23.391,23.391,0,0,0-5.417-.247C274.5,810.979,271.9,814.437,271.813,814.553Z" transform="translate(-269.7 -808.616)" fill="#371a45"/>
    </g>
    <path id="Path_95" data-name="Path 95" d="M1148.963,1305.093a2.989,2.989,0,0,0-.163.428,16.567,16.567,0,0,0,3.178,1.81,16.329,16.329,0,0,0,3.448,1.219,3.375,3.375,0,0,0,.214-.4.035.035,0,0,1,.009-.019c.028-.061.056-.125.079-.186a4.126,4.126,0,0,0,.14-.447v-.019a3.687,3.687,0,0,0,.1-.67,3.626,3.626,0,0,0-.154-1.247,3.67,3.67,0,0,0-6.022-1.615,3.9,3.9,0,0,0-.451.507.379.379,0,0,0-.032.047,3.741,3.741,0,0,0-.247.4,1.707,1.707,0,0,0-.079.158C1148.977,1305.065,1148.968,1305.079,1148.963,1305.093Z" transform="translate(-1095.388 -1242.283)" fill="#fff"/>
    <path id="Path_96" data-name="Path 96" d="M1154.854,1308.064a.04.04,0,0,0,.028-.014,4.243,4.243,0,0,0,.219-.4.036.036,0,0,1,.009-.019c.028-.06.056-.126.079-.191a4.117,4.117,0,0,0,.14-.447v-.019a3.636,3.636,0,0,0,.1-.675,3.7,3.7,0,0,0-5.184-3.574,3.648,3.648,0,0,0-1.047.689,3.4,3.4,0,0,0-.456.512.379.379,0,0,0-.033.047,3.839,3.839,0,0,0-.247.4c-.028.051-.056.107-.079.158l-.019.042h0a3.474,3.474,0,0,0-.168.433.039.039,0,0,0,.009.032,20.779,20.779,0,0,0,6.636,3.034h0Zm-3.123-5.6a3.649,3.649,0,0,1,3.644,3.825,3.239,3.239,0,0,1-.1.666v.019c-.042.149-.088.3-.144.442-.023.061-.051.126-.079.186l-.009.019a3.76,3.76,0,0,1-.2.382,16.862,16.862,0,0,1-3.42-1.215,16.653,16.653,0,0,1-3.155-1.792,3.322,3.322,0,0,1,.158-.4l.019-.042c.023-.051.051-.107.079-.158a4.319,4.319,0,0,1,.242-.4.4.4,0,0,0,.033-.047,3.624,3.624,0,0,1,1.475-1.177,3.623,3.623,0,0,1,1.461-.3Z" transform="translate(-1094.816 -1241.768)" fill="#fff"/>
    <path id="Path_97" data-name="Path 97" d="M1145.3,1388.6c.014.149.037.3.065.442a3.868,3.868,0,0,0,.182.6,3.672,3.672,0,0,0,4.612,2.1,3.848,3.848,0,0,0,.549-.242,3.587,3.587,0,0,0,.4-.251,19.668,19.668,0,0,1-5.812-2.653Z" transform="translate(-1092.051 -1323.947)" fill="#fff"/>
    <path id="Path_98" data-name="Path 98" d="M1148.486,1391.492a3.759,3.759,0,0,0,1.215-.2,3.9,3.9,0,0,0,.554-.242,3.649,3.649,0,0,0,.4-.251.033.033,0,0,0,.014-.028c0-.009-.009-.019-.023-.023a19.6,19.6,0,0,1-5.8-2.653c-.009,0-.023-.009-.033,0a.033.033,0,0,0-.014.028c.014.149.037.3.065.447a3.5,3.5,0,0,0,.186.6,3.7,3.7,0,0,0,3.439,2.327Zm2.085-.712a2.935,2.935,0,0,1-.344.209,3.794,3.794,0,0,1-.545.242,3.644,3.644,0,0,1-4.574-2.089,3.688,3.688,0,0,1-.242-.973,18.714,18.714,0,0,0,2.75,1.531,18.387,18.387,0,0,0,2.955,1.075Z" transform="translate(-1091.574 -1323.456)" fill="#fff"/>
    <path id="Path_99" data-name="Path 99" d="M1148.363,1318.536a16.567,16.567,0,0,0,3.178,1.81,16.321,16.321,0,0,0,3.448,1.219,3.364,3.364,0,0,0,.214-.4.036.036,0,0,1,.009-.019c.028-.06.056-.126.079-.186a4.1,4.1,0,0,0,.14-.447v-.019a3.686,3.686,0,0,0,.1-.67,3.633,3.633,0,0,0-.154-1.247,3.683,3.683,0,0,0-1.447-1.973,3.681,3.681,0,0,1,.582,2.173,3.331,3.331,0,0,1-.1.67v.019a.066.066,0,0,1-.009.028,1.363,1.363,0,0,1-1.522.833,17.021,17.021,0,0,1-4.528-1.913c-.042.1.042.023.009.121Z" transform="translate(-1094.951 -1255.298)" fill="#fff"/>
    <path id="Path_100" data-name="Path 100" d="M1154.613,1321.1a.041.041,0,0,0,.028-.014,4.226,4.226,0,0,0,.219-.4l.009-.019c.028-.065.056-.126.079-.191.056-.144.1-.3.144-.447v-.019a3.647,3.647,0,0,0,.1-.675,3.7,3.7,0,0,0-1.615-3.244c-.009-.009-.028,0-.037,0a.024.024,0,0,0,0,.037,3.65,3.65,0,0,1,.424.917,3.729,3.729,0,0,1,.154,1.238,3.231,3.231,0,0,1-.1.666v.019l-.014.028a1.341,1.341,0,0,1-1.489.814A17.149,17.149,0,0,1,1148,1317.9c-.009,0-.019,0-.023,0s-.014.009-.018.019c-.014.037-.023.079.018.1a.084.084,0,0,1,0,.023.039.039,0,0,0,.009.032,16.659,16.659,0,0,0,3.183,1.815,16.328,16.328,0,0,0,3.458,1.224h0Zm-.954-4.882a3.656,3.656,0,0,1,1.317,1.871,3.726,3.726,0,0,1,.154,1.238,3.239,3.239,0,0,1-.1.666v.014a4.6,4.6,0,0,1-.144.447c-.023.061-.051.121-.079.186l-.009.019a3.758,3.758,0,0,1-.2.382,20.743,20.743,0,0,1-6.576-3.006v-.051a16.894,16.894,0,0,0,4.482,1.88,1.4,1.4,0,0,0,1.554-.856.067.067,0,0,1,.009-.032v-.014a3.809,3.809,0,0,0,.1-.679,3.712,3.712,0,0,0-.154-1.256A3.558,3.558,0,0,0,1153.659,1316.22Z" transform="translate(-1094.574 -1254.806)" fill="#fff"/>
    <path id="Path_101" data-name="Path 101" d="M1148.3,1390.264a18.516,18.516,0,0,1-2.8-1.564c.014.149.037.3.065.442a15.922,15.922,0,0,0,2.62,1.461,16.393,16.393,0,0,0,2.727,1,3.6,3.6,0,0,0,.4-.251A18.484,18.484,0,0,1,1148.3,1390.264Z" transform="translate(-1092.241 -1324.043)" fill="#fff"/>
    <path id="Path_102" data-name="Path 102" d="M1150.24,1391.045h.014a3.666,3.666,0,0,0,.4-.251.034.034,0,0,0,.014-.028c0-.009-.009-.019-.023-.023a18.3,18.3,0,0,1-3.011-1.089h0a18.206,18.206,0,0,1-2.792-1.564c-.009,0-.023-.009-.033,0a.033.033,0,0,0-.014.028c.014.149.037.3.065.447,0,.009,0,.014.014.019a16.124,16.124,0,0,0,2.625,1.466,16.783,16.783,0,0,0,2.732,1.005h.009Zm.33-.27a3.089,3.089,0,0,1-.335.2,16.318,16.318,0,0,1-2.708-1,15.7,15.7,0,0,1-2.6-1.452,3.22,3.22,0,0,1-.056-.363,18.72,18.72,0,0,0,2.75,1.531h0a18.388,18.388,0,0,0,2.955,1.075Z" transform="translate(-1091.574 -1323.456)" fill="#fff"/>
    <path id="Path_103" data-name="Path 103" d="M1149.082,1348.1c0,.014-.014.028-.019.042a2.963,2.963,0,0,0-.163.428,16.562,16.562,0,0,0,3.178,1.81,16.329,16.329,0,0,0,3.448,1.219,3.323,3.323,0,0,0,.214-.4.036.036,0,0,1,.009-.019,13.8,13.8,0,0,1-3.458-1.168,13.105,13.105,0,0,1-3.206-1.908Z" transform="translate(-1095.483 -1285.332)" fill="#fff"/>
    <path id="Path_104" data-name="Path 104" d="M1154.855,1351.055a.04.04,0,0,0,.028-.014,4.243,4.243,0,0,0,.219-.4.035.035,0,0,1,.009-.019v-.028a.026.026,0,0,0-.023-.014,13.787,13.787,0,0,1-3.453-1.163,13.148,13.148,0,0,1-3.2-1.9.066.066,0,0,0-.028-.009.031.031,0,0,0-.023.019l-.019.042a3.462,3.462,0,0,0-.168.433.039.039,0,0,0,.009.032,20.782,20.782,0,0,0,6.636,3.034h0Zm.182-.428a3.373,3.373,0,0,1-.2.363,16.861,16.861,0,0,1-3.42-1.214,16.667,16.667,0,0,1-3.155-1.792,3.316,3.316,0,0,1,.158-.4h0a17.755,17.755,0,0,0,6.613,3.043Z" transform="translate(-1094.816 -1284.76)" fill="#fff"/>
    <path id="Path_105" data-name="Path 105" d="M1174.092,1325.953l-.014-.247a10.032,10.032,0,0,1-3.178-1.024,8.983,8.983,0,0,1-2.89-1.782l-.209.13a8.9,8.9,0,0,0,3,1.875A10.112,10.112,0,0,0,1174.092,1325.953Z" transform="translate(-1113.504 -1261.304)" fill="#fff"/>
    <path id="Path_106" data-name="Path 106" d="M1173.568,1325.309h.051c.009,0,.014,0,.018-.009a.035.035,0,0,0,.01-.023l-.014-.247a.03.03,0,0,0-.028-.028h-.042a10.506,10.506,0,0,1-3.123-1.024,9,9,0,0,1-2.876-1.768.03.03,0,0,0-.042-.009l-.209.13s-.009.009-.014.019v.023a8.978,8.978,0,0,0,3.011,1.889,10.627,10.627,0,0,0,3.258,1.052Zm.019-.061h-.019a10.569,10.569,0,0,1-3.23-1.042,9.369,9.369,0,0,1-2.964-1.838l.158-.1a9.319,9.319,0,0,0,2.885,1.768,10.611,10.611,0,0,0,3.151,1.028h.014l.009.186Z" transform="translate(-1113.027 -1260.633)" fill="#fff"/>
    <path id="Path_107" data-name="Path 107" d="M1195.749,1310.113l.037-.247a11.23,11.23,0,0,1-2.541-.884,11.074,11.074,0,0,1-2.378-1.382l-.167.181a11.1,11.1,0,0,0,2.443,1.424,11.48,11.48,0,0,0,2.611.9Z" transform="translate(-1135.338 -1246.717)" fill="#fff"/>
    <path id="Path_108" data-name="Path 108" d="M1195.082,1309.621a.028.028,0,0,0,.019,0s.009-.014.014-.019l.037-.247c0-.019-.009-.033-.023-.033a11.284,11.284,0,0,1-2.536-.884,10.968,10.968,0,0,1-2.374-1.378.035.035,0,0,0-.042,0l-.167.182a.036.036,0,0,0-.009.023c0,.009,0,.014.009.019a11.134,11.134,0,0,0,2.448,1.429,11.635,11.635,0,0,0,2.615.907h0Zm0-.251-.028.186a11.872,11.872,0,0,1-2.569-.9,11.187,11.187,0,0,1-2.41-1.4l.125-.14a11.114,11.114,0,0,0,2.364,1.368,11.732,11.732,0,0,0,2.522.884Z" transform="translate(-1134.671 -1246.192)" fill="#fff"/>
    <path id="Path_109" data-name="Path 109" d="M1164.932,1336.92v-.247a11.213,11.213,0,0,1-3.36-1.1,10.39,10.39,0,0,1-3.071-1.875l-.2.144a10.313,10.313,0,0,0,3.169,1.959,11.26,11.26,0,0,0,3.462,1.121Z" transform="translate(-1104.446 -1271.602)" fill="#fff"/>
    <path id="Path_110" data-name="Path 110" d="M1164.264,1336.3h0a.025.025,0,0,0,.023-.009.036.036,0,0,0,.009-.023v-.247c0-.019-.014-.028-.032-.028h0a11.076,11.076,0,0,1-3.346-1.094,10.509,10.509,0,0,1-3.062-1.866.026.026,0,0,0-.042,0l-.2.144s-.009.014-.014.019a.042.042,0,0,0,0,.023,10.194,10.194,0,0,0,3.183,1.969,11.267,11.267,0,0,0,3.476,1.121Zm-.028-.247v.186a11.427,11.427,0,0,1-3.42-1.117,10.713,10.713,0,0,1-3.141-1.922l.154-.112a10.71,10.71,0,0,0,3.067,1.861,11.527,11.527,0,0,0,3.341,1.1Z" transform="translate(-1103.778 -1270.953)" fill="#fff"/>
    <path id="Path_111" data-name="Path 111" d="M1154.454,1412.215v-.06a.348.348,0,0,0,.032-.056h-.009s-.014-.009-.014-.009a8.8,8.8,0,0,1-2.411-.791,8.58,8.58,0,0,1-2.164-1.3l-.089.088a8.928,8.928,0,0,0,2.2,1.322,8.635,8.635,0,0,0,2.453.8Z" transform="translate(-1096.341 -1344.351)" fill="#fff"/>
    <path id="Path_112" data-name="Path 112" d="M1153.881,1411.819a.03.03,0,0,0,.028-.028v-.056l.033-.051v-.023c0-.009-.009-.014-.014-.019h-.009a.009.009,0,0,0-.009-.009h-.014a8.931,8.931,0,0,1-2.4-.786,8.655,8.655,0,0,1-2.155-1.289.034.034,0,0,0-.042,0l-.089.089a.035.035,0,0,0-.009.023.026.026,0,0,0,.009.023,11.543,11.543,0,0,0,4.672,2.131h0Zm-.009-.126-.009.019v.047a8.834,8.834,0,0,1-2.415-.8,9.206,9.206,0,0,1-2.169-1.294l.047-.047a9.151,9.151,0,0,0,2.15,1.28,9.057,9.057,0,0,0,2.4.791Z" transform="translate(-1095.769 -1343.922)" fill="#fff"/>
    <path id="Path_113" data-name="Path 113" d="M1145.4,1388.6a3.674,3.674,0,0,0,5.812,2.657,19.656,19.656,0,0,1-5.812-2.653Z" transform="translate(-1092.146 -1323.947)" fill="#fff"/>
    <path id="Path_114" data-name="Path 114" d="M1146.187,1389.193a3.794,3.794,0,0,0,2.234-.721.144.144,0,0,0,.056-.14.141.141,0,0,0-.1-.107,19.509,19.509,0,0,1-5.766-2.639.133.133,0,0,0-.149,0,.14.14,0,0,0-.07.13,3.82,3.82,0,0,0,2.21,3.132,3.775,3.775,0,0,0,1.582.344Zm1.82-.777a3.536,3.536,0,0,1-5.3-2.425,19.373,19.373,0,0,0,2.564,1.405A19.139,19.139,0,0,0,1148.007,1388.416Z" transform="translate(-1089.275 -1321.05)" fill="#fff"/>
    <path id="Path_115" data-name="Path 115" d="M1106.179,1332.757c-.223.489.5,1.34,1.792,2.238a19.657,19.657,0,0,0,5.812,2.653c1.522.391,2.639.381,2.867-.107.2-.442-.377-1.187-1.452-1.992a4.09,4.09,0,0,1-.14.447c.3.247.442.438.391.549s-.3.13-.693.06a20.591,20.591,0,0,1-6.627-3.029c-.307-.251-.461-.451-.41-.563s.293-.13.67-.065a3.8,3.8,0,0,1,.247-.4C1107.328,1332.268,1106.384,1332.314,1106.179,1332.757Z" transform="translate(-1054.712 -1270.337)" fill="#fff"/>
    <path id="Path_116" data-name="Path 116" d="M1114.784,1337.16c.582,0,.963-.135,1.084-.4.2-.442-.33-1.182-1.461-2.029-.009,0-.019-.009-.028,0a.021.021,0,0,0-.019.023,3.78,3.78,0,0,1-.14.442c0,.014,0,.028.009.032.391.321.4.461.382.512-.042.093-.284.107-.661.042a20.7,20.7,0,0,1-6.613-3.025c-.3-.242-.442-.433-.4-.531.023-.056.14-.13.638-.047.014,0,.023,0,.033-.014a4.265,4.265,0,0,1,.242-.4c0-.009.009-.019,0-.028s-.014-.019-.023-.019c-1.378-.3-2.285-.219-2.49.223h0c-.223.484.451,1.336,1.8,2.276a18.3,18.3,0,0,0,2.8,1.568,18.86,18.86,0,0,0,3.02,1.094,7.534,7.534,0,0,0,1.815.275Zm-.377-2.355c1.066.805,1.592,1.522,1.405,1.927-.209.456-1.266.493-2.829.093a19.6,19.6,0,0,1-5.8-2.653c-1.326-.922-1.992-1.74-1.782-2.2.186-.4,1.07-.479,2.378-.2a3.759,3.759,0,0,0-.209.344c-.4-.065-.628-.037-.684.084s.084.326.414.6a16.678,16.678,0,0,0,3.183,1.815,16.412,16.412,0,0,0,3.453,1.224c.428.074.67.051.726-.079s-.07-.312-.382-.573a3.7,3.7,0,0,0,.121-.386Z" transform="translate(-1053.907 -1269.547)" fill="#fff"/>
    <path id="Path_117" data-name="Path 117" d="M1248.811,1408.9c-.009.019-.014.042-.023.061.3.242.442.437.391.549s-.3.13-.693.06a12,12,0,0,1-2.085-.642.53.53,0,0,1,0,.209c.326.121.647.233.945.326,1.308.4,1.992.4,2.071.219C1249.462,1409.579,1249.327,1409.319,1248.811,1408.9Z" transform="translate(-1188.446 -1343.302)" fill="#fff"/>
    <path id="Path_118" data-name="Path 118" d="M1248.42,1409.21c.228,0,.377-.042.414-.13.065-.149-.158-.447-.614-.814a.031.031,0,0,0-.028,0,.02.02,0,0,0-.019.019v.014a.179.179,0,0,0-.023.042.027.027,0,0,0,.009.033c.391.321.41.461.382.512-.042.093-.284.112-.661.042a12.168,12.168,0,0,1-2.08-.642c-.009,0-.023,0-.028,0a.022.022,0,0,0-.009.028.463.463,0,0,1,0,.2.031.031,0,0,0,.019.033c.326.121.647.233.949.326a6.536,6.536,0,0,0,1.694.335Zm-.2-.875c.512.423.6.651.568.717-.061.135-.656.186-2.034-.237-.293-.088-.6-.2-.921-.316a.377.377,0,0,0,0-.144,11.745,11.745,0,0,0,2.043.624c.423.074.67.047.726-.079s-.07-.312-.382-.572h0Z" transform="translate(-1187.837 -1342.691)" fill="#fff"/>
    <path id="Path_119" data-name="Path 119" d="M1299.633,1405.1l-.033.037a5.449,5.449,0,0,1,.628.554A2.833,2.833,0,0,0,1299.633,1405.1Z" transform="translate(-1239.17 -1339.679)" fill="#fff"/>
    <path id="Path_120" data-name="Path 120" d="M1299.617,1405.012a.027.027,0,0,0,.019,0,.029.029,0,0,0,0-.042,3,3,0,0,0-.6-.6.021.021,0,0,0-.023,0,.024.024,0,0,0-.019.009l-.033.037a.02.02,0,0,0,0,.023.024.024,0,0,0,.009.019,6.119,6.119,0,0,1,.624.549.036.036,0,0,0,.023.009Z" transform="translate(-1238.559 -1338.972)" fill="#fff"/>
    <path id="Path_121" data-name="Path 121" d="M1298.9,1405.746l.033-.037s-.009-.009-.014-.009l-.019.051Z" transform="translate(-1238.503 -1340.251)" fill="#fff"/>
    <path id="Path_122" data-name="Path 122" d="M1298.328,1405.192c.009,0,.019,0,.023-.009l.033-.037a.034.034,0,0,0,0-.042s-.009-.009-.019-.014-.019-.009-.028,0a.02.02,0,0,0-.019.019l-.019.051a.038.038,0,0,0,.014.037h.014Z" transform="translate(-1237.931 -1339.664)" fill="#fff"/>
    <path id="Path_123" data-name="Path 123" d="M1241.972,1417.609a.455.455,0,0,1,.1.447.434.434,0,0,1-.363.214,5.335,5.335,0,0,1-1.95-.326c-.312-.093-.638-.2-.973-.335a.639.639,0,0,1-.284.191c.5.191.982.349,1.433.475,1.615.451,2.313.33,2.425.088.06-.135-.028-.391-.382-.763Z" transform="translate(-1180.913 -1351.597)" fill="#fff"/>
    <path id="Path_124" data-name="Path 124" d="M1241.011,1418.148c.423,0,.642-.1.7-.233.079-.167-.061-.451-.386-.8a.031.031,0,0,0-.046.042.425.425,0,0,1,.093.419.412.412,0,0,1-.34.2,5.423,5.423,0,0,1-1.936-.326c-.307-.093-.633-.2-.973-.335a.027.027,0,0,0-.032.009.6.6,0,0,1-.275.182c-.014,0-.019.014-.019.028a.032.032,0,0,0,.019.028c.5.191.982.349,1.433.479a6.978,6.978,0,0,0,1.754.307Zm.428-.81c.191.237.275.437.223.554-.084.186-.684.372-2.387-.107-.428-.121-.889-.27-1.359-.451a.632.632,0,0,0,.214-.154c.335.126.656.233.954.326a5.58,5.58,0,0,0,1.964.33.472.472,0,0,0,.386-.233.369.369,0,0,0,.009-.265Z" transform="translate(-1180.246 -1351.131)" fill="#fff"/>
    <path id="Path_125" data-name="Path 125" d="M1207,1401.638a18.316,18.316,0,0,0,2.946,1.061c1.517.391,2.643.382,2.867-.107.2-.442-.377-1.187-1.452-1.992-.009.047-.023.089-.037.135l.06-.079c.624.475,1.322,1.14,1.112,1.592a.635.635,0,0,1-.521.312,6.009,6.009,0,0,1-2.136-.289,16.822,16.822,0,0,1-1.722-.586,4.45,4.45,0,0,1-1.117-.037Z" transform="translate(-1150.879 -1335.389)" fill="#fff"/>
    <path id="Path_126" data-name="Path 126" d="M1210.993,1402.319c.582,0,.963-.135,1.084-.4.2-.442-.33-1.182-1.461-2.029-.009,0-.019-.009-.028,0a.021.021,0,0,0-.019.023,1.3,1.3,0,0,1-.037.13.038.038,0,0,0,.014.037.036.036,0,0,0,.037-.009l.042-.056c.61.47,1.28,1.108,1.08,1.536a.6.6,0,0,1-.5.293,5.9,5.9,0,0,1-2.127-.289,17.579,17.579,0,0,1-1.722-.586h-.014a4.427,4.427,0,0,1-1.112-.037.035.035,0,0,0-.033.023.034.034,0,0,0,.019.037,18.254,18.254,0,0,0,2.955,1.061,7.531,7.531,0,0,0,1.815.275Zm.521-1.564c.442.47.628.875.507,1.14-.209.456-1.266.493-2.829.093a17.59,17.59,0,0,1-2.755-.977,3.832,3.832,0,0,0,.917.014,17.067,17.067,0,0,0,1.717.586,6.01,6.01,0,0,0,2.15.289.661.661,0,0,0,.544-.326C1211.873,1401.337,1211.747,1401.049,1211.515,1400.755Z" transform="translate(-1150.117 -1334.707)" fill="#fff"/>
    <path id="Path_127" data-name="Path 127" d="M1244.4,1406.554c.335.126.666.237.973.335a5.335,5.335,0,0,0,1.95.326.441.441,0,0,0,.363-.214.455.455,0,0,0-.1-.447,5.079,5.079,0,0,0-.628-.554l-.033.037c-.009.033-.023.065-.037.1.517.419.656.679.605.782-.079.177-.763.182-2.071-.219-.3-.093-.619-.2-.945-.326a.748.748,0,0,1-.028.093.353.353,0,0,1-.056.088Z" transform="translate(-1186.539 -1340.537)" fill="#fff"/>
    <path id="Path_128" data-name="Path 128" d="M1246.874,1406.456a1.771,1.771,0,0,0,.233-.014.472.472,0,0,0,.386-.233.488.488,0,0,0-.1-.479,6.22,6.22,0,0,0-.633-.563.029.029,0,0,0-.042,0l-.033.037a.014.014,0,0,1,0,.009c-.009.032-.023.065-.033.1a.039.039,0,0,0,.009.033c.54.438.633.675.6.745-.06.135-.656.186-2.034-.237-.3-.093-.619-.2-.945-.321h-.023c-.009,0-.014.014-.014.019a.3.3,0,0,1-.028.084.835.835,0,0,1-.051.084.031.031,0,0,0,0,.028.02.02,0,0,0,.019.019c.34.126.67.242.973.335a6.869,6.869,0,0,0,1.731.344Zm-.13-1.219a5.143,5.143,0,0,1,.6.535.346.346,0,0,1-.251.61,5.424,5.424,0,0,1-1.936-.326c-.293-.088-.61-.2-.935-.321.014-.019.023-.042.037-.065a.354.354,0,0,0,.023-.065c.316.116.624.224.917.312,1.154.354,2,.437,2.108.2.065-.144-.154-.437-.6-.805.009-.023.019-.051.028-.074l.009-.014Z" transform="translate(-1186.309 -1339.737)" fill="#fff"/>
    <path id="Path_129" data-name="Path 129" d="M1299.6,1405.137a5.472,5.472,0,0,1,.628.554,2.835,2.835,0,0,0-.6-.591Z" transform="translate(-1239.17 -1339.679)" fill="#fff"/>
    <path id="Path_130" data-name="Path 130" d="M1299.617,1405.012a.027.027,0,0,0,.019,0,.029.029,0,0,0,0-.042,3,3,0,0,0-.6-.6.021.021,0,0,0-.023,0,.024.024,0,0,0-.019.009l-.033.037a.02.02,0,0,0,0,.023.024.024,0,0,0,.009.019,6.119,6.119,0,0,1,.624.549.036.036,0,0,0,.023.009Z" transform="translate(-1238.559 -1338.972)" fill="#fff"/>
    <path id="Path_131" data-name="Path 131" d="M1297.661,1406.7l-.061.079c.009.009.019.014.028.023.014-.032.023-.065.037-.1Z" transform="translate(-1237.263 -1341.205)" fill="#fff"/>
    <path id="Path_132" data-name="Path 132" d="M1297.112,1406.179h.009a.02.02,0,0,0,.019-.019c.014-.033.023-.065.037-.1a.039.039,0,0,0-.014-.037c-.014-.009-.028,0-.037.009l-.061.079a.021.021,0,0,0,0,.023.024.024,0,0,0,.009.018c.009.009.019.014.028.023s.014,0,.019,0Z" transform="translate(-1236.747 -1340.554)" fill="#fff"/>
    <path id="Path_133" data-name="Path 133" d="M1130.952,1339.623a19.986,19.986,0,0,0,2.29,1.215c.489.223.977.428,1.443.6a.359.359,0,0,0,.056-.088.31.31,0,0,0,.028-.093c-.47-.172-.959-.377-1.447-.6a19.6,19.6,0,0,1-2.266-1.205c-1.159-.726-1.6-1.247-1.522-1.419.047-.1.34-.172,1.024-.047l.028-.149.009-.051a3.071,3.071,0,0,0-.842-.065.444.444,0,0,0-.4.223c-.2.433.759,1.149,1.6,1.675Z" transform="translate(-1076.818 -1275.426)" fill="#fff"/>
    <path id="Path_134" data-name="Path 134" d="M1134.15,1341.089c.009,0,.019,0,.023-.009a.5.5,0,0,0,.061-.1.812.812,0,0,0,.032-.1.031.031,0,0,0-.019-.033c-.465-.172-.954-.377-1.447-.6a20.277,20.277,0,0,1-2.262-1.2c-1.215-.759-1.573-1.252-1.512-1.382.032-.074.279-.158.991-.028a.041.041,0,0,0,.037-.023l.037-.2a.037.037,0,0,0-.023-.037,3.135,3.135,0,0,0-.852-.065.5.5,0,0,0-.423.237c-.168.363.377.94,1.61,1.713h0a20.462,20.462,0,0,0,2.294,1.219c.493.223.977.428,1.447.6h0Zm.051-.191a.33.33,0,0,1-.023.06.293.293,0,0,1-.037.065c-.461-.172-.94-.372-1.419-.591a19.588,19.588,0,0,1-2.285-1.215h0c-1.173-.735-1.736-1.317-1.587-1.638a.432.432,0,0,1,.377-.2,3.059,3.059,0,0,1,.8.056l-.023.14c-.586-.107-.959-.084-1.028.065-.107.233.512.819,1.536,1.461a20.4,20.4,0,0,0,2.271,1.205c.484.223.963.423,1.424.591Zm-3.783-1.657Z" transform="translate(-1076.284 -1275.045)" fill="#fff"/>
    <path id="Path_135" data-name="Path 135" d="M1230.9,1402.628a17.153,17.153,0,0,0,1.722.586,6,6,0,0,0,2.136.289.635.635,0,0,0,.521-.312c.209-.451-.489-1.117-1.112-1.591l-.06.079a.9.9,0,0,1-.033.1s.009.009.014.009l.033-.037a2.948,2.948,0,0,1,.6.591c.354.372.442.628.382.763-.112.242-.81.363-2.425-.088-.451-.126-.935-.288-1.433-.475a1.389,1.389,0,0,1-.344.079Z" transform="translate(-1173.667 -1336.342)" fill="#fff"/>
    <path id="Path_136" data-name="Path 136" d="M1233.96,1403.045a2.481,2.481,0,0,0,.335-.023.661.661,0,0,0,.544-.326c.214-.47-.493-1.145-1.122-1.629a.029.029,0,0,0-.042,0l-.061.079a.015.015,0,0,1,0,.009.879.879,0,0,1-.033.1c0,.014,0,.028.009.032a.064.064,0,0,1,.014.009.035.035,0,0,0,.023.009.024.024,0,0,0,.019-.009l.014-.014a2.924,2.924,0,0,1,.568.568c.3.316.442.591.377.731-.084.186-.684.372-2.387-.107-.451-.126-.931-.288-1.429-.475h-.023a1.31,1.31,0,0,1-.335.079c-.014,0-.023.014-.028.028a.031.031,0,0,0,.019.033,17.3,17.3,0,0,0,1.726.591,7.3,7.3,0,0,0,1.815.312Zm-.256-1.913c.61.47,1.28,1.108,1.08,1.536a.6.6,0,0,1-.5.293,5.9,5.9,0,0,1-2.127-.289,17.04,17.04,0,0,1-1.615-.549,1.35,1.35,0,0,0,.228-.06c.493.191.973.349,1.424.475,1.629.456,2.336.335,2.462.074.079-.168-.061-.451-.386-.8a2.882,2.882,0,0,0-.6-.6.049.049,0,0,0-.014,0,.114.114,0,0,1,.009-.032Z" transform="translate(-1173.191 -1335.828)" fill="#fff"/>
    <path id="Path_137" data-name="Path 137" d="M1299.633,1405.1l-.033.037a5.449,5.449,0,0,1,.628.554A2.833,2.833,0,0,0,1299.633,1405.1Z" transform="translate(-1239.17 -1339.679)" fill="#fff"/>
    <path id="Path_138" data-name="Path 138" d="M1299.617,1405.012a.027.027,0,0,0,.019,0,.029.029,0,0,0,0-.042,3,3,0,0,0-.6-.6.021.021,0,0,0-.023,0,.024.024,0,0,0-.019.009l-.033.037a.02.02,0,0,0,0,.023.024.024,0,0,0,.009.019,6.119,6.119,0,0,1,.624.549.036.036,0,0,0,.023.009Z" transform="translate(-1238.559 -1338.972)" fill="#fff"/>
    <path id="Path_139" data-name="Path 139" d="M1298.66,1403.5l-.061.079c.009.009.019.014.028.023C1298.637,1403.57,1298.651,1403.533,1298.66,1403.5Z" transform="translate(-1238.217 -1338.154)" fill="#fff"/>
    <path id="Path_140" data-name="Path 140" d="M1298.118,1403.021h.009a.02.02,0,0,0,.019-.019c.009-.033.023-.07.033-.1a.038.038,0,0,0-.014-.037.036.036,0,0,0-.037.009l-.06.079a.03.03,0,0,0,0,.042l.028.023S1298.114,1403.021,1298.118,1403.021Z" transform="translate(-1237.702 -1337.544)" fill="#fff"/>
    <path id="Path_141" data-name="Path 141" d="M1117.945,1336.021a19.092,19.092,0,0,0,2.569,1.4q.51.237,1.019.433a1.632,1.632,0,0,0,.344-.079c-.419-.158-.847-.34-1.28-.535a18.639,18.639,0,0,1-2.541-1.387c-1.4-.926-1.764-1.536-1.652-1.773.061-.135.312-.233.824-.209a5.666,5.666,0,0,1,.833.112c.019,0,.037.009.056.009l.042-.2c-.768-.158-1.727-.256-1.936.2C1115.953,1334.588,1117.186,1335.519,1117.945,1336.021Z" transform="translate(-1064.291 -1271.568)" fill="#fff"/>
    <path id="Path_142" data-name="Path 142" d="M1120.818,1337.208h0a1.6,1.6,0,0,0,.349-.084c.014,0,.019-.014.019-.028a.031.031,0,0,0-.019-.028c-.419-.158-.847-.34-1.275-.535a18.858,18.858,0,0,1-2.536-1.387c-1.475-.977-1.726-1.55-1.643-1.736.065-.14.358-.214.8-.191a5.11,5.11,0,0,1,.828.112l.056.009a.037.037,0,0,0,.037-.023l.042-.2a.042.042,0,0,0-.023-.037c-.777-.163-1.75-.256-1.969.214-.279.61.968,1.554,1.736,2.061a19.062,19.062,0,0,0,2.569,1.406c.34.154.68.3,1.019.433h.009Zm.256-.112a1.273,1.273,0,0,1-.251.051c-.335-.135-.675-.279-1.01-.433a19.011,19.011,0,0,1-2.564-1.4h0c-.754-.5-1.973-1.419-1.712-1.987.2-.428,1.117-.34,1.871-.186l-.028.135h-.028a4.792,4.792,0,0,0-.838-.116c-.47-.023-.777.061-.852.228-.121.265.251.88,1.661,1.81a19.169,19.169,0,0,0,2.541,1.391c.4.182.8.354,1.2.507Z" transform="translate(-1063.581 -1270.889)" fill="#fff"/>
    <path id="Path_143" data-name="Path 143" d="M1106.179,1332.757c-.223.489.5,1.34,1.792,2.238a19.657,19.657,0,0,0,5.812,2.653c1.522.391,2.639.381,2.867-.107.2-.442-.377-1.187-1.452-1.992a4.09,4.09,0,0,1-.14.447c.3.247.442.438.391.549s-.3.13-.693.06a20.591,20.591,0,0,1-6.627-3.029c-.307-.251-.461-.451-.41-.563s.293-.13.67-.065a3.8,3.8,0,0,1,.247-.4C1107.328,1332.268,1106.384,1332.314,1106.179,1332.757Z" transform="translate(-1054.712 -1270.337)" fill="#fff"/>
    <path id="Path_144" data-name="Path 144" d="M1112.673,1335.224c.633,0,1.047-.154,1.187-.465.307-.675-.805-1.643-1.494-2.159a.131.131,0,0,0-.13-.019.134.134,0,0,0-.088.1,3.524,3.524,0,0,1-.135.428.137.137,0,0,0,.042.158c.321.265.349.377.349.391a.619.619,0,0,1-.158.014,1.924,1.924,0,0,1-.382-.042,16.775,16.775,0,0,1-3.416-1.21,16.381,16.381,0,0,1-3.151-1.792c-.335-.275-.363-.386-.368-.4a.576.576,0,0,1,.158-.014,1.947,1.947,0,0,1,.363.037.141.141,0,0,0,.144-.07,3.242,3.242,0,0,1,.237-.382.132.132,0,0,0,.014-.13.146.146,0,0,0-.1-.084c-.842-.186-2.3-.391-2.611.284h0c-.251.545.419,1.424,1.838,2.406a18.557,18.557,0,0,0,2.82,1.578,18.209,18.209,0,0,0,3.039,1.1A7.705,7.705,0,0,0,1112.673,1335.224Zm-.307-2.276c1.094.852,1.368,1.433,1.247,1.7-.181.4-1.242.405-2.7.033a19.525,19.525,0,0,1-5.766-2.639c-1.238-.861-1.922-1.671-1.745-2.066h0c.121-.265.74-.437,2.1-.167-.033.051-.061.1-.089.154-.419-.061-.647-.009-.721.158-.084.186.051.41.447.731a20.726,20.726,0,0,0,6.692,3.057c.5.088.758.047.842-.14.079-.167-.032-.372-.354-.651l.056-.168Z" transform="translate(-1051.801 -1267.5)" fill="#fff"/>
    <g id="Group_63" data-name="Group 63" transform="translate(53.375 60.647)" opacity="0.4">
      <path id="Path_145" data-name="Path 145" d="M1148.8,1305.726c.07.056.144.116.233.177.033-.1.074-.191.116-.289,0-.014.014-.028.019-.042a1.62,1.62,0,0,1,.079-.158,3.782,3.782,0,0,1,.247-.4.417.417,0,0,0,.033-.046,3.613,3.613,0,0,1,.451-.507,3.722,3.722,0,0,1,1.038-.684,3.671,3.671,0,0,1,4.551,1.364,3.677,3.677,0,0,0-6.227-.493.4.4,0,0,0-.032.047,3.741,3.741,0,0,0-.247.4,1.71,1.71,0,0,0-.079.158.168.168,0,0,0-.019.042,3,3,0,0,0-.163.428Z" transform="translate(-1148.763 -1303.12)" fill="#fff"/>
      <path id="Path_146" data-name="Path 146" d="M1148.265,1305.32h.009a.02.02,0,0,0,.019-.019c.032-.093.074-.191.116-.284l.019-.042c.023-.051.051-.107.079-.158a3.931,3.931,0,0,1,.242-.4c.009-.009.014-.023.023-.033l.009-.014a3.618,3.618,0,0,1,1.475-1.177,3.657,3.657,0,0,1,2.974.023,3.6,3.6,0,0,1,1.54,1.331.03.03,0,0,0,.042.009.035.035,0,0,0,.014-.042,3.707,3.707,0,0,0-5.826-1.01,3.915,3.915,0,0,0-.456.512l-.033.046a3.2,3.2,0,0,0-.247.4c-.028.051-.056.107-.079.158a.14.14,0,0,0-.019.047,3.719,3.719,0,0,0-.168.428.039.039,0,0,0,.009.032c.07.056.149.116.233.177,0,0,.009,0,.019,0Zm3.458-2.49a3.717,3.717,0,0,0-2.531,1,3.4,3.4,0,0,0-.456.512l-.009.014a.139.139,0,0,0-.023.033,4.009,4.009,0,0,0-.247.4c-.028.051-.056.107-.079.158l-.019.042c-.037.084-.074.168-.1.251q-.1-.07-.182-.14a3.638,3.638,0,0,1,.158-.4c0-.014.014-.028.019-.042.023-.051.051-.107.079-.158a3.461,3.461,0,0,1,.242-.4.393.393,0,0,0,.033-.047,3.82,3.82,0,0,1,.447-.5,3.516,3.516,0,0,1,1.028-.675,3.653,3.653,0,0,1,4.388,1.163,3.712,3.712,0,0,0-2.746-1.215Z" transform="translate(-1148 -1302.51)" fill="#fff"/>
    </g>
    <path id="Path_147" data-name="Path 147" d="M1148.963,1304.981a2.986,2.986,0,0,0-.163.428,16.548,16.548,0,0,0,3.178,1.81,16.315,16.315,0,0,0,3.448,1.219,3.339,3.339,0,0,0,.214-.4c.033-.07.061-.14.089-.209a4.126,4.126,0,0,0,.14-.447,3.673,3.673,0,0,0-6.562-3,3.728,3.728,0,0,0-.247.4,1.986,1.986,0,0,0-.1.2Z" transform="translate(-1095.388 -1242.171)" fill="#fff"/>
    <path id="Path_148" data-name="Path 148" d="M1152.516,1305.965a.133.133,0,0,0,.116-.065,3.588,3.588,0,0,0,.223-.419c.033-.07.065-.144.093-.214a3.291,3.291,0,0,0,.144-.461,3.811,3.811,0,0,0-6.808-3.113,4.085,4.085,0,0,0-.256.414c-.037.07-.07.14-.1.209a3.935,3.935,0,0,0-.172.442.132.132,0,0,0,.047.149,20.729,20.729,0,0,0,6.692,3.057Zm-3.123-5.6a3.526,3.526,0,0,1,3.3,4.8c-.028.065-.056.135-.084.2a3.2,3.2,0,0,1-.158.307,20.995,20.995,0,0,1-6.4-2.922,3.089,3.089,0,0,1,.13-.321h0a1.9,1.9,0,0,1,.1-.2,3.236,3.236,0,0,1,.237-.382,3.535,3.535,0,0,1,2.881-1.484Z" transform="translate(-1092.477 -1239.558)" fill="#fff"/>
    <path id="Path_149" data-name="Path 149" d="M1155.649,1312.56a3.024,3.024,0,0,0-.149.386,18.638,18.638,0,0,0,5.994,2.741q.1-.174.2-.363a.035.035,0,0,1,.009-.019c.023-.056.051-.112.07-.167a3.1,3.1,0,0,0,.126-.405v-.019a3.386,3.386,0,0,0,.089-.6,3.256,3.256,0,0,0-.14-1.126,3.322,3.322,0,0,0-5.449-1.461,3.523,3.523,0,0,0-.409.461l-.028.042a3.9,3.9,0,0,0-.223.358c-.023.047-.047.093-.07.144,0,.014-.014.028-.019.042Z" transform="translate(-1101.776 -1249.601)" fill="#ffb200"/>
    <path id="Path_150" data-name="Path 150" d="M1152.5,1388a3.746,3.746,0,0,0,.061.4,2.826,2.826,0,0,0,.167.544,3.321,3.321,0,0,0,4.174,1.9,3.3,3.3,0,0,0,.861-.447,17.864,17.864,0,0,1-5.259-2.4Z" transform="translate(-1098.916 -1323.375)" fill="#ff9100"/>
    <path id="Path_151" data-name="Path 151" d="M1154.9,1324.649a18.641,18.641,0,0,0,5.994,2.741q.1-.174.2-.363a.035.035,0,0,1,.009-.019c.023-.056.051-.112.07-.168a3.122,3.122,0,0,0,.126-.4v-.019a3.386,3.386,0,0,0,.089-.6,3.323,3.323,0,0,0-1.452-2.913,3.258,3.258,0,0,1,.386.838,3.3,3.3,0,0,1,.139,1.131,2.988,2.988,0,0,1-.088.6v.019a.039.039,0,0,1-.009.028,1.227,1.227,0,0,1-1.377.754,15.482,15.482,0,0,1-4.1-1.731c-.037.089.037.019.009.112Z" transform="translate(-1101.176 -1261.304)" fill="#ff9100"/>
    <path id="Path_152" data-name="Path 152" d="M1155.032,1389.415A17.011,17.011,0,0,1,1152.5,1388a3.746,3.746,0,0,0,.061.4,14.116,14.116,0,0,0,2.369,1.322,15.178,15.178,0,0,0,2.466.907,3.66,3.66,0,0,0,.363-.228A16.96,16.96,0,0,1,1155.032,1389.415Z" transform="translate(-1098.916 -1323.375)" fill="#d66b09"/>
    <path id="Path_153" data-name="Path 153" d="M1155.667,1351.3c0,.014-.014.028-.019.042a3.031,3.031,0,0,0-.149.386,18.642,18.642,0,0,0,5.994,2.741q.1-.175.2-.363a.036.036,0,0,1,.009-.019,12.6,12.6,0,0,1-3.132-1.056,11.8,11.8,0,0,1-2.9-1.727Z" transform="translate(-1101.776 -1288.383)" fill="#d66b09"/>
    <path id="Path_154" data-name="Path 154" d="M1178.391,1331.26l-.009-.223a9.054,9.054,0,0,1-2.876-.926,8.107,8.107,0,0,1-2.615-1.61l-.191.116a8.123,8.123,0,0,0,2.708,1.7,9.018,9.018,0,0,0,2.978.945Z" transform="translate(-1118.176 -1266.644)" fill="#d66b09"/>
    <path id="Path_155" data-name="Path 155" d="M1197.97,1316.976l.033-.223a10.478,10.478,0,0,1-2.3-.8,10.03,10.03,0,0,1-2.155-1.252l-.149.167a10.044,10.044,0,0,0,2.21,1.289A10.763,10.763,0,0,0,1197.97,1316.976Z" transform="translate(-1137.912 -1253.486)" fill="#d66b09"/>
    <path id="Path_156" data-name="Path 156" d="M1170.2,1341.213v-.224a10.183,10.183,0,0,1-3.039-.991,9.376,9.376,0,0,1-2.778-1.7l-.182.13a9.433,9.433,0,0,0,2.867,1.773,10.189,10.189,0,0,0,3.132,1.015Z" transform="translate(-1110.071 -1275.988)" fill="#d66b09"/>
    <path id="Path_157" data-name="Path 157" d="M1160.707,1409.4v-.056l.033-.051h-.009s-.014,0-.014,0a10.353,10.353,0,0,1-4.137-1.889l-.079.079a10.406,10.406,0,0,0,4.207,1.922Z" transform="translate(-1102.729 -1341.872)" fill="#d66b09"/>
    <path id="Path_158" data-name="Path 158" d="M1152.472,1385.353a3.471,3.471,0,0,0,2.029-.656l.242-.172-.289-.074a16.852,16.852,0,0,1-2.7-.977,16.383,16.383,0,0,1-2.508-1.406l-.242-.167.028.293a3.459,3.459,0,0,0,3.448,3.155Zm1.615-.712a3.184,3.184,0,0,1-4.742-2.168,18.326,18.326,0,0,0,4.742,2.164Z" transform="translate(-1095.579 -1317.559)" fill="#371a45"/>
    <path id="Path_159" data-name="Path 159" d="M1116.943,1337.358c-.2.442.456,1.215,1.619,2.024a17.873,17.873,0,0,0,5.259,2.4c1.373.354,2.387.344,2.592-.1.186-.4-.34-1.075-1.312-1.8a3.351,3.351,0,0,1-.126.4c.27.219.4.4.354.5s-.275.116-.628.056a18.631,18.631,0,0,1-5.994-2.741c-.279-.228-.414-.4-.368-.512s.265-.116.61-.061a2.575,2.575,0,0,1,.223-.358c-1.187-.261-2.038-.214-2.22.186Z" transform="translate(-1064.978 -1274.757)" fill="#ffd766"/>
    <path id="Path_160" data-name="Path 160" d="M1246.078,1406.3c0,.019-.014.037-.019.056.27.219.4.4.354.5s-.275.116-.628.056a10.889,10.889,0,0,1-1.885-.582.42.42,0,0,1,0,.186c.3.112.582.209.856.293,1.187.363,1.8.358,1.875.2.042-.093-.079-.326-.549-.707Z" transform="translate(-1186.062 -1340.823)" fill="#ffaa39"/>
    <path id="Path_161" data-name="Path 161" d="M1292.028,1402.8l-.028.037a4.739,4.739,0,0,1,.568.5,2.642,2.642,0,0,0-.54-.535Z" transform="translate(-1231.924 -1337.486)" fill="#ff9100"/>
    <path id="Path_162" data-name="Path 162" d="M1291.4,1403.446l.028-.037a.073.073,0,0,1-.014-.009Z" transform="translate(-1231.352 -1338.058)" fill="#ff9100"/>
    <path id="Path_163" data-name="Path 163" d="M1239.841,1414.3a.4.4,0,0,1,.088.4.411.411,0,0,1-.326.2,4.843,4.843,0,0,1-1.764-.3c-.279-.084-.577-.186-.88-.3a.569.569,0,0,1-.261.172c.451.172.889.317,1.3.433,1.461.41,2.094.3,2.192.079.056-.121-.023-.354-.344-.689Z" transform="translate(-1179.197 -1348.451)" fill="#ffaa39"/>
    <path id="Path_164" data-name="Path 164" d="M1208.2,1399.74a16.431,16.431,0,0,0,2.667.959c1.373.354,2.387.344,2.592-.1.182-.4-.34-1.075-1.312-1.8a1.131,1.131,0,0,1-.033.121l.056-.074c.563.433,1.2,1.028,1.005,1.438a.583.583,0,0,1-.47.279,5.516,5.516,0,0,1-1.936-.261,15.419,15.419,0,0,1-1.559-.53,3.835,3.835,0,0,1-1.01-.037Z" transform="translate(-1152.024 -1333.672)" fill="#ffaa39"/>
    <path id="Path_165" data-name="Path 165" d="M1241.91,1404.1c.3.116.6.214.88.3a4.863,4.863,0,0,0,1.764.3.386.386,0,0,0,.326-.2.405.405,0,0,0-.088-.4,4.762,4.762,0,0,0-.568-.5l-.028.037a.513.513,0,0,1-.033.088c.47.382.591.614.549.707-.074.158-.689.163-1.875-.2-.275-.084-.558-.181-.856-.293a.3.3,0,0,1-.028.084.286.286,0,0,1-.051.079Z" transform="translate(-1184.156 -1338.249)" fill="#ffcf6e"/>
    <path id="Path_166" data-name="Path 166" d="M1292,1402.933a4.749,4.749,0,0,1,.568.5,2.642,2.642,0,0,0-.54-.535l-.028.037Z" transform="translate(-1231.924 -1337.582)" fill="#ffec90"/>
    <path id="Path_167" data-name="Path 167" d="M1290.256,1404.4l-.056.07a.1.1,0,0,1,.023.019C1290.233,1404.46,1290.246,1404.428,1290.256,1404.4Z" transform="translate(-1230.208 -1339.012)" fill="#ffec90"/>
    <path id="Path_168" data-name="Path 168" d="M1139.349,1343.719a17.73,17.73,0,0,0,2.071,1.1c.442.2.884.386,1.308.545a.456.456,0,0,0,.051-.079.3.3,0,0,0,.028-.084c-.424-.158-.866-.34-1.308-.544a18.52,18.52,0,0,1-2.052-1.089c-1.052-.656-1.452-1.126-1.377-1.284.042-.093.307-.154.926-.042l.023-.135.009-.047a2.614,2.614,0,0,0-.763-.056.415.415,0,0,0-.363.2C1137.721,1342.592,1138.591,1343.239,1139.349,1343.719Z" transform="translate(-1084.974 -1279.508)" fill="#ffec90"/>
    <path id="Path_169" data-name="Path 169" d="M1229.9,1400.726a15.48,15.48,0,0,0,1.559.531,5.5,5.5,0,0,0,1.936.261.569.569,0,0,0,.47-.279c.186-.41-.442-1.01-1.005-1.438l-.056.074c-.009.032-.019.06-.028.093,0,0,.009,0,.014.009l.028-.037a2.769,2.769,0,0,1,.54.535c.321.335.4.568.344.689-.1.219-.735.326-2.192-.079-.41-.116-.847-.261-1.3-.433A1.33,1.33,0,0,1,1229.9,1400.726Z" transform="translate(-1172.714 -1334.626)" fill="#ffcf6e"/>
    <path id="Path_170" data-name="Path 170" d="M1292.028,1402.8l-.028.037a4.739,4.739,0,0,1,.568.5,2.642,2.642,0,0,0-.54-.535Z" transform="translate(-1231.924 -1337.486)" fill="#ffaa39"/>
    <path id="Path_171" data-name="Path 171" d="M1291.156,1401.4l-.056.07c.009.01.019.014.028.023C1291.137,1401.461,1291.147,1401.433,1291.156,1401.4Z" transform="translate(-1231.066 -1336.151)" fill="#ffec90"/>
    <path id="Path_172" data-name="Path 172" d="M1127.661,1340.286a17.592,17.592,0,0,0,2.322,1.27c.307.14.614.275.921.391a1.335,1.335,0,0,0,.312-.074c-.377-.144-.768-.307-1.154-.484a16.978,16.978,0,0,1-2.3-1.257c-1.261-.838-1.6-1.387-1.494-1.605.056-.121.284-.209.745-.191a5.1,5.1,0,0,1,.754.1.2.2,0,0,1,.051.009l.037-.177c-.693-.144-1.564-.228-1.75.181-.242.531.87,1.377,1.559,1.834Z" transform="translate(-1073.719 -1275.847)" fill="#ffec90"/>
    <path id="Path_173" data-name="Path 173" d="M1122.63,1339.492c.5,0,.921-.107,1.066-.433.284-.619-.726-1.5-1.354-1.968l-.167-.126-.051.2a3.744,3.744,0,0,1-.121.386l-.037.093.079.065a1.09,1.09,0,0,1,.307.33,1.122,1.122,0,0,1-.47-.019,18.5,18.5,0,0,1-5.929-2.713,1.119,1.119,0,0,1-.321-.34,1.024,1.024,0,0,1,.451.019l.1.019.047-.088a3.87,3.87,0,0,1,.214-.344l.121-.172-.2-.047c-.768-.167-2.094-.354-2.378.265h0c-.312.684.912,1.671,1.666,2.2a16.755,16.755,0,0,0,2.55,1.429,16.971,16.971,0,0,0,2.75,1,7.294,7.294,0,0,0,1.685.256Zm-.293-2.057c.973.758,1.214,1.275,1.108,1.508-.121.265-.833.428-2.429.023a16.824,16.824,0,0,1-2.7-.977,16.371,16.371,0,0,1-2.508-1.405c-1.354-.94-1.694-1.587-1.573-1.852h0c.107-.233.656-.386,1.866-.149l-.07.112c-.381-.056-.586,0-.661.154s.046.382.409.675a15.161,15.161,0,0,0,2.9,1.657,14.782,14.782,0,0,0,3.155,1.112c.461.079.7.037.777-.135s-.023-.344-.316-.6l.042-.126Z" transform="translate(-1062.14 -1272.075)" fill="#371a45"/>
    <g id="Group_64" data-name="Group 64" transform="translate(53.724 61.02)" opacity="0.4">
      <path id="Path_174" data-name="Path 174" d="M1155.5,1312.86c.061.051.13.1.209.158.033-.089.065-.172.107-.261,0-.014.014-.028.019-.042.023-.047.047-.1.07-.144a2.552,2.552,0,0,1,.223-.358l.028-.042a3.222,3.222,0,0,1,.409-.461,3.4,3.4,0,0,1,.94-.619,3.322,3.322,0,0,1,4.119,1.238,3.322,3.322,0,0,0-5.226-.907,3.524,3.524,0,0,0-.41.461l-.028.042a3.9,3.9,0,0,0-.223.358c-.023.047-.046.093-.07.144,0,.014-.014.028-.019.042a3.031,3.031,0,0,0-.149.386Z" transform="translate(-1155.5 -1310.525)" fill="#fff"/>
    </g>
    <path id="Path_175" data-name="Path 175" d="M1158.322,1312.838l.051-.079a3.745,3.745,0,0,0,.2-.382l.084-.2a3.1,3.1,0,0,0,.13-.419,3.463,3.463,0,0,0-6.185-2.829c-.084.121-.163.247-.233.372-.033.06-.065.126-.093.191a3.231,3.231,0,0,0-.154.4l-.028.088.074.061a15.156,15.156,0,0,0,2.9,1.657,14.77,14.77,0,0,0,3.155,1.112l.093.014Zm-2.895-5.077a3.183,3.183,0,0,1,3.09,3.937,3.737,3.737,0,0,1-.121.386c-.023.061-.047.121-.074.182a2.954,2.954,0,0,1-.14.27,15.854,15.854,0,0,1-2.992-1.075,15.645,15.645,0,0,1-2.774-1.559,2.933,2.933,0,0,1,.112-.279h0c.028-.06.056-.116.089-.177a3.788,3.788,0,0,1,.214-.344A3.184,3.184,0,0,1,1155.427,1307.761Z" transform="translate(-1098.534 -1246.603)" fill="#371a45"/>
  </g>
</svg>
