<?xml version="1.0" encoding="UTF-8"?><svg xmlns="http://www.w3.org/2000/svg" xmlns:xlink="http://www.w3.org/1999/xlink" viewBox="0 0 70.2 66.3"><defs><style>.cls-1{fill:url(#radial-gradient-9);opacity:.5;}.cls-1,.cls-2,.cls-3,.cls-4,.cls-5,.cls-6,.cls-7,.cls-8,.cls-9,.cls-10,.cls-11,.cls-12,.cls-13,.cls-14,.cls-15,.cls-16,.cls-17,.cls-18,.cls-19,.cls-20,.cls-21,.cls-22,.cls-23,.cls-24,.cls-25,.cls-26,.cls-27,.cls-28,.cls-29,.cls-30,.cls-31,.cls-32,.cls-33,.cls-34{fill-rule:evenodd;stroke-width:0px;}.cls-1,.cls-2,.cls-16,.cls-17,.cls-18,.cls-19,.cls-20,.cls-21,.cls-22,.cls-26,.cls-27,.cls-28,.cls-29{mix-blend-mode:multiply;}.cls-2{fill:url(#New_Gradient_Swatch_76);}.cls-3{fill:url(#radial-gradient-20);}.cls-4{fill:url(#radial-gradient-21);}.cls-5{fill:url(#radial-gradient-24);}.cls-6{fill:url(#radial-gradient-22);}.cls-7{fill:url(#radial-gradient-23);}.cls-8{fill:url(#radial-gradient-14);}.cls-9{fill:url(#radial-gradient-19);}.cls-10{fill:url(#radial-gradient-10);}.cls-11{fill:url(#radial-gradient-11);}.cls-12{fill:url(#radial-gradient-18);}.cls-13{fill:url(#radial-gradient);}.cls-14{fill:url(#radial-gradient-17);}.cls-14,.cls-15,.cls-32,.cls-33,.cls-34{mix-blend-mode:screen;}.cls-15{fill:url(#radial-gradient-16);}.cls-16{fill:url(#New_Gradient_Swatch_76-8);}.cls-17{fill:url(#New_Gradient_Swatch_76-7);}.cls-18{fill:url(#New_Gradient_Swatch_76-2);}.cls-19{fill:url(#New_Gradient_Swatch_76-6);}.cls-20{fill:url(#New_Gradient_Swatch_76-3);}.cls-21{fill:url(#New_Gradient_Swatch_76-5);}.cls-22{fill:url(#New_Gradient_Swatch_76-4);}.cls-23{fill:url(#radial-gradient-2);}.cls-24{fill:url(#radial-gradient-7);}.cls-25{fill:url(#radial-gradient-8);}.cls-26{fill:url(#radial-gradient-5);}.cls-27{fill:url(#radial-gradient-15);}.cls-28{fill:url(#radial-gradient-12);}.cls-29{fill:url(#radial-gradient-13);}.cls-30{fill:url(#New_Gradient_Swatch_3);}.cls-35{isolation:isolate;}.cls-31{fill:url(#New_Gradient_Swatch_22);}.cls-32{fill:url(#radial-gradient-3);}.cls-33{fill:url(#radial-gradient-6);}.cls-34{fill:url(#radial-gradient-4);}</style><radialGradient id="radial-gradient" cx="13.8" cy="21.8" fx="13.8" fy="21.8" r="20.1" gradientTransform="translate(-1 .9) rotate(-4.5)" gradientUnits="userSpaceOnUse"><stop offset="0" stop-color="#9ecfff"/><stop offset=".2" stop-color="#bdf"/><stop offset=".4" stop-color="#d9ecff"/><stop offset=".6" stop-color="#eef6ff"/><stop offset=".8" stop-color="#fafcff"/><stop offset="1" stop-color="#fff"/></radialGradient><radialGradient id="New_Gradient_Swatch_76" cx="13.5" cy="27.1" fx="13.5" fy="27.1" r="21.6" gradientTransform="translate(-1 .9) rotate(-4.5)" gradientUnits="userSpaceOnUse"><stop offset="0" stop-color="#aac2e6"/><stop offset="1" stop-color="#fff"/></radialGradient><radialGradient id="radial-gradient-2" cx="26.1" cy="20.7" fx="26.1" fy="20.7" r="51.3" gradientUnits="userSpaceOnUse"><stop offset="0" stop-color="#009ced"/><stop offset=".9" stop-color="#4e3bf5"/></radialGradient><radialGradient id="radial-gradient-3" cx="36.7" cy="37.6" fx="36.7" fy="37.6" r="35.6" gradientUnits="userSpaceOnUse"><stop offset="0" stop-color="#000"/><stop offset=".8" stop-color="#000"/><stop offset=".9" stop-color="#0d1415"/><stop offset=".9" stop-color="#3e6167"/><stop offset=".9" stop-color="#659ea8"/><stop offset="1" stop-color="#81cad7"/><stop offset="1" stop-color="#92e5f4"/><stop offset="1" stop-color="#99f0ff"/></radialGradient><radialGradient id="radial-gradient-4" cx="20.2" cy="12.1" fx="20.2" fy="12.1" r="52" gradientUnits="userSpaceOnUse"><stop offset="0" stop-color="#1fceff"/><stop offset="1" stop-color="#000"/></radialGradient><radialGradient id="radial-gradient-5" cx="26.4" cy="23" fx="26.4" fy="23" r="48.8" gradientUnits="userSpaceOnUse"><stop offset=".6" stop-color="#f5f5ff"/><stop offset=".6" stop-color="#efe9fa"/><stop offset=".8" stop-color="#e1cced"/><stop offset="1" stop-color="#c99cd8"/><stop offset="1" stop-color="#c899d7"/></radialGradient><radialGradient id="New_Gradient_Swatch_22" cx="25.8" cy="26" fx="25.8" fy="26" r="34" gradientUnits="userSpaceOnUse"><stop offset="0" stop-color="#91eb00"/><stop offset="1" stop-color="#05a100"/></radialGradient><radialGradient id="radial-gradient-6" cx="31.1" cy="19" fx="31.1" fy="19" r="36" gradientUnits="userSpaceOnUse"><stop offset="0" stop-color="#8fe561"/><stop offset="1" stop-color="#000"/></radialGradient><radialGradient id="radial-gradient-7" cx="29.4" cy="15.5" fx="29.4" fy="15.5" r="42.5" gradientUnits="userSpaceOnUse"><stop offset="0" stop-color="#94ffe1"/><stop offset=".2" stop-color="#87f8dc"/><stop offset=".5" stop-color="#67e8d0"/><stop offset="1" stop-color="#33cebd"/><stop offset="1" stop-color="#2dcbbb"/></radialGradient><radialGradient id="radial-gradient-8" cx="16" cy="30.2" fx="16" fy="30.2" r="28.6" gradientUnits="userSpaceOnUse"><stop offset="0" stop-color="#dede00"/><stop offset=".2" stop-color="#d1d100"/><stop offset=".4" stop-color="#b1b100"/><stop offset=".5" stop-color="#abab00"/><stop offset=".5" stop-color="#a5a500"/><stop offset=".8" stop-color="#7d7d00"/><stop offset=".9" stop-color="#6e6e00"/></radialGradient><radialGradient id="radial-gradient-9" cx="22.9" cy="36.1" fx="22.9" fy="36.1" r="12.9" gradientUnits="userSpaceOnUse"><stop offset="0" stop-color="#fff"/><stop offset="1" stop-color="#093"/></radialGradient><radialGradient id="radial-gradient-10" cx="46.3" cy="25.8" fx="46.3" fy="25.8" r="26.6" gradientUnits="userSpaceOnUse"><stop offset="0" stop-color="#f0ab54"/><stop offset="1" stop-color="#b87126"/></radialGradient><radialGradient id="New_Gradient_Swatch_3" cx="37.5" cy="35.3" fx="37.5" fy="35.3" r="27.8" gradientUnits="userSpaceOnUse"><stop offset="0" stop-color="#78e05b"/><stop offset="1" stop-color="#0d9c00"/></radialGradient><radialGradient id="radial-gradient-11" cx="16.5" cy="7.4" fx="16.5" fy="7.4" r="31.4" gradientUnits="userSpaceOnUse"><stop offset="0" stop-color="#fff"/><stop offset=".2" stop-color="#f9fcff"/><stop offset=".4" stop-color="#e8f3ff"/><stop offset=".7" stop-color="#cde6ff"/><stop offset=".9" stop-color="#a7d3ff"/><stop offset="1" stop-color="#9ecfff"/></radialGradient><radialGradient id="radial-gradient-12" cx="53.1" cy="18.5" fx="53.1" fy="18.5" r="16.2" gradientUnits="userSpaceOnUse"><stop offset="0" stop-color="#fff"/><stop offset="1" stop-color="#848431"/></radialGradient><radialGradient id="radial-gradient-13" cx="9.1" cy="35.6" fx="9.1" fy="35.6" r="27.5" xlink:href="#radial-gradient-9"/><radialGradient id="radial-gradient-14" cx="16.6" cy="48.1" fx="16.6" fy="48.1" r="17.4" xlink:href="#radial-gradient-10"/><radialGradient id="radial-gradient-15" cx="16.4" cy="48.4" fx="16.4" fy="48.4" r="16.8" xlink:href="#radial-gradient-12"/><radialGradient id="radial-gradient-16" cx="28.4" cy="16.5" fx="28.4" fy="16.5" r="20.8" gradientUnits="userSpaceOnUse"><stop offset="0" stop-color="#f2f6ff"/><stop offset="1" stop-color="#000"/></radialGradient><radialGradient id="radial-gradient-17" cx="15.9" cy="27.8" fx="15.9" fy="27.8" r="18" gradientUnits="userSpaceOnUse"><stop offset="0" stop-color="#c5c55c"/><stop offset="1" stop-color="#000a00"/></radialGradient><radialGradient id="radial-gradient-18" cx="25.2" cy="4.3" fx="25.2" fy="4.3" r="9" gradientTransform="translate(.3 7.4) rotate(-15.8)" xlink:href="#radial-gradient"/><radialGradient id="New_Gradient_Swatch_76-2" cx="26.2" cy="9.8" fx="26.2" fy="9.8" r="12.7" gradientTransform="translate(.3 7.4) rotate(-15.8)" xlink:href="#New_Gradient_Swatch_76"/><radialGradient id="radial-gradient-19" cx="25.2" cy="45.6" fx="25.2" fy="45.6" r="31.9" gradientTransform="translate(20.4 -2.9) rotate(21)" xlink:href="#radial-gradient"/><radialGradient id="New_Gradient_Swatch_76-3" cx="27.3" cy="55.1" fx="27.3" fy="55.1" r="27.9" gradientTransform="translate(20.4 -2.9) rotate(21)" xlink:href="#New_Gradient_Swatch_76"/><radialGradient id="radial-gradient-20" cx="9.9" cy="41.2" fx="9.9" fy="41.2" r="16.3" gradientTransform="translate(-2.7 .4) rotate(-4.7)" xlink:href="#radial-gradient"/><radialGradient id="New_Gradient_Swatch_76-4" cx="8.9" cy="43.9" fx="8.9" fy="43.9" r="18.2" gradientTransform="translate(-2.7 .4) rotate(-4.7)" xlink:href="#New_Gradient_Swatch_76"/><radialGradient id="radial-gradient-21" cx="32.3" cy="23.2" fx="32.3" fy="23.2" r="22.6" gradientTransform="translate(2.6 -4.7) rotate(8.9)" xlink:href="#radial-gradient"/><radialGradient id="New_Gradient_Swatch_76-5" cx="34.7" cy="26.7" fx="34.7" fy="26.7" r="23.3" gradientTransform="translate(2.6 -4.7) rotate(8.9)" xlink:href="#New_Gradient_Swatch_76"/><radialGradient id="radial-gradient-22" cx="48.1" cy="32.1" fx="48.1" fy="32.1" r="24.8" gradientTransform="matrix(1,0,0,1,0,0)" xlink:href="#radial-gradient"/><radialGradient id="New_Gradient_Swatch_76-6" cx="55.5" cy="36" fx="55.5" fy="36" r="34.2" gradientTransform="matrix(1,0,0,1,0,0)" xlink:href="#New_Gradient_Swatch_76"/><radialGradient id="radial-gradient-23" cx="50.1" cy="31.9" fx="50.1" fy="31.9" r="9.6" gradientTransform="translate(16.7 -5.4) rotate(3.2)" xlink:href="#radial-gradient"/><radialGradient id="New_Gradient_Swatch_76-7" cx="48.7" cy="34.7" fx="48.7" fy="34.7" r="9.9" gradientTransform="translate(16.7 -5.4) rotate(3.2)" xlink:href="#New_Gradient_Swatch_76"/><radialGradient id="radial-gradient-24" cx="44.8" cy="56.7" fx="44.8" fy="56.7" r="32.3" gradientTransform="matrix(1,0,0,1,0,0)" xlink:href="#radial-gradient"/><radialGradient id="New_Gradient_Swatch_76-8" cx="48" cy="59" fx="48" fy="59" r="22.5" gradientTransform="matrix(1,0,0,1,0,0)" xlink:href="#New_Gradient_Swatch_76"/></defs><g class="cls-35"><g id="Layer_2"><g id="Layer_1-2"><path class="cls-13" d="m16.2,6.8c-.6.3-1.1.8-1.5,1.3.2-.6,0-1.6-1.1-1.7-3.4-.4-5.3,3.9-6,6.3-1.4-.8-3.6-.5-5,1.3-2,2.7-1.5,6.5-.5,9.6-.8,0-1.4.4-1.7,1.1-1.2,2.8.7,7.2,2.5,7.9,2.9,1.1,16.6-20.6,16.8-24.2.1-2.1-2-2.3-3.5-1.5h0Z"/><path class="cls-2" d="m2.4,24.1c-2.6-.7-2,5.5-.4,7.8.3.3.6.5.9.7,2.5.9,12.5-14.3,15.8-21.3.9-3.8-1.4-5.9-4.6-1.8.2-.8-.1-1.9-.5-2.1-2.3-1.2-5.1,3.8-6.7,7.9.1-.7.3-1.2.4-1.9-6.1-.4-5.3,7.6-4.5,11.6-.1-.3-.3-.7-.4-1h0Z"/><path class="cls-23" d="m34,3c17.5,0,31.6,14.2,31.6,31.6s-14.2,31.6-31.6,31.6S2.3,52.1,2.3,34.6,16.5,3,34,3h0Z"/><path class="cls-32" d="m34,3c17.5,0,31.6,14.2,31.6,31.6s-14.2,31.6-31.6,31.6S2.3,52.1,2.3,34.6,16.5,3,34,3h0Z"/><path class="cls-34" d="m33.3,54.7c-.5.1-.9,0-1.1.3-.4.4-.3,1,.8,1,.5,0,0,.9.5,1,1.2.4,2.3.2,3-.7.3-.3.4-.4,1.1-.6.5-.1-.6-.5,1-.9,1.8-.4.5-.6,1.7-1.6.4-.3-.9-1.1.7-1.6,1.3-.4,1.2-.3,1.4-1.5,0-.7-.2-.6-.8-.7-.9-.1-.9,1.3-2,1.6-.7.2-1.9.7-1.8,1.6.1,1-1,1.8-1,0,0-1.3-.8-1.3-1.1-.6-.1.3-.2.8-.3,1.1-.3.6-.8.7-1.1,1-.3.3-.4.4-1.1.5h0ZM26.5,5.9c.1,0,.2,0,.4,0,.3,0,.5-.2.8-.2.9-.1,1.9-.3,2.8-.3.2,0,.4.2.6.2.3,0,.6,0,.9,0,.4,0,.8-.2,1.1-.1.8,0,1.6.2,2.4.5.7.2,1.3.6,1.9.9.4.2.9.2,1.4.3.5.2.9.4,1.3.8.4.3.5.8.8,1.2,0,0,0,0,0,0,.3.3.6.6,1,.8.4.3.8.4,1.1.7.3.3.6.5.9.9.3.4.6.8.8,1.2.3.8.6,1.6.8,2.4.4,1.2,1,2.3,1.2,3.6.2,1.2.3,2.6,0,3.8-.4,2.6-.9,5.2-2,7.7-.3.7-1.4.7-2,1.2-.5.6-.6,1.5-1.1,2.1-.2.3-.7.3-.9.6-.8,1.3-1.3,2.8-2.1,4.1-.3.6-.7,1.2-1.2,1.6-.9.7-2,1.1-2.9,1.7-.5.3-.8,1-1.3,1.2-1.3.7-2.8,1.1-4.2,1.6-.2,0-.3.2-.4.3-.7.4-1.5.7-2.3,1.1-.6.2-1.1.6-1.7.7-.5,0-.9-.3-1.3-.4-.4,0-.7,0-1.1,0-.4,0-.8.1-1.2.3-.5.2-.9.8-1.5,1-.3,0-.6,0-.9-.2-.3-.2-.3-.7-.6-.9-.2-.2-.5,0-.8-.1-.6-.1-1.3-.1-1.8-.4-.4-.2-.5-.8-.7-1.2-.1-.3,0-.7-.3-.9-.3-.2-.7,0-1,0-.2,0-.6,0-.7-.2-.1-.3.3-.7.2-1,0-.2-.4-.3-.6-.3-.3,0-.6.4-.9.4-.3,0-.6-.3-.8-.5-.4-.3-.7-.7-1-1.1-.1-.2-.2-.4-.2-.5,0-.2.2-.4.1-.6,0-.2-.4-.2-.4-.4,0-.2,0-.4,0-.5,0,0-.2,0-.2,0-.4-.1-.9-.2-1.3-.4-.2,0-.2-.3-.2-.5,0-.2.3-.4.3-.6,0-.2-.3-.3-.5-.4-.1,0-.3-.1-.5-.2,0,0,0,0,0,0,0-.2,0-.3.1-.4,0-.2.3-.3.4-.5,0-.2.2-.4.2-.6,0,0,0-.2-.1-.3-.3-.1-.6,0-.9,0-.1,0-.3-.1-.4-.2-.1-.1-.2-.3-.2-.5,0-.7.2-1.5.2-2.2,0-.3,0-.7-.2-1-.1-.4-.4-.7-.5-1.1,0-.3,0-.6,0-1,0-.3.3-.6.4-.9.1-.3.3-.6.3-.9,0-.3,0-.7,0-1,0-.5-.1-1,0-1.6,0-.5.2-1,.4-1.5.2-.4.6-.8.9-1.2.1-.2.3-.3.4-.5.1-.3.3-.6.4-.9.1-.4.2-.9.4-1.3.3-.6.5-1.2.9-1.7.3-.4.8-.5,1.1-.8.3-.3.5-.6.7-.9.3-.4.5-.8.8-1.2.2-.2.6-.2.9-.4.2-.2.2-.7.5-.9.5-.5,1.1-.7,1.6-1.2.3-.3.5-.7.7-1.1.2-.4.4-.9.7-1.2.2-.2.6-.4.9-.5.5-.2,1.1-.2,1.6-.4.2,0,.4-.3.6-.4.5-.3,1.1-.7,1.6-1,.4-.3.7-.6,1-.8.4-.2.8-.4,1.2-.5.2,0,.4,0,.6,0,.2,0,.4-.2.6-.3.4-.1.7-.2,1.1-.2.3,0,.6,0,.8,0h0Zm17.3,2.3c-.3,0-.2,0-.5,0,0,.4-.2.3,0,.7.4.7-.5.8.1,1.6.2.2,1-.1,1,.3,0,.4.8-.2,1.2.9,0,.1.2.3.3.7.3,1.1-.7.3-.5,1.2,0,.3.5.1.6.7,0,0,.6.5.7.8.2.7.9.6.9-.3,0-.4.2-.7,0-1.2-.2-.6-.2-1.6-.7-2-.2-.1-.7-.3-.7-.5,0-1.4-.8-.6-.9-1.7,0-.3-.8-.3-.9-.7,0-.2-.4-.5-.7-.5h0Zm-1.1,27.1c-1.3-.2-.5,1.3-1.4,1.9-.3.2-.4,1.1-.7,1.3-.3.2-.3,1.5,1.1.6.9-.6,0-.7,2-.6,1,0,1.5-.7,1-1.5-.5-.8.9-.6.3-1.7-.4-.8.7-.4,1.2-2.1.4-1.2-.6-.1-.5-1.6,0-.4-.6-.2-.9.1-1.1,1.1-.8.4-.8,2.1,0,.4-.6.5-1,.9-.4.3-.1.5-.3.5h0Zm-5.9,8.1c-1.5-.3-1.7.8-2.1,1.1,0,0,0,.5-.7.7-.3,0-1.1.7-1.9.6-.3,0-2.3,1.6-.1,1.5,1.1,0,2.2-1.1,3.8-1.1.6,0,1.8-.5,2.1-1.2.3-.7,1.5-.2,1.3-1.7,0-.5.5-.4.5-1.1,0-.2,0-.8,0-1.2-.2-.7-.8-.7-1,.3,0,.3-.2.7-.7,1-.6.4-.7,0-1,.8,0,0,0,0-.2,0h0Zm4-13.8c-.8.2-.2,1.4-.9,1.9-.3.2.4.7-.7,1.5-.5.3-.5,1.6-1.9,2.3-.5.3-.9.6-1.5.7-.7,0-.5.5-1.3.6-.1,0-1.7,1-1.8.6-.1,0,0-.8.6-.9,0,0,.6-.4.8-.5,1.6-.6,1.3-1.8,1.6-1.9.5-.1,1-1.3,1.5-1.4.2,0,.6-.8.4-1.3-.2-.4.5-1.3,1.1-1.3,1.3,0,0-1.1,1.4-1.4.4,0,.4-.5.6-.6,1.2-.4,1.1-3.9,1.8-3.4,0,0,1,2.6.3,2.9-1.3.6.4,1.3-.9,2.1-.4.2-.8,0-1.3,0h0Z"/><path class="cls-26" d="m43.9,55c-1.7,0-1.4-.9-2.8.7-.4.5-.9,1-1.2,1.2-.3.3-.6.6-1,.8-.4.2-.8.2-1.2.5-.3.2-.4.7-.8.9-1,.4-2.2-.6-3.2-.7-2-.2-3.5,1.4-4.7,1.7-.3,0-.7-.4-1-.3-.4.1-.5.8-.9.9-.4.1-.8,0-1.1-.4-.7-.7-.9-2.1-2.1-2.7-1.6-.8-5.8-1.9-6.8-2.7-.7-.6-.9-1.7-1.6-2.4-.3-.3-1-.1-1.3-.4-.6-.4.3-1.3-1.8-1.2-2.1,0-3.4,1.6-2.8-3.3,0-.5.3-1.7-.6-1.1-.6.4-1.4,1.7-2.6,1.4-.4-.1-.6-.6-.6-1,0-.7.3-1.4.5-2.2.3-1.1.7-2.1,1-3.1.2-1-.4-1.2-.9-.6-.6.6-.9,1.3-1.6,1.8-.7.5-1.1-1-1-1.6.1-.7.5-1.3.9-1.9.2-.3.2-.5-.2-.4-.3.1-.8.3-1.2.4-.2,0-.4,0-.3-.3.4-1,.9-2,1-3.1,0-.4-.6-.7-.7-1.1,0-.3.2-.6.1-.9,0-.2-.4-.3-.4-.6,0-.6.3-1.2.4-1.8,0-.4.2-.9.1-1.3,0-.6-.6-.5-.7-1.3-.3,1.8-.5,3.7-.5,5.6,0,17.5,14.2,31.6,31.6,31.6s31.6-14.2,31.6-31.6-8.3-24.8-20-29.4c.1,0,.2.1.3.2,1.6.9.9,1.2,1.2,1.5.2.2.5.3.7.5.6.4,1.3.7,2,1.1.2.2.3.4.4.6.2.4.4.8.7,1.1.2.2.6.2.8.5.2.3,0,.6.3.9.3.4,1.2,0,1.7,1.3.2.4-.2,1.6.2,2.3.3.6.7,1.1,1.1,1.5.6.6,1.4,1,1.8,1.7.3.6.7,1.2.7,1.9,0,.3,0,.6-.2.9-.2.3-.6.4-.7.8-.2,1.6,2.8,5.4,3.4,7.4.5,1.7.8,3.6.8,5.4,0,.5-.6,1.4-.9,1.1-.7-.8-.1-3.2-1-4.4-.9-1.3-1.2,1.1-1.1,1.6.2,2.4,1.6,2.8.5,5.2-.1.2-.8.7-1,.6-.3-.2-.2-.7-.4-.9-.1-.1-.3,0-.4.2-.3.4-.7.8-.7,1.3,0,.8.4,1.7.4,2.5,0,.4-.1.7-.3,1.1-.1.4-.2.7-.4,1s-.4.5-.5.8c-.1.3-.1.7-.3,1.1,0,.3-.2.6-.4.9-.2.3-.6.4-.8.8-.2.4,0,.9-.3,1.2-.2.3-.6.2-.8.5-.2.3,0,.9-.3,1.2-.2.2-.6,0-.7.1-.3.3,0,.9-.3,1.2-.2.2-.5.3-.7.2-.2,0-.2-.4-.3-.5-.8-.7-.8,0-1.1.2-.2.3-.5.2-.7.1-.5-.2-.6-1.2-.7-1.6-.1-.3-.7-.1-.9.3-.2.4-.1.9-.3,1.3,0,.1-.3.1-.3.3-.3.9.1,1.9-1.1,2.6-.3.2-.6.2-1,.3h0Z"/><path class="cls-31" d="m2.4,28.9c-.3.9-1.1,2.5-1.1,2.7,0,.2.4,1.3.4,1.9,0,.5-.4,1.3-.3,1.4.6,1.8.8,3.7,1.1,5.6,0,.5-.2,1.4-.2,1.5,0,.3,1.1,2.2,1.5,3.4.2.5,0,1.1.3,1.6,1.1,1.9,1.4,3.7,2.1,5.6,0,.2,1.2.9,1.8,1.3,1.7,1.4,1.9,2.2,3,3.4.8.9,1.6,1.7,2.6,2.4.6.5,1.4.6,2.1,1.1.5.3.8.8,1.3,1.1.9.5,1.9.9,2.9,1.3.4.2.8.2,1.3.3-.3-.1-.5-.3-.7-.5,0,0,0-.2,0-.3,0-.1-.3-.1-.3-.2,0,0,0-.2,0-.3,0-.1-.2-.2-.3-.3-.1,0-.3-.1-.3-.2,0,0,.1-.2,0-.3,0-.1,0-.3-.2-.3-.2-.2-.5-.2-.6-.3,0,0-.1-.3,0-.4,0-.2.4-.1.4-.3,0-.1,0-.3-.2-.4-.1-.1-.3-.1-.4-.2-.1,0-.3-.1-.3-.2s.2,0,.3,0c.3,0,.5.3.7.3.2,0,.3-.1.5-.2.2,0,.3-.1.5-.1.2,0,.3.3.5.3,0,0,.2,0,.3,0,.3,0,.7.1,1,.1.2,0,.4,0,.4-.2,0-.2,0-.4,0-.5-.1-.1-.3-.2-.5-.2-.2,0-.4.2-.6.3-.1,0-.3,0-.5,0-.3,0-.5-.3-.8-.4-.2,0-.5,0-.6,0-.5-.4-.8-1.1-1.3-1.5-.1-.1-.3-.2-.4-.2-.3,0-.6.3-.9.4-.1,0-.2,0-.3,0-.2,0-.4,0-.6,0-.2,0-.4-.1-.5-.3,0-.1,0-.3,0-.4,0-.1,0-.3-.2-.4-.4-.2-.8-.2-1.2-.3,0,0,0-.2,0-.3-.2-.2-.4-.3-.6-.5,0,0,0-.2,0-.2.2,0,.3.3.5.4.1,0,.3,0,.4,0,.1,0,.2.3.4.3.2,0,.5,0,.7,0,.3,0,.5.2.8.2,0,0,.2,0,.2-.2,0-.3-.2-.6-.2-.9,0-.2.3-.3.4-.3.2,0,.3.4.5.4.3,0,.6-.2.9-.2.2,0,.5.2.7.1.1,0,0-.3,0-.4.1,0,.2.1.4.1.1,0,.2-.2.3-.2.1,0,.2.1.4.2.2,0,.4,0,.6,0,.1,0,.3,0,.4-.2.1-.1.2-.3.2-.5,0-.1,0-.3-.1-.3-.1-.2-.4-.3-.5-.5,0,0,.1-.2,0-.3,0-.2-.3-.4-.3-.6,0-.1.1-.2.1-.3,0-.2-.2-.3-.2-.4,0,0,.2,0,.2-.1,0-.3-.3-.4-.3-.7,0,0,0-.2.1-.2.1,0,.3-.1.4,0,.3.2.6.6.9.8.2.1.4.2.7.2.1,0,.3,0,.4-.1s-.2-.3-.1-.4c0-.1.2-.1.3-.3,0,0-.3-.1-.2-.2,0,0,.3,0,.4,0,.2,0,.4-.3.6-.4.1,0,.2.1.3.2.2,0,.4.2.6.2.2,0,.3-.2.4-.2.2,0,.4,0,.5,0,.1-.1,0-.3,0-.4,0,0,.1-.2.2-.2.1,0,.1.3,0,.4,0,.2-.1.3-.2.5,0,0,.1,0,.1.1,0,.1-.1.2,0,.4,0,.2.3.4.5.5.2,0,.5,0,.7,0,.2,0,.5-.2.6-.4,0-.2-.2-.4,0-.6,0-.1.3,0,.5,0,.2,0,.4-.2.4-.4,0-.2-.2-.4-.2-.6,0-.3,0-.6.3-.7.3-.3.8-.3,1.1-.5,0,0,0-.2,0-.2,0,0-.2,0-.2-.1-.2-.2-.3-.4-.4-.7,0,0,0-.2,0-.3.1,0,.3,0,.4,0,.1,0,0-.3.2-.3.2,0,.4,0,.6,0,.3-.2.5-.4.7-.6,0,0,0-.2,0-.3,0,0-.2-.1-.2-.2,0-.1,0-.3,0-.4.2-.2.5,0,.7-.3.1-.1,0-.3.1-.5,0,0,.3,0,.3,0,.2-.3.2-.6.2-.9,0-.2-.2-.3-.3-.3-.3,0-.5,0-.8.2,0,0-.1.1-.2.1-.1,0-.3,0-.4,0,0-.1.1-.2.2-.3,0,0,0-.2,0-.3.1-.2.4-.4.5-.7,0-.2.2-.4,0-.5-.2-.2-.6-.2-.9-.2-.2,0-.3.2-.5.3-.3,0-.6,0-.8,0-.2,0,0,.4-.2.5,0,0-.2,0-.3.1,0,0-.1.2-.1.3,0,.2.2.5,0,.7-.1.1-.4,0-.6-.1-.2-.1-.1-.4-.3-.5-.2-.1-.5-.2-.7-.1-.3.1-.5.4-.7.7-.1.2,0,.5-.2.6-.3,0-.5-.4-.8-.3-.3.1-.6.5-.7.8,0,.1.1.3,0,.5-.1.1-.3,0-.5,0-.2,0-.2.3-.4.3-.1,0-.2-.2-.4-.2-.1,0-.2.2-.3.2-.3.1-.6,0-.8.2-.1,0-.2.2-.3.3-.1,0-.3,0-.4,0-.2,0-.2.4-.4.4-.4,0-.8-.6-1.2-.6-.3,0-.4.5-.7.6-.2,0-.2-.3-.4-.4-.2,0-.4.1-.6.2-.3,0-.7,0-.8-.3,0-.5.6-1.5,1.6-1.8.5-.2,1.1.1,1.6,0,.3,0,.6-.2.8-.5.1-.2,0-.4,0-.6-.1-.2-.4-.4-.5-.6,0-.2.2-.3.2-.5,0-.2,0-.5.2-.5.2,0,.3.2.3.4,0,0,0,.2-.1.2,0,.2-.1.3,0,.5,0,0,.2,0,.3,0,.2,0,.3,0,.5,0,.2,0,.4.2.6.2.2,0,.4-.3.4-.5,0-.3-.2-.5-.2-.8,0-.5,0-.9.2-1.4,0-.2.4-.3.5-.5.2-.5.2-1,.4-1.4.3-.6.7-1.1,1.2-1.5.3-.3.8-.4,1.2-.7.3-.2.3-.6.6-.8.5-.3,1.2-.3,1.7-.7.4-.3.6-.7.8-1.1.1-.2.3-.6.1-.8,0-.2-.4,0-.5.1-.4.3-.7.8-1.1,1.2-.6.4-1.2.7-1.8,1.1-.3.2-.7.4-1.1.6-.3.2-.4.6-.7.9-.6.5-1.2,1.1-1.9,1.5-.5.3-1.1.2-1.5.4-.2.1-.1.6-.4.7-.3.1-.7-.3-1-.2-.2,0-.3.3-.4.5-.2.3-.1.8-.3,1.1-.2.2-.6.2-.8.4-.4.3-.6.8-1,1.2-.3.3-.7.5-1.1.6-.3,0-.7,0-.9-.2-.2-.2-.2-.5-.3-.7-.2-.3-.4-.7-.7-.8-.2,0-.4.1-.6.3-.3.2-.4.7-.7.8-.4.1-.8-.3-1.2-.2-.3,0-.3.5-.6.5-.3,0-.6-.2-.7-.5-.1-.2.2-.5.1-.8,0-.3-.3-.5-.3-.7.1-.5.6-1,.8-1.5,0-.2.2-.5,0-.6-.1-.1-.3.2-.5.2-.4,0-.8.3-1.2.1-.3-.1-.5-.5-.5-.8,0-.2.5-.2.6-.4.1-.2,0-.6.1-.8,0-.1.2-.2.4-.2.2,0,.4.3.7.2.3,0,.3-.5.6-.6.3-.1.7.1,1.1,0,.2,0,.2-.3.2-.5,0-.4-.4-.7-.3-1.1,0-.2.4-.2.5-.4.1-.2,0-.5,0-.6.2-.3.4-.5.7-.7.4-.2.9-.1,1.2-.4.2-.3,0-.7,0-1,0-.4.1-.8.3-1.2,0-.1.3,0,.4-.2.3-.3.3-.8.6-1.1.2-.2.6-.2.8-.2.3,0,.5.3.7.3s.2-.3.4-.3c.2,0,.3.4.5.4.2,0,.6-.1.6-.3.1-.4-.1-.8,0-1.2,0,0,.1-.2.2-.2.3.1.5.4.7.5.3.2.6.5,1,.6.2,0,.4,0,.5,0,.3-.4.4-1,.6-1.4.2-.3.4-.7.8-.9.4-.2,1,0,1.4-.3.6-.4.9-1,1.3-1.6.3-.3.5-.7.8-1,.3-.2.6-.6,1-.5.2,0-.3.4-.4.6-.2.3-.6.6-.5.9.1.2.6,0,.8-.2.2,0,.4-.6.6-.4.2.2-.1.5-.3.7-.4.4-.8.7-1.2,1-.2.1-.5,0-.7.2-.2.2-.2.6-.4.7-.5.5-1.1.7-1.5,1.2-.2.2-.3.4-.3.7,0,.1.2,0,.3,0,.2,0,.4-.1.6-.1.2,0,.4.2.6.2.3,0,.4-.4.7-.4.2,0,0,.3-.1.5-.2.3-.6.6-.8,1-.1.2-.4.6-.2.6.3.1.7-.2,1-.4.5-.4.8-1,1.4-1.3.3-.2-.4.5-.5.8,0,.1,0,.3,0,.4,0,0,.3,0,.4,0,.3-.1.7-.2,1-.5.4-.5.5-1.3,1-1.9,0-.1.5-.2.4,0-.1.6-.6,1.1-.7,1.7,0,.1.2.3.3.2.6-.3,1.1-.7,1.6-1.2.5-.5.8-1.2,1.2-1.7.2-.3.5-.5.8-.7.1,0,.3,0,.4,0,.2,0,.4-.3.7-.4.3,0,.5.2.8.2.3,0,.5-.2.7-.5.1-.2,0-.5.2-.6.3-.3.8-.4,1-.7,0-.1,0-.3-.2-.3-.3-.1-.7-.2-1-.2-.2,0-.4.3-.6.4-.2,0-.4-.1-.5,0-.4.3-.7.8-1.1,1.1-.1,0-.2-.1-.3-.2,0-.2,0-.5,0-.8,0-.3.3-.6.4-.9.1-.2.3-.3.5-.4.6-.3,1.2-.5,1.9-.6.3,0,.6,0,.9.1,0,0,0,.6.5.5.2,0,.2-.4.3-.5.1-.1.4-.2.4-.4,0-.2,0-.5,0-.7,0,0-.2-.1-.3-.1-.3,0-.6.2-.8.3-.1,0-.2,0-.3-.1,0,0,0-.1.1-.2.1,0,1.1-.4,1.3-.4.6-.2,1.1-.5,1.7-.7.2,0,.4.2.7.1.2,0,.3-.3.5-.3.1,0,.3,0,.3.2.1.2,0,.6.2.8.4.4,1.1.5,1.5.9.2.2.3.6.5.8.2.2.5.5.8.4.2,0,0-.4,0-.6-.1-.5-.5-.9-.6-1.3,0-.3.2-.6.2-.9,0-.2-.4-.4-.3-.6,0-.4.6-.6.7-1,0-.3,0-.6,0-.8,0-.1-.3-.2-.4-.2-.3,0-.5.1-.8.1-.4,0-.8-.2-1.2-.1-.3,0-.6.3-.8.6-.2.1-.2.4-.4.5-.4.2-.8.3-1.2.5-.3.1-.4.5-.7.6-.6.3-1.2.5-1.8.6-.7.2-1.4.3-2.2.4-.1,0-.2-.1-.3-.2,0,0,0-.2,0-.2.2-.1.4-.1.6-.3.2-.2.4-.5.4-.8,0-.3.3-.7,0-.8-.3-.2-.7,0-1,.1-.3.1-.4.4-.6.6,0,.1,0,.3,0,.4,0,0,0,.2-.1.2-.3.1-.7,0-1,.1-.6.2-1,.7-1.5,1-.4.3-.9.5-1.4.7-.6.2-1.1.4-1.7.5-.2,0-.4,0-.6-.1,0,0,0-.2,0-.3,0-.1-.3-.1-.2-.2.1-.4.5-.6.6-1,0-.1,0-.3,0-.4,0,0-.3,0-.4,0-.5.2-1,.4-1.4.7-.3.2-.5.6-.8.8-.1.1-.3.2-.5.2,0,0-.1,0-.1,0,0,0,0-.2,0-.3,0-.1,0-.2-.2-.3,0,0-.2-.1-.3,0-.2.1-.4.3-.6.5-.1.1,0,.4-.2.4-.4.2-.9.2-1.2.4-.1,0-.1.3-.3.4,0,0-.2,0-.2,0,0-.1,0-.2.1-.3,0,0,0-.2,0-.2.3-.3.7-.5,1-.9,0,0,0-.2,0-.2-.2,0-.4,0-.5,0-.9.5-1.8,1-2.7,1.6,0,0-.1.2-.1.3,0,0,.2.1.2.2-.2.3-.5.4-.7.7,0,.1,0,.3-.1.4,0,.1-.3,0-.3.2-.2.3-.3.7-.4,1.1,0,.1,0,.3-.1.4-.1.2-.3.2-.4.4-.3.4-.5.9-.9,1.2-.2.2-.5.2-.7.2,0,0-.1-.2-.2-.2-.2,0-.4,0-.6,0,0,0-.1-.2,0-.2.2-.4.5-.8.8-1.2.3-.4.6-.8.8-1.2,0,0,0-.2,0-.2,0,0-.2,0-.2,0-.1,0-.2.3-.4.4,0,0-.2,0-.3.1,0,0,0,.2-.1.3-.4.5-.9.9-1.2,1.3-.3.3-.4.8-.7,1-.1.1-.4,0-.6,0-.4.2-.7.6-1.2.7,0,0-.2,0-.2-.2,0-.1.2-.2.2-.3.1-.2,0-.6.2-.8,0,0,.2.2.3.1.3-.1.5-.4.7-.6.5-.6.8-1.4,1.3-2,.4-.6.9-1.1,1.3-1.6.2-.2.3-.5.4-.8,0,0,0-.1,0-.1-.2,0-.4.2-.6.2,0,0-.2-.1-.1-.2.3-.7.8-1.3,1.2-2,0-.1.1-.3,0-.4,0,0-.2,0-.3,0-.2,0-.5.2-.7.4-.6.6-1.1,1.3-1.7,1.8-.3.2-.7.2-.9.4-.6.5-.9,1.2-1.5,1.7-.6.5-1.2.8-1.9,1.1-.1,0-.3,0-.4-.2,0,0,0-.2,0-.3.2-.3.5-.6.6-.9.1-.2,0-.6.2-.8.2-.3.7-.5.9-.8.4-.4.7-.8,1-1.2,0-.1.3-.3.2-.4-.1-.1-.4,0-.5,0-.6.4-1.1.9-1.7,1.3-.5.4-1,.8-1.4,1.3-.2.3-.2.7-.5,1-.3.2-.7,0-1,.3-.3.3-.5.7-.8,1-.3.3-.7.5-.9.8-1.1,1.6-1.3,3-2,4.8h0Z"/><path class="cls-33" d="m12.6,25.3c-.1.1-.4,0-.6,0-.4.2-.7.6-1.2.7,0,0-.2,0-.2-.2,0-.1.2-.2.2-.3.1-.2,0-.6.2-.8,0,0,.2.2.3.1.3-.1.5-.4.7-.6.5-.6.8-1.4,1.3-2,.4-.6.9-1.1,1.3-1.6.2-.2.3-.5.4-.8,0,0,0-.1,0-.1-.2,0-.4.2-.6.2,0,0-.2-.1-.1-.2.3-.7.8-1.3,1.2-2,0-.1.1-.3,0-.4,0,0-.2,0-.3,0-.2,0-.5.2-.7.4-.6.6-1.1,1.3-1.7,1.8-.3.2-.7.2-.9.4-.6.5-.9,1.2-1.5,1.7-.6.5-1.2.8-1.9,1.1-.1,0-.3,0-.4-.2,0,0,0-.2,0-.3.2-.3.5-.6.6-.9.1-.2,0-.6.2-.8.2-.3.7-.5.9-.8.4-.4.7-.8,1-1.2,0-.1.3-.3.2-.4-.1-.1-.4,0-.5,0-.6.4-1.1.9-1.7,1.3-.3.2-.5.4-.8.6,0,.1,0,.3-.1.4-.1.3-.2.6-.4.9,0,.2-.2.4-.4.5-.3.4-.7.7-.9,1.2-.2.5-.4,1-.4,1.5,0,.5,0,1,0,1.6,0,.3,0,.7,0,1,0,.3-.2.6-.3.9-.1.3-.3.6-.4.9,0,.3-.1.6,0,1,0,.4.4.7.5,1.1.1.3.2.6.2,1,0,.7-.2,1.5-.2,2.2s.1.4.2.5c0,.1.2.2.4.2.3,0,.6,0,.9,0,0,0,.1.2.1.3,0,.2,0,.4-.2.6,0,.2-.3.3-.4.5,0,.1,0,.3-.1.4,0,0,0,0,0,0,.2,0,.3,0,.5.2.2.1.5.2.5.4,0,.2-.3.4-.3.6,0,.2,0,.4.2.5.4.2.8.3,1.3.4,0,0,.2,0,.2,0,0,.2-.1.4,0,.5,0,.2.4.2.4.4,0,.2-.1.4-.1.6,0,.2,0,.4.2.5.3.4.6.8,1,1.1.2.2.5.5.8.5.3,0,.6-.4.9-.4.2,0,.5,0,.6.3.1.3-.3.7-.2,1,0,.2.4.1.7.2.3,0,.7-.2,1,0,.3.2.2.6.3.9.2.4.3.9.7,1.2.5.3,1.2.3,1.8.4.3,0,.6,0,.8.1.3.2.3.7.6.9.2.2.6.3.9.2.6-.2,1-.7,1.5-1,.4-.2.8-.2,1.2-.3.4,0,.7,0,1.1,0,.5,0,.9.4,1.3.4.6,0,1.2-.4,1.7-.7.8-.3,1.5-.7,2.3-1.1.2,0,.3-.2.4-.3.6-.3,1.3-.5,2-.7,0,0,0-.2,0-.2,0,0,.3,0,.3,0,.2-.3.2-.6.2-.9,0-.2-.2-.3-.3-.3-.3,0-.5,0-.8.2,0,0-.1.1-.2.1-.1,0-.3,0-.4,0,0-.1.1-.2.2-.3,0,0,0-.2,0-.3.1-.2.4-.4.5-.7,0-.2.2-.4,0-.5-.2-.2-.6-.2-.9-.2-.2,0-.3.2-.5.3-.3,0-.6,0-.8,0-.2,0,0,.4-.2.5,0,0-.2,0-.3.1,0,0-.1.2-.1.3,0,.2.2.5,0,.7-.1.1-.4,0-.6-.1-.2-.1-.1-.4-.3-.5-.2-.1-.5-.2-.7-.1-.3.1-.5.4-.7.7-.1.2,0,.5-.2.6-.3,0-.5-.4-.8-.3-.3.1-.6.5-.7.8,0,.1.1.3,0,.5-.1.1-.3,0-.5,0-.2,0-.2.3-.4.3-.1,0-.2-.2-.4-.2-.1,0-.2.2-.3.2-.3.1-.6,0-.8.2-.1,0-.2.2-.3.3-.1,0-.3,0-.4,0-.2,0-.2.4-.4.4-.4,0-.8-.6-1.2-.6-.3,0-.4.5-.7.6-.2,0-.2-.3-.4-.4-.2,0-.4.1-.6.2-.3,0-.7,0-.8-.3,0-.5.6-1.5,1.6-1.8.5-.2,1.1.1,1.6,0,.3,0,.6-.2.8-.5.1-.2,0-.4,0-.6-.1-.2-.4-.4-.5-.6,0-.2.2-.3.2-.5,0-.2,0-.5.2-.5.2,0,.3.2.3.4,0,0,0,.2-.1.2,0,.2-.1.3,0,.5,0,0,.2,0,.3,0,.2,0,.3,0,.5,0,.2,0,.4.2.6.2.2,0,.4-.3.4-.5,0-.3-.2-.5-.2-.8,0-.5,0-.9.2-1.4,0-.2.4-.3.5-.5.2-.5.2-1,.4-1.4.3-.6.7-1.1,1.2-1.5.3-.3.8-.4,1.2-.7.3-.2.3-.6.6-.8.5-.3,1.2-.3,1.7-.7.4-.3.6-.7.8-1.1.1-.2.3-.6.1-.8,0-.2-.4,0-.5.1-.4.3-.7.8-1.1,1.2-.6.4-1.2.7-1.8,1.1-.3.2-.7.4-1.1.6-.3.2-.4.6-.7.9-.6.5-1.2,1.1-1.9,1.5-.5.3-1.1.2-1.5.4-.2.1-.1.6-.4.7-.3.1-.7-.3-1-.2-.2,0-.3.3-.4.5-.2.3-.1.8-.3,1.1-.2.2-.6.2-.8.4-.4.3-.6.8-1,1.2-.3.3-.7.5-1.1.6-.3,0-.7,0-.9-.2-.2-.2-.2-.5-.3-.7-.2-.3-.4-.7-.7-.8-.2,0-.4.1-.6.3-.3.2-.4.7-.7.8-.4.1-.8-.3-1.2-.2-.3,0-.3.5-.6.5-.3,0-.6-.2-.7-.5-.1-.2.2-.5.1-.8,0-.3-.3-.5-.3-.7.1-.5.6-1,.8-1.5,0-.2.2-.5,0-.6-.1-.1-.3.2-.5.2-.4,0-.8.3-1.2.1-.3-.1-.5-.5-.5-.8,0-.2.5-.2.6-.4.1-.2,0-.6.1-.8,0-.1.2-.2.4-.2.2,0,.4.3.7.2.3,0,.3-.5.6-.6.3-.1.7.1,1.1,0,.2,0,.2-.3.2-.5,0-.4-.4-.7-.3-1.1,0-.2.4-.2.5-.4.1-.2,0-.5,0-.6.2-.3.4-.5.7-.7.4-.2.9-.1,1.2-.4.2-.3,0-.7,0-1,0-.4.1-.8.3-1.2,0-.1.3,0,.4-.2.3-.3.3-.8.6-1.1.2-.2.6-.2.8-.2.3,0,.5.3.7.3s.2-.3.4-.3c.2,0,.3.4.5.4.2,0,.6-.1.6-.3.1-.4-.1-.8,0-1.2,0,0,.1-.2.2-.2.3.1.5.4.7.5.3.2.6.5,1,.6.2,0,.4,0,.5,0,.3-.4.4-1,.6-1.4.2-.3.4-.7.8-.9.4-.2,1,0,1.4-.3.6-.4.9-1,1.3-1.6.3-.3.5-.7.8-1,.3-.2.6-.6,1-.5.2,0-.3.4-.4.6-.2.3-.6.6-.5.9.1.2.6,0,.8-.2.2,0,.4-.6.6-.4.2.2-.1.5-.3.7-.4.4-.8.7-1.2,1-.2.1-.5,0-.7.2-.2.2-.2.6-.4.7-.5.5-1.1.7-1.5,1.2-.2.2-.3.4-.3.7,0,.1.2,0,.3,0,.2,0,.4-.1.6-.1.2,0,.4.2.6.2.3,0,.4-.4.7-.4.2,0,0,.3-.1.5-.2.3-.6.6-.8,1-.1.2-.4.6-.2.6.3.1.7-.2,1-.4.5-.4.8-1,1.4-1.3.3-.2-.4.5-.5.8,0,.1,0,.3,0,.4,0,0,.3,0,.4,0,.3-.1.7-.2,1-.5.4-.5.5-1.3,1-1.9,0-.1.5-.2.4,0-.1.6-.6,1.1-.7,1.7,0,.1.2.3.3.2.6-.3,1.1-.7,1.6-1.2.5-.5.8-1.2,1.2-1.7.2-.3.5-.5.8-.7.1,0,.3,0,.4,0,.2,0,.4-.3.7-.4.3,0,.5.2.8.2.3,0,.5-.2.7-.5.1-.2,0-.5.2-.6.3-.3.8-.4,1-.7,0-.1,0-.3-.2-.3-.3-.1-.7-.2-1-.2-.2,0-.4.3-.6.4-.2,0-.4-.1-.5,0-.4.3-.7.8-1.1,1.1-.1,0-.2-.1-.3-.2,0-.2,0-.5,0-.8,0-.3.3-.6.4-.9.1-.2.3-.3.5-.4.6-.3,1.2-.5,1.9-.6.3,0,.6,0,.9.1,0,0,0,.6.5.5.2,0,.2-.4.3-.5.1-.1.4-.2.4-.4,0-.2,0-.5,0-.7,0,0-.2-.1-.3-.1-.3,0-.6.2-.8.3-.1,0-.2,0-.3-.1,0,0,0-.1.1-.2.1,0,1.1-.4,1.3-.4.6-.2,1.1-.5,1.7-.7.2,0,.4.2.7.1.2,0,.3-.3.5-.3.1,0,.3,0,.3.2.1.2,0,.6.2.8.4.4,1.1.5,1.5.9.2.2.3.6.5.8.2.2.5.5.8.4.2,0,0-.4,0-.6-.1-.5-.5-.9-.6-1.3,0-.3.2-.6.2-.9,0-.2-.4-.4-.3-.6,0-.4.6-.6.7-1,0-.3,0-.6,0-.8,0-.1-.3-.2-.4-.2-.3,0-.5.1-.8.1-.4,0-.8-.2-1.2-.1-.3,0-.6.3-.8.6-.2.1-.2.4-.4.5-.4.2-.8.3-1.2.5-.3.1-.4.5-.7.6-.6.3-1.2.5-1.8.6-.7.2-1.4.3-2.2.4-.1,0-.2-.1-.3-.2,0,0,0-.2,0-.2.2-.1.4-.1.6-.3.2-.2.4-.5.4-.8,0-.3.3-.7,0-.8-.3-.2-.7,0-1,.1-.3.1-.4.4-.6.6,0,.1,0,.3,0,.4,0,0,0,.2-.1.2-.3.1-.7,0-1,.1-.6.2-1,.7-1.5,1-.4.3-.9.5-1.4.7-.6.2-1.1.4-1.7.5-.2,0-.4,0-.6-.1,0,0,0-.2,0-.3,0-.1-.3-.1-.2-.2.1-.4.5-.6.6-1,0-.1,0-.3,0-.4,0,0-.3,0-.4,0-.5.2-1,.4-1.4.7-.3.2-.5.6-.8.8-.1.1-.3.2-.5.2,0,0-.1,0-.1,0,0,0,0-.2,0-.3,0-.1,0-.2-.2-.3,0,0-.2-.1-.3,0-.2.1-.4.3-.6.5-.1.1,0,.4-.2.4-.4.2-.9.2-1.2.4-.1,0-.1.3-.3.4,0,0-.2,0-.2,0,0-.1,0-.2.1-.3,0,0,0-.2,0-.2.3-.3.7-.5,1-.9,0,0,0-.2,0-.2-.2,0-.4,0-.5,0-.9.5-1.8,1-2.7,1.6,0,0-.1.2-.1.3,0,0,.2.1.2.2-.2.3-.5.4-.7.7,0,.1,0,.3-.1.4,0,.1-.3,0-.3.2-.2.3-.3.7-.4,1.1,0,.1,0,.3-.1.4-.1.2-.3.2-.4.4-.3.4-.5.9-.9,1.2-.2.2-.5.2-.7.2,0,0-.1-.2-.2-.2-.2,0-.4,0-.6,0,0,0-.1-.2,0-.2.2-.4.5-.8.8-1.2.3-.4.6-.8.8-1.2,0,0,0-.2,0-.2,0,0-.2,0-.2,0-.1,0-.2.3-.4.4,0,0-.2,0-.3.1,0,0,0,.2-.1.3-.4.5-.9.9-1.2,1.3-.3.3-.4.8-.7,1h0Z"/><path class="cls-24" d="m26,20.9c.5-.2,1-1.2,2-.9.2,0,.3,1.1,1.4.6.7-.4,1.3-1,2-1.4,1.5-.9,2,0,.6,1.5-.6.7-1.2,1.3-1.7,2-.1.2-.2.3-.2.5s.2.4.2.6c.2.4.3.4-.2.8-.3.2-.7.4-1.1.6-.3.2-.6.4-.8.7-.3.5-.4,1-.6,1.5,0,.1-.1.3-.2.4,0,0,0,0,.1-.1.4-.5.5-1.3,1-1.9,0-.1.5-.2.4,0-.1.6-.6,1.1-.7,1.7,0,.1.2.3.3.2.6-.3,1.1-.7,1.6-1.2.5-.5.8-1.2,1.2-1.7.2-.3.5-.5.8-.7.1,0,.3,0,.4,0,.2,0,.4-.3.7-.4.3,0,.5.2.8.2.3,0,.5-.2.7-.5.1-.2,0-.5.2-.6.3-.3.8-.4,1-.7,0-.1,0-.3-.2-.3-.3-.1-.7-.2-1-.2-.2,0-.4.3-.6.4-.2,0-.4-.1-.5,0-.4.3-.7.8-1.1,1.1-.1,0-.2-.1-.3-.2,0-.2,0-.5,0-.8,0-.3.3-.6.4-.9.1-.2.3-.3.5-.4.6-.3,1.2-.5,1.9-.6.3,0,.6,0,.9.1,0,0,0,.6.5.5.2,0,.2-.4.3-.5.1-.1.4-.2.4-.4,0-.2,0-.5,0-.7,0,0-.2-.1-.3-.1-.3,0-.6.2-.8.3-.1,0-.2,0-.3-.1,0,0,0-.1.1-.2.1,0,1.1-.4,1.3-.4.6-.2,1.1-.5,1.7-.7.2,0,.4.2.7.1.2,0,.3-.3.5-.3.1,0,.3,0,.3.2.1.2,0,.6.2.8.4.4,1.1.5,1.5.9.2.2.3.6.5.8.2.2.5.5.8.4.2,0,0-.4,0-.6-.1-.5-.5-.9-.6-1.3,0-.3.2-.6.2-.9,0-.2-.4-.4-.3-.6,0-.4.6-.6.7-1,0-.3,0-.6,0-.8,0-.1-.3-.2-.4-.2-.3,0-.5.1-.8.1-.4,0-.8-.2-1.2-.1-.3,0-.6.3-.8.6-.2.1-.2.4-.4.5-.4.2-.8.3-1.2.5-.3.1-.4.5-.7.6-.6.3-1.2.5-1.8.6-.7.2-1.4.3-2.2.4-.1,0-.2-.1-.3-.2,0,0,0-.2,0-.2.2-.1.4-.1.6-.3.2-.2.4-.5.4-.8,0-.3.3-.7,0-.8-.3-.2-.7,0-1,.1-.3.1-.4.4-.6.6,0,.1,0,.3,0,.4,0,0,0,.2-.1.2-.3.1-.7,0-1,.1-.6.2-1,.7-1.5,1-.4.3-.9.5-1.4.7-.6.2-1.1.4-1.7.5-.2,0-.4,0-.6-.1,0,0,0-.2,0-.3,0-.1-.3-.1-.2-.2.1-.4.5-.6.6-1,0-.1,0-.3,0-.4,0,0-.3,0-.4,0-.5.2-1,.4-1.4.7-.3.2-.5.6-.8.8-.1.1-.3.2-.5.2,0,0-.1,0-.1,0,0,0,0-.2,0-.3,0-.1,0-.2-.2-.3,0,0-.2-.1-.3,0-.2.1-.4.3-.6.5-.1.1,0,.4-.2.4-.4.2-.9.2-1.2.4-.1,0-.1.3-.3.4,0,0-.2,0-.2,0,0-.1,0-.2.1-.3,0,0,0-.2,0-.2.3-.3.7-.5,1-.9,0,0,0-.2,0-.2-.2,0-.4,0-.5,0-.9.5-1.8,1-2.7,1.6,0,0-.1.2-.1.3,0,0,.2.1.2.2-.2.3-.5.4-.7.7,0,.1,0,.3-.1.4,0,.1-.3,0-.3.2-.2.3-.3.7-.4,1.1,0,.1,0,.3-.1.4-.1.2-.3.2-.4.4-.3.4-.5.9-.9,1.2,0,0,0,0-.1,0,.1,0,.3,0,.4-.1.2-.1.4-.4.6-.5,0,0,.2,0,.2,0,0,0,.1.2,0,.3-.6,2.3,1.1-.2,1.7-.8,0,0,.2,0,.3,0,.5-.6.7-1.6,1.1-2.1.7-.9-.7,3,1,1.6,0,0,2.8-3.8,2-1.9-.2.5.5.1.7,0,.3-.1.5-.6.8-.6.2,0,.3.3.5.4.5,0,1,0,1.4-.3h0Zm-19.9,2.8c.1-.2.3-.4.6-.5.1,0,.1.3.3.3.1,0,.6-.4,1,0,0,0,0,.3,0,.4-.2.4-.6.6-.9,1-.3.5.3.7.6.5.4-.4.7-1,1.1-1.4.3-.3.5-.2.5,0,0,.4-.3.9,0,.9.1,0,.3,0,.4-.2.3-.3.5-.6.7-.9.3-.5.3-1.4.9-1.5.2,0,.3.1.5.1.5,0,.6-.9.9-1.4.2-.3.7,0,.8,0,.1,0,.2,0,.3-.1.7-.5.3-.6.5-1,0-.2.2-.4.2-.5.4-.8.7-1.3,1.4-1.8,0,0,0,0,0-.1,0,0-.2,0-.3,0-.2,0-.5.2-.7.4-.6.6-1.1,1.3-1.7,1.8-.3.2-.7.2-.9.4-.6.5-.9,1.2-1.5,1.7-.6.5-1.2.8-1.9,1.1-.1,0-.3,0-.4-.2,0,0,0-.2,0-.3.2-.3.5-.6.6-.9.1-.2,0-.6.2-.8.2-.3.7-.5.9-.8.4-.4.7-.8,1-1.2,0-.1.3-.3.2-.4-.1-.1-.4,0-.5,0-.6.4-1.1.9-1.7,1.3-.5.4-1,.8-1.4,1.3-.2.3-.2.7-.5,1-.3.2-.7,0-1,.3-.3.3-.5.7-.8,1-.3.3-.7.5-.9.8-.3.4-.5.8-.7,1.2-.2.4-.4.8-.5,1.2,0-.1.2-.3.3-.4.5-.8,1.1-1.4,1.4-1.4.2,0,0,.3,0,.5,0,.2.1.4.3,0,.3-.5.5-1.1.9-1.6h0Z"/><path class="cls-25" d="m9.2,36.3c.1-.2,0-.6.1-.8,0-.1.2-.2.4-.2.2,0,.4.3.7.2.3,0,.3-.5.6-.6.3-.1.7.1,1.1,0,.2,0,.2-.3.2-.5,0-.4-.4-.7-.3-1.1,0-.2.4-.2.5-.4.1-.2,0-.5,0-.6.2-.3.4-.5.7-.7.4-.2.9-.1,1.2-.4.2-.3,0-.7,0-1,0-.4.1-.8.3-1.2,0-.1.3,0,.4-.2.3-.3.3-.8.6-1.1,0,0,.1,0,.2-.1-.2,0-.3,0-.4.2-.2.2,0,.7-.4.7,0,0-.5-.3-.7,0-.1.2.1.7,0,.9,0,0-.2,0-.2.2,0,.1,0,.7-.4.9-.3.1-.9-.3-1.1.3,0,.3.3.9-.2,1.1-.1,0-.3,0-.4.1,0,0,0,.3-.1.4-1.6,1.3-2.9.2-4.4,1.5-.7.6-.6,1.2,0,1.1.3,0,.6-.1.7.2,0,.2,0,.4-.2.6-.3.5-1.8,1.1-2,1.7-.1.5.8.3.8.6,0,.1-1.2,1.6-.1,2.1.5.3,1.2-.3,1.8-.2.2,0,0,.5.1.8.1.3.5.4.6.7,0,.2-.2.4-.2.6,0,.3.5.5.4.8-.2.7-1.5,2.1-1,2.8.4.5,1.7-.6,2.5-1.3,1.6-1.4.4,1,1.6.1.5-.4.8-.9,1.3-1.3.6-.6.7.3,1.7-.1.3-.1.6-.4.9-.6.9-.6.9,0,.6.3-.4.4.2.7.3.3.1-.3.2-.8.4-1.2.3-.8.7-1.3,1.1-.8.1.1.3.2.4,0,0-.2.2-.7.4-1.2.2-.8.4-.7.3,0,0,.2,0,.5,0,.7,0,.4.3.5.5,0,.2-.4.4-1.2.5-1.6,0-.3.4-.7.7-.8.3-.1.3,0,.3.2,0,0,0,.2.1.2.5.1,2.2-2.1,2.5-2.6.1-.2.3-.5.4-.6.2-.2,1-.6,1.3-.8.4-.2.9-.3,1.3-.6.3-.2.5-.4.7-.6.2-.2.3-.5.4-.7.2-.3.5-.6.6-.4,0,0,0,0,0-.1,0-.2-.4,0-.5.1-.4.3-.7.8-1.1,1.2-.6.4-1.2.7-1.8,1.1-.3.2-.7.4-1.1.6-.3.2-.4.6-.7.9-.6.5-1.2,1.1-1.9,1.5-.5.3-1.1.2-1.5.4-.2.1-.1.6-.4.7-.3.1-.7-.3-1-.2-.2,0-.3.3-.4.5-.2.3-.1.8-.3,1.1-.2.2-.6.2-.8.4-.4.3-.6.8-1,1.2-.3.3-.7.5-1.1.6-.3,0-.7,0-.9-.2-.2-.2-.2-.5-.3-.7-.2-.3-.4-.7-.7-.8-.2,0-.4.1-.6.3-.3.2-.4.7-.7.8-.4.1-.8-.3-1.2-.2-.3,0-.3.5-.6.5-.3,0-.6-.2-.7-.5-.1-.2.2-.5.1-.8,0-.3-.3-.5-.3-.7.1-.5.6-1,.8-1.5,0-.2.2-.5,0-.6-.1-.1-.3.2-.5.2-.4,0-.8.3-1.2.1-.3-.1-.5-.5-.5-.8,0-.2.5-.2.6-.4h0Zm.7-4.9c-.2-.2-.6-.2-.9-.1,0,0-.1.2-.2.3-.2.1-.7.2-1,.5-.1.1-.3.2-.4.4,0,.2,0,.2,0,.2.5,0,1-.3,1.5-.4.2,0,.6,0,.9,0,.5,0,.4-.5,0-.8h0Z"/><path class="cls-1" d="m25.7,42.6c-.1.2,0,.5-.2.6-.3,0-.5-.4-.8-.3-.3.1-.6.5-.7.8,0,.1.1.3,0,.5-.1.1-.3,0-.5,0-.2,0-.2.3-.4.3-.1,0-.2-.2-.4-.2-.1,0-.2.2-.3.2-.3.1-.6,0-.8.2-.1,0-.2.2-.3.3-.1,0-.3,0-.4,0-.2,0-.2.4-.4.4-.4,0-.8-.6-1.2-.6-.3,0-.4.5-.7.6-.2,0-.2-.3-.4-.4-.2,0-.4.1-.6.2-.3,0-.7,0-.8-.3,0-.2.1-.5.3-.8,0,0,0,0-.1.1-.2.2-.8,1.6-.3,1.5.2,0,.5-.3.7-.2.1,0,.1.3.2.3.2,0,.4-.3.6,0,.2.3.1.6.8.7.7.1.7-.4,1-.5,0,0,.2,0,.3,0,.2,0,.4-.7,1-.6.2,0,.3.3.4.2.1,0,.2-.4.4-.6.3-.2.4,0,.6,0,.1,0,.1-.1.2-.1.1,0,.2,0,.3,0,.2,0,.5-.2.7-.2.2,0,.5.9,1.2.4.4-.3.2-1,.4-1.4.1-.3.5-.3.5,0,0,.1,0,.3,0,.4,0,.2-.1.4.1.4,0,0,.2,0,.2-.1,0-.2,0-.5.1-.7,0-.2.1-.4.4-.4,0,0,.1,0,.1.1,0,.1,0,.2,0,.3,0,0,0,.1.1,0,0,0,.1-.1.2-.2.3-.5.3-.6.7-.6.2,0,.7-.1.8-.4,0-.2-.2-.5-.2-.6,0-.2.1-.1.2-.1,0,0,.1,0,.2,0,.2-.2.2-.6.4-.7.2,0,.1.2.3.1.3-.1.2-.3.4-.5.2-.2.5-.2.7-.2-.2-.2-.6-.2-.9-.2-.2,0-.3.2-.5.3-.3,0-.6,0-.8,0-.2,0,0,.4-.2.5,0,0-.2,0-.3.1,0,0-.1.2-.1.3,0,.2.2.5,0,.7-.1.1-.4,0-.6-.1-.2-.1-.1-.4-.3-.5-.2-.1-.5-.2-.7-.1-.3.1-.5.4-.7.7h0Z"/><path class="cls-10" d="m53.9,11.1c-.4-.2-.7-.5-1.1-.8-.3-.3-.6-.7-1-1-.2-.1-.4-.2-.7-.2,0,0-.2,0-.2.2,0,0,0,.2,0,.3.4.4.9.8,1.3,1.2.3.3.7.5,1,.9.2.2.2.4.3.6,0,.1.2.2.3.3.3.2.6.3.9.5.1.1.3.3.3.4,0,0,0,.2-.1.1-.3-.1-.4-.4-.7-.6,0,0-.3-.1-.3,0,0,.1,0,.3,0,.4,0,.1.2.2.2.3,0,0,0,.2,0,.2.3.5.6,1.1.9,1.6.1.2.3.4.4.6,0,0,0,.2,0,.3,0,0-.2.1-.3,0-.2-.2-.3-.5-.5-.7-.1-.1-.3-.2-.5-.3-.1,0-.3,0-.4,0-.2.2-.2.4-.2.6,0,.1.2.2.2.4,0,.1,0,.3,0,.4,0,.3.1.5.2.8,0,.2,0,.4,0,.6,0,.5,0,1.1,0,1.6,0,.2.1.5,0,.7,0,.3-.2.5-.2.8,0,.4,0,.8,0,1.2,0,.2-.1.4-.1.6,0,.3.1.5.1.8,0,.3-.1.5-.1.8,0,.1,0,.3,0,.4,0,.3.1.6.1.9,0,.3-.2.5-.3.7,0,.2-.2.5-.3.7,0,.2,0,.4,0,.6,0,.2-.2.3-.2.5,0,.4.2.7.2,1.2,0,.4-.2.8-.4,1.1-.3.7-.8,1.1-1.1,1.6,0,.1-.1.3,0,.4,0,0,.1,0,.2,0,.4,0,1.1-.3,1.3-.6.3-.4.1-1.1.2-1.4,0-.1.2,0,.3-.1.2-.2.3-.4.5-.6,0-.2.2-.3.1-.5,0-.3-.3-.7-.3-1,0-.4,0-.8,0-1.2,0-.2,0-.5.2-.6,0,0,.3,0,.4,0,.1,0,.2-.1.3-.3,0-.2,0-.4.1-.6,0,0,0-.3.2-.3.1,0,.2.1.3.3,0,.2-.1.4,0,.6,0,.1.2.2.3.3,0,0,0,.1,0,.2,0,.2,0,.3,0,.5,0,.1,0,.2.2.3.1,0,.3,0,.3,0,.2-.3,0-.7.2-1,0-.2.2-.3.3-.4,0-.3,0-.5,0-.8,0-.3-.3-.5-.4-.8-.2-.6.2-.6.3-1.2,0-.2,0-.4,0-.7-.1-.3-.4-.5-.5-.9,0-.3,0-.5,0-.8,0-.2,0-.4,0-.5,0-.2,0-.5,0-.7,0-.2.1-.3.1-.5,0-.2,0-.3,0-.5,0,0,0,0,.1,0,0,.1.2.3.2.5,0,.3,0,.6,0,.8,0,.3,0,.6,0,.9,0,.7,0,.6.5,1,.1,0,.6.6.7.2.2-.4.1-.8.2-1.2,0-.2.1-.3,0-.5,0-.2-.3-.4-.3-.6,0-.1,0-.2,0-.3,0-.2-.2-.3-.2-.5,0-.2,0-.4,0-.7,0-.1,0-.2,0-.3,0,0,0-.1.1-.1.1,0,.2.2.2.3,0,.3,0,.6.2.8,0,.1.2.2.2.3,0,.3,0,.6,0,.8,0,.2.3.3.4.4,0,.1,0,.3.1.4,0,.2.3.2.4.4,0,.2,0,.4.1.6.1.3.5,0,.5-.2,0-.3-.3-.4-.4-.6,0,0,0-.3,0-.4,0-.2-.3-.3-.4-.5,0-.1,0-.2,0-.3,0,0,.2-.1.2-.2,0-.1,0-.2,0-.3,0,0,0-.1,0-.2,0-.1,0-.3.1-.4,0,0,.2,0,.2,0,0,.1,0,.3,0,.5.1.2.4.2.5.3.2.2.3.4.4.6.2.2.4,0,.5.7,0,.2,0,.4,0,.6,0,.2.3.3.4.5,0,0,0,.2,0,.2.1.2.4.4.5.6,0,.2.1.4.1.6,0,.1,0,.2,0,.3.1.3.4.4.5.7,0,.2,0,.4,0,.6,0,.1.1.2.3.2.1,0,.2-.1.2-.2,0-.3,0-.6,0-.8,0-.2-.3-.4-.4-.6-.2-.6-.4-1.3-.6-1.9-.2-.5-.5-.9-.7-1.3-.1-.3-.2-.5-.4-.8,0-.2-.3-.3-.3-.4,0-.2-.2-.4-.2-.7,0-.1.2.2.3.3.2.3.2.6.4.8.1.2.4.3.5.5.1.2.1.4.2.6.1.3.4.5.5.7.2.3.4.7.6,1,.2.3.4.7.5,1-.4-1.2-.8-2.9-1.3-3.9,0-.1-1.9-3.5-2-3.5,0,0-.7-.5-1-.8-.3-.3-.4-.6-.7-.9-.2-.2-.5-.4-.7-.7-.2-.2-.4-.7-.4-.7-.4,0-1.8-.8-2.1-1.1-.3-.2-.4-.6-.7-.8-.2-.2-.6,0-.8-.2h0Zm-2.4,23c-.7-.5-.6.9-.9,1.1-.3.2-.4.8-.5,1.1,0,.7,0,.8-.4,1.5,0,.2-.2.5,0,.5.7,0,.8-2.5,1.1-2.4.3,0,.8-.4.7-.8-.1-.2-.4-.4,0-.7.1-.1,0-.4,0-.4h0Z"/><path class="cls-30" d="m51.9,49.1c-.3,0-.3-.3-.3-.6s1.3-1.5,1.5-2c0-.2.5-.9.8-.7,0,0,.2.4.5,0,.2-.3,0-.8.8-1.5.2-.2.7-.2.5.5-.1.6.7,0,.8,1.1,0,0-.1.1-.2.2,0,.3-.8,0-.8.4s.5.5,0,1c-.3.2.8.7.9,1.1,0,0,0,.2,0,.2,0,0,0,.2,0,.3,0,0,.2.9.6,0,.1-.2.5-.6.7-.3.1.2.3,0,.2.6,0,.3.6.8.3,1.2-.2.2-.6.5-.7.6,0,.1-.1.7-.5.6,0,0-.2-.4-.3,0,0,0,0,0,0,0,0,.1,0,.3,0,.4,0,.4-.3,1-.8,1s-.3.2-.6.7c-.2.3-.7,1.6-1.2,1.5-.1,0,.1-.4-.1-.4s-.4.4-.6.6c-.1.2.6-.1.4.5,0,0-.2.3-.3.4,0,0-.2.2-.3.2-.3.2-1.2.5-1.3.6,0,.1-.1,0-.3.4-.1.3-1.5.1-1.1.5.1.2.7-.2.6.2,0,.3-1.5-.3-1.3.4.1.5-.7,0-1,.6,0,.1-.6.4-.9.3-.1,0-1,.4-1.2.6-.4.4-.7,0-.2-.4.7-.6,0-.4.6-.8,0,0,1.5-.9.7-.9,0,0-.6.2-.7.3,0,0-.6.2-.6,0,0-.6.4-.1.4-.8s1.4-.9.3-.7c-.4,0-.2-.1-.7.3,0,0-.7.2-1,.4,0,0-.2.1-.3.2-.3.2-.6.4-.9.5-.4.2-1.2.9-1.9,1-.2,0-.6.3-1.1.4-1,.1-.4-.3-1-.3-.2,0,.2.2-.2.5-.4.2-.9.3-1.3.4-.4,0-1.3.2-1.7.1-.2,0-.6,0-.7.1-.7.7-1.1.9-2.2.6-.3,0-1.8.2-1.3-.5.2-.2,2.9-.3,3.4-.6.3-.2,1.3.1,1.3-.5s0-.5.6-1c.7-.5.2-.7.8-.9.7-.2.5,0,1.2-.6.3-.3.4-.4.8-.7.4-.3.5,0,1.1-.2,0,0,.1,0,.2-.1.3-.2.7-1,.5-1.4-.1-.2.3-.4,0-.7-.4-.3.5-1.1.7-1.3.3-.5,1.2-1.1,1-1.6,0-.2-.7.7-.8.5-.1-.4-1.1,0-.2-1.5.5-.9.4-.3.8-.5,0,0,0-.2.2-.3.2-.1.2-.3.3-.5,0,0,.4-.8.4-.8.2,0,.3.5,0,.7-.3.3-.6,1.1-.5,1.6,0,.2-.1.4.1.6,0,0,.2.4.4,0,.1-.2-.1-.5.5-.5s.5-.7.9-.9c.6-.4.1.7.5.3,0,0,.4-.3.4,0,0,.1.1.1.1.4,0,.2.5,0,.6-.3.1-.2,1-1.1,1-.3s-.3.4,0,.9c0,0-.1.4.3.1,0,0,.6-.7.6-.1,0,0-.1.3.3.1.4-.2.2-.6.7-.9.3-.2.3-.2.5-.5.6-.7-.1-.5-.3,0,0,0,0,0-.1,0h0Zm-4.8,1.7c-.2-.3-.5.3-.5.6s0,.7-.2,1c-.4.5.4,1.5-.2,1.7-.2,0-.3.8-.6,1-.1,0-.6.7-.8.9-.2.1.2.2,0,.4-.1.1-1.5,1.2-.6,1.1.5,0,1-.5,1.5-.8.2-.1.3-.3.7-.5.1,0,.6-.4.6,0,0,.2.6.4.6-.2,0-.4.7,0,.9-.6,0-.2,1,0,.7-.7-.1-.3.6-.2,0-.5-.3-.1-.5.2-.7-.4,0-.2-.4-.3-.4.1,0,.4,0,.9-.7,1-.4,0-.2-.8,0-1,.2-.2-.5-.7-.1-1.3.2-.3-.3-.4,0-1.1.2-.5,0-.8-.1-.8h0Zm4.4,2.1c0,.5,0,1,.7,1.4.3.2,1.1-.1,1-.3,0,0-.3,0-.7,0-.3,0-.4-.3-.4-.7,0-.7.2-1,.4-1.1.1-.2.6-.4.4,0,0,.2-1.1,2.7,1.5.7.8-.6,1.6-1.5,1.2-2.4-.5-1.4-3.9,0-4.2,2.7h0Zm2.1-2.4c-.5.4-.9,1-.4,1,0,0,1.2-1.1,1.3-.4,0,.3-.5.9-.8,1,0,0-.6.3-.4.4.5.2,2-1.1,2.1-1.9,0-.4-.3-.5-.6-.6-.4,0-.8.1-1.2.4h0Zm-7.1-5c-.3-.4-.6,0-.6-.8,0-.4.2-.2.1-1.1,0-1.2,1.3-.2,1.7-2,0-.3.3.1.4-1,0-.3.9-1,1.1-1.6,0-.2.8-.6,0,.9,0,.2-.5,1.2-.4,1.4.1.1.1.7-.3.9-.5.3-.8,1.2-1,1.7-.3.9-.2,1.4-1,2.1,0,0-.9,1.8-.8.5,0-.4.9-.8.6-1.1h0Z"/><path class="cls-11" d="m30,3.2c.3,0,3.4-.8,3.4-.7.7.4,1.2.2,1.6,0,.8.3,2.5.3,2.9.4.4,0,2.6.6,3.2.8-.3,0-1.4-.3-1.7,0-.3.3-.7.2-.8.2-.4.2,0,.5.3.5.3,0,.7,0,.8,0,1.2.9,2.6.5,2.8.7.5.5,1.7.4,1.8.6.2.7-.9,0-1.1.4-.2.4-.5.1-1,0-1.3-.3-1,.5-.2.5.6,0,1.2.7.8.7-.3,0-.2.4-.6.4-2.2,0,.4.6.6.9.6,1.1-1.1,0-1.2,0-1,0-.2.7-.2.7.2.1,1.6.5,1.6.7.2.8-1.3,0-1.5,0-.9,0-.3.7,0,.9.4.2,1.1.9,1.2.9.4.1.3-.1.3-.3,0-.9,2,.2,2.2.4,1.2,1.2-1.8-.3-1.5.5.5,1.2-1.1,1.1-1.1.6-.1-.7-1-1.2-1.7-1.2s-.6-.2-.7-.4c-.1-.8-1.1-.5-1.1,0,0,.2.2.5.3.7.2.3.2.5,0,.7-.2.4-.6-.3-.8-.5-.6-.6-.5-1-.5-1.3,0-.5-.1-.8-.9-.7-.3,0-.4-.2-.5-.3-.4-.4-1-.6-1.1,0,0,.2.1,1.9-.3,2-.9.2-.3-1.1-.5-1.2-.3-.4,0-1.1-.2-1.3-.5-.5-.6,1-1,1.1-1,.3-.2-.6-.2-.6,0-1.3-1.2-.2-1.2-.2-.7,0-1.1,1.4-1.7.9-.5-.5.5-.6.3-1-.3-.5-1.1.3-1.6.1-.2,0,.3-1.2-1.2,0-.9.6-.9-.2-.7-.3.3-.3-.2-.3-.6-.1-.9.3-1.7,1.2-2.3,1.7-.4.3-.7.3-.6,0,.1-.3.3-.6.1-.7-.4-.2-1.5.4-1.8,0-.3-.3-.1-.5.2-.7.2,0,1.6-.4,1.9-.5,1.1-.2,2.6-.3,2.7-.8,0-.8-3,.5-3.5.4-.6-.2-1.5.9-2.1.4-.6-.5.5-.8.5-.9.6-.8,3.3-.5,3.9-1.2.6-.8-.7-.4-1-.6-.9-.6,1.7-.6,1.8-.7.9-.8-.7-.3-.9-.3-.6,0-3.5,1.2-3.5.5s1.7-.5,2.6-.9c.5-.3,1.4-.2,1.9-.2,2.3,0,.8-.5.7-.5-.5-.7.6-.3.8-.5.3-.3,1.9-.1,2.3,0,.2,0,.7,0,.6-.2,0,0-.3,0-.1-.2.2-.2-.5-.4-1.2-.3h0Zm-8.9,6.6c-1.2-.5-1.2.9-2,.8-.6,0-1.1.7-1.4,1.1-.5.6-.3.6.2.4.7-.3,1.2-1,2.1-.8.7.1,0-.8,1.1-.7.6,0,.8-.4.1-.7h0Zm-4.3,2.7c-.4.3-.2-.1-.4.4-.1.3-.5,0-.6.4,0,.1-.6.5-.8.7,0,.1-1.2,1.1-.3.8.2,0,.4-.6.9-.8.2,0,.8-.5.8-.7,0-.5.2-.1.5-.5.1-.1-.1-.3-.2-.3h0Z"/><path class="cls-28" d="m62.4,19.9c0-.1-1.9-3.5-2-3.5,0,0-.7-.5-1-.8-.3-.3-.4-.6-.7-.9-.2-.2-.5-.4-.7-.7-.2-.2-.4-.7-.4-.7,0,0-.3,0-.5-.2-.6-.3-1.4-.7-1.6-.9-.3-.2-.4-.6-.7-.8-.2-.2-.6,0-.8-.2-.4-.2-.7-.5-1.1-.8-.3-.3-.6-.7-1-1-.2-.1-.4-.2-.7-.2,0,0-.2,0-.2.2,0,0,0,.2,0,.3.4.4.9.8,1.3,1.2.3.3.7.5,1,.9.2.2.2.4.3.6,0,.1.2.2.3.3.3.2.6.3.9.5.1.1.3.3.3.4,0,0,0,.2-.1.1-.3-.1-.4-.4-.7-.6,0,0-.3-.1-.3,0,0,.1,0,.3,0,.4,0,.1.2.2.2.3,0,0,0,.2,0,.2.3.5.6,1.1.9,1.6.1.2.3.4.4.6,0,0,0,.2,0,.3,0,0-.2.1-.3,0-.2-.2-.3-.5-.5-.7-.1-.1-.3-.2-.5-.3-.1,0-.2,0-.3,0,.3.5.6,1,1,1.4.6.6,1.4,1,1.8,1.7.3.6.7,1.2.7,1.9,0,.3,0,.6-.2.9-.1.3-.5.4-.6.7,0,0,.2.1.3.3.1,0,.6.6.7.2.2-.4.1-.8.2-1.2,0-.2.1-.3,0-.5,0-.2-.3-.4-.3-.6,0-.1,0-.2,0-.3,0-.2-.2-.3-.2-.5,0-.2,0-.4,0-.7,0-.1,0-.2,0-.3,0,0,0-.1.1-.1.1,0,.2.2.2.3,0,.3,0,.6.2.8,0,.1.2.2.2.3,0,.3,0,.6,0,.8,0,.2.3.3.4.4,0,.1,0,.3.1.4,0,.2.3.2.4.4,0,.2,0,.4.1.6.1.3.5,0,.5-.2,0-.3-.3-.4-.4-.6,0,0,0-.3,0-.4,0-.2-.3-.3-.4-.5,0-.1,0-.2,0-.3,0,0,.2-.1.2-.2,0-.1,0-.2,0-.3,0,0,0-.1,0-.2,0-.1,0-.3.1-.4,0,0,.2,0,.2,0,0,.1,0,.3,0,.5.1.2.4.2.5.3.2.2.3.4.4.6.2.2.4,0,.5.7,0,.2,0,.4,0,.6,0,.2.3.3.4.5,0,0,0,.2,0,.2.1.2.4.4.5.6,0,.2.1.4.1.6,0,.1,0,.2,0,.3.1.3.4.4.5.7,0,.2,0,.4,0,.6,0,.1.1.2.3.2.1,0,.2-.1.2-.2,0-.3,0-.6,0-.8,0-.2-.3-.4-.4-.6-.2-.6-.4-1.3-.6-1.9-.2-.5-.5-.9-.7-1.3-.1-.3-.2-.5-.4-.8,0-.2-.3-.3-.3-.4,0-.2-.2-.4-.2-.7,0-.1.2.2.3.3.2.3.2.6.4.8.1.2.4.3.5.5.1.2.1.4.2.6.1.3.4.5.5.7.2.3.4.7.6,1,.2.3.4.7.5,1-.4-1.2-.8-2.9-1.3-3.9h0Z"/><path class="cls-29" d="m12.3,51c-2.1,0-3.4,1.6-2.8-3.3,0-.5.3-1.7-.6-1.1-.6.4-1.4,1.7-2.6,1.4-.4-.1-.6-.6-.6-1,0-.7.3-1.4.5-2.2.3-1.1.7-2.1,1-3.1.2-1-.4-1.2-.9-.6-.6.6-.9,1.3-1.6,1.8-.7.5-1.1-1-1-1.6.1-.7.5-1.3.9-1.9.2-.3.2-.5-.2-.4-.3.1-.8.3-1.2.4-.2,0-.4,0-.3-.3.4-1,.9-2,1-3.1,0-.4-.6-.7-.7-1.1,0-.3.2-.6.1-.9,0-.2-.4-.3-.4-.6,0-.6.3-1.2.4-1.8,0-.4.2-.9.1-1.3,0-.9-1.2-.1-.5-3.2-.2.6-.4,1.2-.6,1.8-.3.9-1.1,2.5-1.1,2.7,0,.2.4,1.3.4,1.9,0,.5-.4,1.3-.3,1.4.6,1.8.8,3.7,1.1,5.6,0,.5-.2,1.4-.2,1.5,0,.3,1.1,2.2,1.5,3.4.2.5,0,1.1.3,1.6,1.1,1.9,1.4,3.7,2.1,5.6,0,.2,1.2.9,1.8,1.3,1.7,1.4,1.9,2.2,3,3.4.8.9,1.6,1.7,2.6,2.4.6.5,1.4.6,2.1,1.1.5.3.8.8,1.3,1.1.9.5,1.9.9,2.9,1.3.4.2.8.2,1.3.3-.3-.1-.5-.3-.7-.5,0,0,0-.2,0-.3,0-.1-.3-.1-.3-.2,0,0,0-.2,0-.3,0-.1-.2-.2-.3-.3-.1,0-.3-.1-.3-.2,0,0,.1-.2,0-.3,0-.1,0-.3-.2-.3-.2-.2-.5-.2-.6-.3,0,0-.1-.3,0-.4,0-.2.4-.1.4-.3,0-.1,0-.3-.2-.4-.1-.1-.3-.1-.4-.2-.1,0-.3-.1-.3-.2s.2,0,.3,0c.3,0,.5.3.7.3.2,0,.3-.1.5-.2.2,0,.3-.1.5-.1.2,0,.3.3.5.3,0,0,.2,0,.3,0,.3,0,.7.1,1,.1.2,0,.4,0,.4-.2,0-.2,0-.4,0-.5-.1-.1-.3-.2-.5-.2-.2,0-.4.2-.6.3-.1,0-.3,0-.5,0-.3,0-.5-.3-.8-.4-.2,0-.5,0-.6,0-.5-.4-.8-1.1-1.3-1.5-.1-.1-.3-.2-.4-.2-.3,0-.6.3-.9.4-.1,0-.2,0-.3,0-.2,0-.4,0-.6,0-.2,0-.4-.1-.5-.3,0-.1,0-.3,0-.4,0-.1,0-.3-.2-.4-.4-.2-.8-.2-1.2-.3,0,0,0-.2,0-.3-.2-.2-.4-.3-.6-.5,0,0,0-.2,0-.2.2,0,.3.3.5.4.1,0,.3,0,.4,0,.1,0,.2.3.4.3.2,0,.5,0,.7,0,.3,0,.5.2.8.2,0,0,.2,0,.2-.2,0-.3-.2-.6-.2-.9,0-.2.3-.3.4-.3,0,0,0,0,0,0-.3-.6-.6-1.3-1.1-1.7-.3-.3-1-.1-1.3-.4-.6-.4.3-1.3-1.8-1.2h0Z"/><path class="cls-8" d="m17.6,56.8c-.3,0-.6.3-.9.4-.1,0-.2,0-.3,0-.2,0-.4,0-.6,0-.2,0-.4-.1-.5-.3,0-.1,0-.3,0-.4,0-.1,0-.3-.2-.4-.4-.2-.8-.2-1.2-.3,0,0,0-.2,0-.3-.2-.2-.4-.3-.6-.5,0,0,0-.2,0-.2.2,0,.3.3.5.4.1,0,.3,0,.4,0,.1,0,.2.3.4.3.2,0,.5,0,.7,0,.3,0,.5.2.8.2,0,0,.2,0,.2-.2,0-.3-.2-.6-.2-.9,0-.2.3-.3.4-.3.2,0,.3.4.5.4.3,0,.6-.2.9-.2.2,0,.5.2.7.1.1,0,0-.3,0-.4.1,0,.2.1.4.1.1,0,.2-.2.3-.2.1,0,.2.1.4.2.2,0,.4,0,.6,0,.1,0,.3,0,.4-.2.1-.1.2-.3.2-.5,0-.1,0-.3-.1-.3-.1-.2-.4-.3-.5-.5,0,0,.1-.2,0-.3,0-.2-.3-.4-.3-.6,0-.1.1-.2.1-.3,0-.2-.2-.3-.2-.4,0,0,.2,0,.2-.1,0-.3-.3-.4-.3-.7,0,0,0-.2.1-.2,0,0,0,0,0,0-.1,0-.2.1-.3.2,0,.2.2.5,0,.6-.1,0-.5,0-.4.3,0,.1.1.3.1.4,0,0-.2.1-.2.2,0,.1,0,.3,0,.4-.2.2-.5.2-.7.4,0,0,0,.2,0,.3,0,.2.3.4.3.7,0,.2-.1.2-.3.2-.2,0-.8-.3-.9-.1-.3.3-.4.7-.9.3-.2-.2-.4,0-.6,0-.6-.3-1.5-.8-1.7-.6,0,.1.4,1-.3.7-.4-.2-.8-.4-1.2-.7-2-1.1-.8.2-.3.9,0,0,0,.2,0,.2-.1,0-.3,0-.4.1,0,0,0,.2,0,.3.3.4.7.8,1.1,1.2,0,.1.1.2.2.4,0,0,0,.1,0,.1-.3,0-.6-.3-.7-.3,0,0-.3.3-.5.3-.2,0-.3-.2-.4-.3-.1,0-.3,0-.4,0,0,0,0,0,0,0-.2,0-.3,0-.5-.1-.3-.2-.5-.4-.7-.6-.2-.2-.3-.5-.6-.7-.2-.1-.3-.3-.5-.4.9,1,1.2,1.6,2.1,2.6.8.9,1.6,1.7,2.6,2.4.6.5,1.4.6,2.1,1.1.5.3.8.8,1.3,1.1.9.5,1.9.9,2.9,1.3.4.2.8.2,1.3.3-.3-.1-.5-.3-.7-.5,0,0,0-.2,0-.3,0-.1-.3-.1-.3-.2,0,0,0-.2,0-.3,0-.1-.2-.2-.3-.3-.1,0-.3-.1-.3-.2,0,0,.1-.2,0-.3,0-.1,0-.3-.2-.3-.2-.2-.5-.2-.6-.3,0,0-.1-.3,0-.4,0-.2.4-.1.4-.3,0-.1,0-.3-.2-.4-.1-.1-.3-.1-.4-.2-.1,0-.3-.1-.3-.2s.2,0,.3,0c.3,0,.5.3.7.3.2,0,.3-.1.5-.2.2,0,.3-.1.5-.1.2,0,.3.3.5.3,0,0,.2,0,.3,0,.3,0,.7.1,1,.1.2,0,.4,0,.4-.2,0-.2,0-.4,0-.5-.1-.1-.3-.2-.5-.2-.2,0-.4.2-.6.3-.1,0-.3,0-.5,0-.3,0-.5-.3-.8-.4-.2,0-.5,0-.6,0-.5-.4-.8-1.1-1.3-1.5-.1-.1-.3-.2-.4-.2h0Z"/><path class="cls-27" d="m17.6,56.8c-.3,0-.6.3-.9.4-.1,0-.2,0-.3,0-.2,0-.4,0-.6,0-.2,0-.4-.1-.5-.3,0-.1,0-.3,0-.4,0-.1,0-.3-.2-.4-.4-.2-.8-.2-1.2-.3,0,0,0-.2,0-.3-.2-.2-.4-.3-.6-.5,0,0,0-.2,0-.2.2,0,.3.3.5.4.1,0,.3,0,.4,0,.1,0,.2.3.4.3.2,0,.5,0,.7,0,.3,0,.5.2.8.2,0,0,.2,0,.2-.2,0-.3-.2-.6-.2-.9,0-.2.3-.3.4-.3,0,0,0,0,0,0,0,0-.1-.2-.2-.3-.1,0-.2,0-.3,0-.6-.3-1.5-.8-1.7-.6,0,.1.4,1-.3.7-.4-.2-.8-.4-1.2-.7-2-1.1-.8.2-.3.9,0,0,0,.2,0,.2-.1,0-.3,0-.4.1,0,0,0,.2,0,.3.3.4.7.8,1.1,1.2,0,.1.1.2.2.4,0,0,0,.1,0,.1-.3,0-.6-.3-.7-.3,0,0-.3.3-.5.3-.2,0-.3-.2-.4-.3-.1,0-.3,0-.4,0,0,0,0,0,0,0-.2,0-.3,0-.5-.1-.3-.2-.5-.4-.7-.6-.2-.2-.3-.5-.6-.7-.2-.1-.3-.3-.5-.4.9,1,1.2,1.6,2.1,2.6.8.9,1.6,1.7,2.6,2.4.6.5,1.4.6,2.1,1.1.5.3.8.8,1.3,1.1.9.5,1.9.9,2.9,1.3.4.2.8.2,1.3.3-.3-.1-.5-.3-.7-.5,0,0,0-.2,0-.3,0-.1-.3-.1-.3-.2,0,0,0-.2,0-.3,0-.1-.2-.2-.3-.3-.1,0-.3-.1-.3-.2,0,0,.1-.2,0-.3,0-.1,0-.3-.2-.3-.2-.2-.5-.2-.6-.3,0,0-.1-.3,0-.4,0-.2.4-.1.4-.3,0-.1,0-.3-.2-.4-.1-.1-.3-.1-.4-.2-.1,0-.3-.1-.3-.2s.2,0,.3,0c.3,0,.5.3.7.3.2,0,.3-.1.5-.2.2,0,.3-.1.5-.1.2,0,.3.3.5.3,0,0,.2,0,.3,0,.3,0,.7.1,1,.1.2,0,.4,0,.4-.2,0-.2,0-.4,0-.5-.1-.1-.3-.2-.5-.2-.2,0-.4.2-.6.3-.1,0-.3,0-.5,0-.3,0-.5-.3-.8-.4-.2,0-.5,0-.6,0-.5-.4-.8-1.1-1.3-1.5-.1-.1-.3-.2-.4-.2h0Z"/><path class="cls-15" d="m16.4,13.3c0-.5.2-.1.5-.5.1-.1-.1-.3-.2-.3-.4.3-.2-.1-.4.4-.1.3-.5,0-.6.4,0,.1-.6.5-.8.7,0,.1-1.2,1.1-.3.8.2,0,.4-.6.9-.8.2,0,.8-.5.8-.7h0Zm1.5-1.1c.7-.3,1.2-1,2.1-.8.7.1,0-.8,1.1-.7.6,0,.8-.4.1-.7-1.2-.5-1.2.9-2,.8-.6,0-1.1.7-1.4,1.1-.5.6-.3.6.2.4h0Zm4.4-1.6c.3.3,1.4-.3,1.8,0,.2.1,0,.4-.1.7-.1.3.2.3.6,0,.6-.5,1.4-1.4,2.3-1.7.4-.1.9-.2.6.1-.1,0-.1.9.7.3,1.5-1.1,1,0,1.2,0,.5.2,1.4-.6,1.6-.1.2.4-.9.6-.3,1,.6.5,1-.9,1.7-.9,0,0,1.3-1.1,1.2.2,0,0-.8.9.2.6.5-.1.5-1.6,1-1.1.2.2-.1.9.2,1.3.1.2-.5,1.4.5,1.2.5,0,.3-1.8.3-2,.2-.6.7-.4,1.1,0,0,0,.3.3.5.3.8-.1,1,.2.9.7,0,.3,0,.7.5,1.3.2.2.6.9.8.5.1-.3.1-.4,0-.7-.1-.2-.3-.5-.3-.7,0-.5,1-.8,1.1,0,0,.2,0,.4.7.4s1.6.5,1.7,1.2c0,.6,1.7.6,1.1-.6-.1-.3.2-.3.5-.2-.1-.2-.3-.5-.5-.7,0,0-.2-.2-.2-.3-.3,0-.5,0-.5.3s.1.4-.3.3c0,0-.8-.8-1.2-.9-.4-.2-1-.9,0-.9.1,0,.7.3,1.1.4-.3-.2-.6-.3-.8-.5-.3-.3-.7-.6-1-.8,0,0,0,0,0,0-.3-.4-.4-.9-.8-1.2-.4-.4-.8-.6-1.3-.8-.4-.2-.9-.2-1.4-.3-.7-.3-1.3-.7-1.9-.9-.8-.2-1.6-.4-2.4-.5-.4,0-.8.1-1.1.1-.3,0-.6,0-.9,0-.2,0-.4-.2-.6-.2-1,0-1.9.1-2.8.3-.2,0-.4.1-.6.2,0,0-.1.1-.2.2,0,0-2.7,0-1.8.7.3.2,1.6-.2,1,.6-.6.8-3.3.4-3.9,1.2,0,0-1.1.4-.5.9.5.5,1.4-.6,2.1-.4.5.1,3.5-1.2,3.5-.4,0,.4-1.6.6-2.7.8-.3,0-1.7.4-1.9.5-.3.1-.5.3-.2.7h0Z"/><path class="cls-14" d="m13.8,40c-.2,0-.4.1-.6.3-.3.2-.4.7-.7.8-.4.1-.8-.3-1.2-.2-.3,0-.3.5-.6.5-.3,0-.6-.2-.7-.5-.1-.2.2-.5.1-.8,0-.3-.3-.5-.3-.7.1-.5.6-1,.8-1.5,0-.2.2-.5,0-.6-.1-.1-.3.2-.5.2-.4,0-.8.3-1.2.1-.3-.1-.5-.5-.5-.8,0-.2.5-.2.6-.4.1-.2,0-.6.1-.8,0-.1.2-.2.4-.2.2,0,.4.3.7.2.3,0,.3-.5.6-.6.3-.1.7.1,1.1,0,.2,0,.2-.3.2-.5,0-.4-.4-.7-.3-1.1,0-.2.4-.2.5-.4.1-.2,0-.5,0-.6.2-.3.4-.5.7-.7.4-.2.9-.1,1.2-.4.2-.3,0-.7,0-1,0-.4.1-.8.3-1.2,0-.1.3,0,.4-.2.3-.3.3-.8.6-1.1,0,0,.1,0,.2-.1-.2,0-.3,0-.4.2-.2.2,0,.7-.4.7,0,0-.5-.3-.7,0-.1.2.1.7,0,.9,0,0-.2,0-.2.2,0,.1,0,.7-.4.9-.3.1-.9-.3-1.1.3,0,.3.3.9-.2,1.1-.1,0-.3,0-.4.1,0,0,0,.3-.1.4-1.6,1.3-2.9.2-4.4,1.5-.7.6-.6,1.2,0,1.1.3,0,.6-.1.7.2,0,.2,0,.4-.2.6-.1.2-.5.4-.8.6,0,0,0,0,0,0,0,.2-.3.3-.4.5,0,.1,0,.3-.1.4,0,0,0,0,0,0,.2,0,.3,0,.5.2.2.1.5.2.5.4,0,.2-.3.4-.3.6,0,.2,0,.4.2.5.4.2.8.3,1.3.4,0,0,.2,0,.2,0,0,.2-.1.4,0,.5,0,.2.4.2.4.4,0,.2-.1.4-.1.6,0,.2,0,.4.2.5.3.4.6.8,1,1.1.2.2.5.5.8.5.3,0,.6-.4.9-.4.2,0,.5,0,.6.3.1.3-.3.7-.2,1,0,0,0,0,0,0,.4-.3.6-.7,1-1.1.6-.6.7.3,1.7-.1.3-.1.6-.4.9-.6.9-.6.9,0,.6.3-.4.4.2.7.3.3.1-.3.2-.8.4-1.2.3-.8.7-1.3,1.1-.8.1.1.3.2.4,0,0-.2.2-.7.4-1.2.2-.8.4-.7.3,0,0,.2,0,.5,0,.7,0,.4.3.5.5,0,.2-.4.4-1.2.5-1.6,0-.3.4-.7.7-.8.3-.1.3,0,.3.2,0,0,0,.2.1.2.5.1,2.2-2.1,2.5-2.6.1-.2.3-.5.4-.6.2-.2,1-.6,1.3-.8.4-.2.9-.3,1.3-.6.3-.2.5-.4.7-.6.2-.2.3-.5.4-.7.2-.3.5-.6.6-.4,0,0,0,0,0-.1,0-.2-.4,0-.5.1-.4.3-.7.8-1.1,1.2-.6.4-1.2.7-1.8,1.1-.3.2-.7.4-1.1.6-.3.2-.4.6-.7.9-.6.5-1.2,1.1-1.9,1.5-.5.3-1.1.2-1.5.4-.2.1-.1.6-.4.7-.3.1-.7-.3-1-.2-.2,0-.3.3-.4.5-.2.3-.1.8-.3,1.1-.2.2-.6.2-.8.4-.4.3-.6.8-1,1.2-.3.3-.7.5-1.1.6-.3,0-.7,0-.9-.2-.2-.2-.2-.5-.3-.7-.2-.3-.4-.7-.7-.8h0Zm-4.8-7.7c.2,0,.6,0,.9,0,.5,0,.4-.5,0-.8-.2-.2-.6-.2-.9-.1,0,0-.1.2-.2.3-.2.1-.7.2-1,.5-.1.1-.3.2-.4.4,0,.2,0,.2,0,.2.5,0,1-.3,1.5-.4h0Z"/><path class="cls-12" d="m21.2,4.2c.8-.1,2.7-1.1,3.8-1.4,1.2-.3,1.7-.3,2.9-.4.4,0,.6-.2.6-.4.2-1.2-2.7-2.8-4.3-1.5-1.3-.7-2.9-.8-3.9.6-.8,1.1-1.3,3.4.9,3.1h0Z"/><path class="cls-18" d="m21.1,1.8c-1,.6-1.2,2.1-.3,2.4.1,0,.2,0,.4,0,.8-.1,2.7-1.1,3.8-1.4,1.1-.3,1.6-.3,2.6-.4,1.1-.7-1.3-1.7-2.1-1.6-.9,0-1,.9-1,1.3-.9-.5-2.3-1-3.4-.3h0Z"/><path class="cls-9" d="m11.6,49.8c-1-1.2-2.6-4-2.1-7.3.5-2.9,2.6-2.8,3.4-2.5,0-2.3.7-4.7,2.4-6.3,2.2-2,4.1.2,3.4,1.9-2.7,6.4-4.6,10.5-1.6,17.8,2.2,5.3,6.6,9.8,11.3,12.2-4.8,1.7-10.8-.5-15.1-5.6-1.4-1.7-2.4-4.4-.9-5.2-.9-.3-2.1-1.5-2.3-2.9-.2-.9.3-2,1.5-2.2h0Z"/><path class="cls-20" d="m17.4,38.5c.1-2.5-1.4-3.5-3-1.4-1.2,1.6-1.2,4.1-.6,5.4-4.8-1.5-3.6,5.4-1.2,8.2-3.5.8-1.3,4.2,1.1,4.4-3,3.6,4,10.4,11.1,11.2,1.2,0,2.4-.2,3.5-.6-4.7-2.4-9.1-6.9-11.3-12.2-2.6-6.2-1.6-10,.4-15h0Z"/><path class="cls-3" d="m5.3,44.5c.7-1.8-.2-4,1.6-11.3.3-1.3.9-2.6,1.3-3.9,0-.3.2-.8-.6-.7-1,.1-2.5,1.8-3,2.6-.9,1.5-.6,2.6,0,3.7-2.4.8-4.3,2.7-4.1,5.4.2,3.6,4,5.5,4.7,4.1h0Z"/><path class="cls-22" d="m3.4,41.1c-2.7,1.3-2.8-1.5-2.1-3.4-.5.8-.7,1.7-.6,2.8.2,3.6,4,5.5,4.7,4.1.7-1.8-.2-4,1.6-11.3.3-1.3.9-2.6,1.3-3.9,0-.3.2-.8-.6-.7-.5,0-1.2.6-1.8,1.2.8-.7,1.4-.9,1.4-.7,0,.3-.6,1.6-1,3.3-.3,1.2.1,2.8-1.2,2.7,1.2,2.2.7,4.8-1.7,5.9h0Z"/><path class="cls-4" d="m15.4,23.4c.3-1.5,1.6-2.9,3-3.7-.9-.5-2.7-2.2-.3-5.2,2.2-2.9,6.8-4.7,8-1.6.7-.8,1.6-1.4,2.6-1.2.4,0,.8.5,1,.9.5-1.7,2.9-4.4,6.1-4,4.3.5,5.1,4.5.7,6.1-3,1.1-5.7.9-9.1,2.4-3.6,1.6-5.2,2.7-7.4,5.9-.4.6-.7,1.3-1.2,1.9-1.8,2.4-3.9,1.2-3.3-1.5h0Z"/><path class="cls-21" d="m19.9,21c0,1.2-1.6,3.6-2.6,4.2-.8.5-1.6.5-2-.5.2,1.7,1.9,2.1,3.4.2.4-.6.7-1.3,1.2-1.9,2.2-3.2,3.8-4.3,7.4-5.9,3.4-1.5,6.1-1.4,9.1-2.4,4.4-1.6,3.6-5.6-.7-6.1-.1,0-.2,0-.3,0,3.7.8,3.7,3.3,1.8,4.9-1.4,1.1-3.7,1.9-5.8,1.6-.8-.1-1.4-.5-1.9-1.4-.5,2.4-3.3,2.5-3.6-.2,0,4.3-4.1,7.1-7.1,6.4.8.3,1.1.7,1.1,1.3h0Z"/><path class="cls-6" d="m63.2,22.2c2.5-4.8-3.4-9.6-6.6-5.8-1-2.4-5.6-3.1-7.3-.9-.6.8-.9,2-.6,3.2-1.4-.9-2.8,0-3,2.1-4.6-1.1-11.4,1.4-13.9,7.4-2.2,5.2.3,9,4.2,8.7,4-.4,4.8-5.1,6.5-8,1-1.7,2.5-4,4.5-2.6.7.5,2.3,1.7,3.9.5,1.8-1.3,3.1-3.9,5.7-5.6,2.8-1.8,5.8-2.2,6.7,1h0Z"/><path class="cls-19" d="m45.4,22.8c-3.1,1.4-4.1,5-5.9,7.7-3.3,4.9-8.5,5.7-8.3-.6-1.1,4.3,1.3,7.4,4.8,7,4-.4,4.8-5.1,6.5-8,1-1.7,2.5-4,4.5-2.6.7.5,2.3,1.7,3.9.5,1.8-1.3,3.1-3.9,5.7-5.6,2.8-1.8,5.8-2.2,6.7,1,1.4-2.7.1-5.4-1.8-6.6.7.8,1.4,2,.2,2.7-1.2.7-3.9-.4-5-1.2,0,3.7-3.6,4.5-6.5,2.8.7.5,1.3,1,1.7,1.5,1.4,2.1-.8,3.6-2.4,3.1-.5-.2-.9-.5-1.2-1.2-.5-1.1-1.7-.9-2.8-.5h0Z"/><path class="cls-7" d="m67.2,23.8c-.2-.3-.6-.5-.9-.5-.3,0-.5.4-.6.7,0,1,1.6,3.8,1.2,7-.1.8-.4,1.4-.2,1.5.2.1.7,0,1.5-.8,1.5-1.2,2.7-3.3,1.3-4.8-.5-.5-1.1-.9-1.8-1.1.1-.8,0-1.4-.5-2.1h0Z"/><path class="cls-17" d="m69.1,28.5c-.1-1.1-1.2-2-2.3-2.2.2-1-.5-2.2-1-1.7.3,1.3,1.5,3.7,1.1,6.4-.1.8-.4,1.4-.2,1.5.1,0,.4,0,.8-.2,1.1-1,1.8-2.5,1.6-3.8h0Z"/><path class="cls-5" d="m46.7,63.6c-9.7,7.2-18.2-6.8-11.1-9.5-1.9-6.2,2.5-13.7,7.1-12.6,1.1.3,2.1,1.2,2.3,3.1,1.1-4.1,7.1-7.5,7.8-3.1,3.2-5.8,10.9-5.4,8.7,3.8-.9,3.9-2.3,6.1-4.1,8.2-3.3,3.8-10.4,3-4.7-3.5.4-.4,1.2-1.4,1.9-2.5,1.6-2.3,1.9-5.2-1.6-3.8-.9.4-2.3,1.5-3,1.9-1.8.9-2.7.8-4.4,1.8-4.7,2.9-3.2,5-2.9,7.6.2,1.7-.3,2.3-.9,2.7-1.7,1.1-3,2.8-1.6,4.9,1.1,1.8,4.4,2.2,6.5,1h0Z"/><path class="cls-16" d="m40.3,62.6c-1.4-2.1-.1-3.7,1.6-4.9.6-.4,1.1-1,.9-2.7-.3-2.6-1.8-4.8,2.9-7.6,1.7-1,2.6-.9,4.4-1.8.7-.4,2.1-1.5,3-1.9,3.5-1.4,3.2,1.5,1.6,3.8-.8,1.1-1.6,2.1-1.9,2.5-4.1,4.8-1.5,6.5,1.5,5.6.9-.3,1.6-.7,2.2-1.4,3.2-3.4,5.3-10.1,1.8-12.8-1.4-1.1-3.6-.9-5.8,1.9.9-4.8-6.4-1-7.6,3.6-.1-5.6-4.9-3.4-6,1.1-.6,2.7-.1,5.3.8,7.5-1.7-.2-3.1.5-3.5,1.8-1.7,4.5,5.2,9.4,10.6,6.2-2.1,1.2-5.3.8-6.5-1h0Z"/></g></g></g></svg>