<?xml version="1.0" encoding="UTF-8"?><svg xmlns="http://www.w3.org/2000/svg" xmlns:xlink="http://www.w3.org/1999/xlink" viewBox="0 0 96.4 54"><defs><style>.cls-1{fill:url(#radial-gradient-5);}.cls-1,.cls-2,.cls-3,.cls-4,.cls-5,.cls-6,.cls-7,.cls-8,.cls-9,.cls-10,.cls-11,.cls-12,.cls-13,.cls-14{fill-rule:evenodd;stroke-width:0px;}.cls-1,.cls-2,.cls-6,.cls-10{mix-blend-mode:multiply;}.cls-1,.cls-15{opacity:.5;}.cls-2{fill:url(#New_Gradient_Swatch_67);}.cls-3{fill:url(#linear-gradient);}.cls-4{fill:url(#radial-gradient);}.cls-5{fill:url(#linear-gradient-2);}.cls-6{fill:url(#New_Gradient_Swatch_67-2);}.cls-7{fill:url(#radial-gradient-2);}.cls-8{fill:url(#radial-gradient-7);}.cls-15,.cls-11,.cls-12,.cls-13,.cls-14{mix-blend-mode:screen;}.cls-9{fill:#6c6c2e;}.cls-10{fill:url(#radial-gradient-4);}.cls-16{isolation:isolate;}.cls-11{fill:url(#radial-gradient-3);}.cls-12{fill:url(#radial-gradient-6);}.cls-13{fill:url(#radial-gradient-8);}.cls-14{fill:url(#radial-gradient-9);}</style><linearGradient id="linear-gradient" x1="-1.2" y1="31.3" x2="93.7" y2="11.1" gradientTransform="translate(96.4) rotate(-180) scale(1 -1)" gradientUnits="userSpaceOnUse"><stop offset="0" stop-color="#87e300"/><stop offset="1" stop-color="#13a300"/></linearGradient><radialGradient id="radial-gradient" cx="37" cy="15.6" fx="37" fy="15.6" r="43.4" gradientTransform="translate(96.4) rotate(-180) scale(1 -1)" gradientUnits="userSpaceOnUse"><stop offset="0" stop-color="#23d1d1"/><stop offset=".1" stop-color="#1cc4c4"/><stop offset=".3" stop-color="#0da4a4"/><stop offset=".5" stop-color="#008a8a"/><stop offset=".9" stop-color="#004242"/></radialGradient><radialGradient id="radial-gradient-2" cx="38.5" cy="17" fx="38.5" fy="17" r="42.1" gradientTransform="translate(96.4) rotate(-180) scale(1 -1)" gradientUnits="userSpaceOnUse"><stop offset="0" stop-color="#dede00"/><stop offset=".2" stop-color="#d1d100"/><stop offset=".4" stop-color="#b1b100"/><stop offset=".5" stop-color="#abab00"/><stop offset=".5" stop-color="#a5a500"/><stop offset=".8" stop-color="#7d7d00"/><stop offset=".9" stop-color="#6e6e00"/></radialGradient><radialGradient id="radial-gradient-3" cx="49.8" cy="29.7" fx="49.8" fy="29.7" r="30.1" gradientTransform="translate(96.4) rotate(-180) scale(1 -1)" gradientUnits="userSpaceOnUse"><stop offset="0" stop-color="#000"/><stop offset=".8" stop-color="#000"/><stop offset=".9" stop-color="#2e2e15"/><stop offset=".9" stop-color="#6e6e33"/><stop offset="1" stop-color="#9d9d49"/><stop offset="1" stop-color="#baba56"/><stop offset="1" stop-color="#c5c55c"/></radialGradient><radialGradient id="radial-gradient-4" cx="43.5" cy="18.3" fx="43.5" fy="18.3" r="37.7" gradientTransform="translate(96.4) rotate(-180) scale(1 -1)" gradientUnits="userSpaceOnUse"><stop offset=".6" stop-color="#fff"/><stop offset=".7" stop-color="#fcfcfa"/><stop offset=".7" stop-color="#f5f5ee"/><stop offset=".8" stop-color="#e9e9d9"/><stop offset=".8" stop-color="#d8d8bc"/><stop offset=".9" stop-color="#c2c297"/><stop offset=".9" stop-color="#a7a769"/><stop offset="1" stop-color="#883"/><stop offset="1" stop-color="#7a7a1b"/></radialGradient><radialGradient id="radial-gradient-5" cx="23.2" cy="5.3" fx="23.2" fy="5.3" r="89.5" gradientTransform="translate(96.4) rotate(-180) scale(1 -1)" gradientUnits="userSpaceOnUse"><stop offset="0" stop-color="#848431"/><stop offset="1" stop-color="#fff"/></radialGradient><radialGradient id="radial-gradient-6" cx="16.2" cy="2.7" fx="16.2" fy="2.7" r="48" gradientTransform="translate(96.4) rotate(-180) scale(1 -1)" gradientUnits="userSpaceOnUse"><stop offset="0" stop-color="#c5c55c"/><stop offset="1" stop-color="#000a00"/></radialGradient><radialGradient id="radial-gradient-7" cx="35.9" cy="11.4" fx="35.9" fy="11.4" r="38.5" gradientTransform="translate(96.4) rotate(-180) scale(1 -1)" gradientUnits="userSpaceOnUse"><stop offset="0" stop-color="#72d6d3"/><stop offset="1" stop-color="#000"/></radialGradient><linearGradient id="linear-gradient-2" x1="1.6" y1="45" x2="97.4" y2="24.6" xlink:href="#linear-gradient"/><radialGradient id="New_Gradient_Swatch_67" cx="24.7" cy="71.6" fx="24.7" fy="71.6" r="53.5" gradientTransform="translate(96.4) rotate(-180) scale(1 -1)" gradientUnits="userSpaceOnUse"><stop offset="0" stop-color="#093"/><stop offset="1" stop-color="#fff"/></radialGradient><radialGradient id="radial-gradient-8" cx="14.8" cy="47.1" fx="14.8" fy="47.1" r="39.6" gradientTransform="translate(96.4) rotate(-180) scale(1 -1)" gradientUnits="userSpaceOnUse"><stop offset="0" stop-color="#8fe561"/><stop offset="1" stop-color="#000"/></radialGradient><radialGradient id="New_Gradient_Swatch_67-2" cx="99.8" cy="46.5" fx="99.8" fy="46.5" r="40.2" xlink:href="#New_Gradient_Swatch_67"/><radialGradient id="radial-gradient-9" cx="82.1" cy="41.8" fx="82.1" fy="41.8" r="41.7" xlink:href="#radial-gradient-8"/></defs><g class="cls-16"><g id="Layer_2"><g id="Layer_1-2"><path class="cls-3" d="m29.5,11.4l-3.8,3.6c-4.2,0-9.8.7-12.6,4.1l-11.6-2.5c2.2-2.3,6.4-3.7,10-4.4,6.2-1.2,12.1-1.3,18-.8h0Zm55,22.9c.2-4.5-6.3-8.1-10-9.6l-1-4.4c8.1,2.2,17.6,6.9,21.6,13,.8,1.3,1.2,2.5,1.2,3.5l-11.8-2.5h0Z"/><path class="cls-9" d="m73.9,20.5c-.4-.7-1.4-1.3-1.8-1.3l-1.8,14.7c3.2-2.6,4.4-5.4,4.3-8.7,0-1.5-.1-3.3-.8-4.7h0Z"/><path class="cls-9" d="m72.5,38.3c.6-2.6-.7-3.5-3.5-4.2-11.8-2.8-48.1-4.8-42.6,7.1.3.7.8,1.3,1.3,1.8.7.8,1.6,1.4,2.4,2.2,5.7,5.4,11.1,6.9,19.1,5.5,5.6-1,21.9-6.2,23.3-12.4h0Z"/><path class="cls-9" d="m22.5,24.6c.3-1,.9-2,1.8-3C31.7,13.7,55.3,2.5,63.3,4.9c6,4.9,6.7,9.2,4.7,13.4-8.2,17.6-46,25.2-45.6,6.2h0Z"/><path class="cls-4" d="m48.6,1.3c-14.1,0-25.5,11.4-25.5,25.5s11.4,25.5,25.5,25.5,25.5-11.4,25.5-25.5S62.7,1.3,48.6,1.3h0Z"/><path class="cls-7" d="m60.8,3.3c.4.2.8.6,1.1.9.1.1.2.3.3.4,0,.1,0,.2,0,.3,0,.1-.3.2-.3.4,0,0,0,.2,0,.3.3.3.6.6.9.9.5.5,1,.9,1.4,1.5.4.5,1.1,2.3.8,3-.1.3-.4.6-.6.8-.6.4-1.9.6-2.7,1.1-.5.3-1,.7-1.4,1.2-.3.4-.5.9-.9,1.2-.9.8-1.9,1.7-3.1,1.9-.8.2-1.7.2-2.4.5-.7.3-1.2.9-1.8,1.4-2.3,1.9-3.2,3.5-6.5,3-1.5-.2-2.9-1.4-4.2-2.1-1.9-1-2.1-.5-3.8-.7-.4,0-.9,0-1.3-.3-1.2-.8-1.6-2-2.4-3-.3-.4-.8-.7-1.2-1-.6-.4-1.3-.7-1.8-1.2-.9-.9.4-3.2.7-4.1,0-.2,0-.4,0-.6,0-.2,0-.4-.1-.5-.2-.3-.7-.4-.9-.5,0,0,0-.2,0-.3,0-.2.2-.4.4-.6.7-.6,1.4-1.2,2.2-1.8,1.1-.8,2.3-1.6,3.5-2.3.8-.4,1.6-.9,2.4-1.2,1-.3,2-.5,3-.7,1-.3,2-.6,3.1-.8.5,0,1.1,0,1.6,0,.5,0,1.1,0,1.6-.1.7,0,1.6-.4,2-.3.3,0,2.1.5,3.1.7.8.2,1.6.2,2.4.4.9.3,1.8.7,2.7,1,.8.3,1.6.6,2.3,1.1h0Zm-33.4,7.7c.3-.3.6-.7,1-1,.1-.1,1.1-.7.9,0-.3.9-.8,1.9-1.1,2.9-.2.8-.2,1.4.6,1.8.8.4,1.5.4,1.8,1.4.4,1.1.6,2.2,1,3.2.5,1.4.9,1.6,1.7,2.6.1.2.3.3.3.6,0,.6-.9,1.7-1.4,1.9-1.1.3-2.3,0-3.4-.3-1-.3-1.4-1-2.1-1.4-.7-.4-2.5,0-2.9-.7-.3-.4-.3-.9-.4-1.4-.1-1,.1-2,.1-3,0-.2.5-.9.7-1.3.2-.5.5-1.3.5-1.4.2-.3.5-.6.7-.9.1-.2.1-.4.3-.6.5-.8,1.1-1.5,1.7-2.3h0Zm35.9-6.1c.9,1,1.8,2.9,2.2,3.2,1,.7,1.6.9,2.1,2.2.1.3.2.6.2,1s-.1.3-.2.4c-.8.6-1,.6-.8,1.4,0,.3.1.6.1,1,0,.1,0,.3-.1.4-.1.1-.3.2-.5.2-.5,0-1,0-1.6,0-.6,0-.7.4-1,.9-.2.3-.3.7-.5,1-.2.2-.4.4-.6.6-.4.7-.6,1.5-1,2.2-.1.2-.3.4-.6.5-.3.1-.7,0-1,.2-.3.1-.7.2-.9.4-.4.4-.6.9-1,1.3-.5.6-1.1,1.1-1.8,1.5-.3.2-.7.2-1,.3-.5.1-1,.1-1.5.2-.3,0-.7.2-1,.4-.5.4-1,.9-1.5,1.4-.7.8-1.2,1.8-2,2.4-.6.5-1.3.8-2,1-.9.3-1.8.4-2.8.5-.6,0-1.3,0-1.8-.3-1.2-.4-2.3-1.2-3.5-1.6-.7-.3-1.5-.4-2.2-.4-.8,0-1.7,0-2.5,0-.7,0-1.4.3-2,.5-1.3.4-2.5,1-3.7,1.4-.7.2-1.4.5-2.2.5-.4,0-.8-.2-1.1-.4-1-.8-1.1-1.5-1.5-2.5,0-.2-.2-.5-.3-.7,0-.1-.2-.3-.3-.4-.1,0-.4,0-.6,0-.4-.2-.5-.6-.4-1.1-.3.7-.2,3-.2,3.7,0,.7-.3,1.8-.4,2.2,0,.2.6,1.2.8,1.9.3.9.2,1.9.6,2.8.2.7.7,1.2,1.1,1.8.3.5.5,1.1.8,1.6,1.4,2.2,3,2.4,5.3,2,3.2-.5,4.9-.7,8.3-.7,5.5,0,6.8,1.2,11.2,2.5,1,.3,2.1.5,3.2.6,2.4.1,4.6-.7,6.8-1.7,1.8-.8,3.9-2.1,5.1-3.6.7-.8,1-1.8,1.6-2.7.6-.9,1.1-1.9,1.7-2.7.6-.8,1.4-1.5,2.1-2.3.3-.4.7-.7,1-1.1.3-.4.6-.8.7-1.3.4-1.6.7-3.9.7-5.5s-.2-1.3,0-2c.1-.5.6-.8.4-1.7,0-.6-.4-1.2-.6-1.9-.1-.5,0-1.1-.3-1.6-.3-.7-.8-1.4-1.2-2-.2-.3-.3-.5-.5-.8-.2-.4-.3-.7-.6-1.1-.2-.2-.5-.3-.7-.5-.5-.4-.8-1.1-1.3-1.6-.3-.3-.7-.6-1-.9-.2-.3-.4-.6-.7-.9-.7-.7-1.6-1.2-3.1-2.1h0Zm-18.3,37.8c.7-.1,1.1-.2,1.8,0,.9.3,2,.8,2.8,1.3.7.4,1.1,1,.4,1.8-1.3,1.5-4.9,2.4-7.5,1.9-1.3-.3-2.8-1-4.1-1.2-.7,0-1.3,0-2,0-.5,0-1-.3-1.5-.6-.8-.4-2.8-1.4-3.1-2.4,0-.3,0-.6,0-.8,0-.2.3-.3.4-.4,1.4-.5,3.5-.8,5-.8.6,0,1.1,0,1.7.1.3,0,1.3.9,1.9,1.1,1.8.6,2.4.2,4.1-.1h0Zm27.5-4.7s-1.3,1.8-2.9,2.5c-.5.2-1.1.5-1.6.7-1,.4-2,.7-3,1-1.1.3-2.3.4-3.4.8-.6.2-1,.8-1.5.8-.4,0-2.1,0-4,.7-3,1.2-5.2,2.6-8,3.9-.7.3-1.5.6-2.2.8-.7.1-1.4.2-2,.2-.7,0-1.4-.3-2.1-.4-.9-.2-1.7-.3-2.6-.6-.3,0-.6-.3-1-.4-.4,0-.8.1-1.2.1-.5,0-1.1.1-1.6,0-.5-.1-.9-.3-1.4-.6-.5-.4-1-.8-1.5-1.3-.7-.6-1.5-1.2-2.2-1.7-.6-.5-1.3-.9-1.9-1.4-.8-.7-1.2-1.3-1.9-2-.2-.3-.2,0-.1,0,.5.8,1,2,1.6,2.7.2.3.6.5.9.8,2.2,2.4,5.2,5.6,8.4,6.6.1,0,1.3.2,2,.3.8.2,1.6.6,2.3.9,1.3.5,2.6,1.1,4,1.4.9.2,3.5-.4,4.7-.4,1.1,0,3.1.2,3.2,0,1.2-.5,3-1.3,4.6-1.9.5-.2,1.5-.4,1.5-.5.8-.4,1.4-.9,2.2-1.3,1-.5,2.1-.8,3-1.4.9-.6,1.6-1.4,2.3-2.1,1.3-1.3,2.6-2.6,3.7-4,.7-1,1.1-2.2,1.6-3.4.1-.3.3-1,.2-1h0Zm1.4-17.5c.7,1.2,1.1,2.9,1.3,3.9,0,.5,0,1,0,1.5,0,.6.2,1.1.2,1.7,0,1-.1,2.1-.3,3.1-.2,1.1-.4,2.3-.9,3.3-.1.3-.5.3-.7.5-.4.4-.8.8-1.1,1.3-.4.5-.5,1.2-.9,1.7-.3.4-.8.6-1.2.8-.3.1-.7.4-1,.3-.3-.2-.5-.6-.5-1,0-.6.3-1.1.5-1.6.2-.7.2-1.5.6-2.1.4-.7,1.1-1.2,1.6-1.8.3-.3.6-.6.8-1,.4-.8.6-1.7,1-2.6.2-.6.6-1.1.7-1.7.2-1-.2-1.5-.2-2.5,0-1.2.9-2.2.3-3.7h0Z"/><path class="cls-11" d="m60.8,3.3c.4.2.8.6,1.1.9.1.1.2.3.3.4,0,.1,0,.2,0,.3,0,.1-.3.2-.3.4,0,0,0,.2,0,.3.3.3.6.6.9.9.5.5,1,.9,1.4,1.5.4.5,1.1,2.3.8,3-.1.3-.4.6-.6.8-.6.4-1.9.6-2.7,1.1-.5.3-1,.7-1.4,1.2-.3.4-.5.9-.9,1.2-.9.8-1.9,1.7-3.1,1.9-.8.2-1.7.2-2.4.5-.7.3-1.2.9-1.8,1.4-2.3,1.9-3.2,3.5-6.5,3-1.5-.2-2.9-1.4-4.2-2.1-1.9-1-2.1-.5-3.8-.7-.4,0-.9,0-1.3-.3-1.2-.8-1.6-2-2.4-3-.3-.4-.8-.7-1.2-1-.6-.4-1.3-.7-1.8-1.2-.9-.9.4-3.2.7-4.1,0-.2,0-.4,0-.6,0-.2,0-.4-.1-.5-.2-.3-.7-.4-.9-.5,0,0,0-.2,0-.3,0-.2.2-.4.4-.6.7-.6,1.4-1.2,2.2-1.8,1.1-.8,2.3-1.6,3.5-2.3.8-.4,1.6-.9,2.4-1.2,1-.3,2-.5,3-.7,1-.3,2-.6,3.1-.8.5,0,1.1,0,1.6,0,.5,0,1.1,0,1.6-.1.7,0,1.6-.4,2-.3.3,0,2.1.5,3.1.7.8.2,1.6.2,2.4.4.9.3,1.8.7,2.7,1,.8.3,1.6.6,2.3,1.1h0Zm-33.4,7.7c.3-.3.6-.7,1-1,.1-.1,1.1-.7.9,0-.3.9-.8,1.9-1.1,2.9-.2.8-.2,1.4.6,1.8.8.4,1.5.4,1.8,1.4.4,1.1.6,2.2,1,3.2.5,1.4.9,1.6,1.7,2.6.1.2.3.3.3.6,0,.6-.9,1.7-1.4,1.9-1.1.3-2.3,0-3.4-.3-1-.3-1.4-1-2.1-1.4-.7-.4-2.5,0-2.9-.7-.3-.4-.3-.9-.4-1.4-.1-1,.1-2,.1-3,0-.2.5-.9.7-1.3.2-.5.5-1.3.5-1.4.2-.3.5-.6.7-.9.1-.2.1-.4.3-.6.5-.8,1.1-1.5,1.7-2.3h0Zm35.9-6.1c.9,1,1.8,2.9,2.2,3.2,1,.7,1.6.9,2.1,2.2.1.3.2.6.2,1s-.1.3-.2.4c-.8.6-1,.6-.8,1.4,0,.3.1.6.1,1,0,.1,0,.3-.1.4-.1.1-.3.2-.5.2-.5,0-1,0-1.6,0-.6,0-.7.4-1,.9-.2.3-.3.7-.5,1-.2.2-.4.4-.6.6-.4.7-.6,1.5-1,2.2-.1.2-.3.4-.6.5-.3.1-.7,0-1,.2-.3.1-.7.2-.9.4-.4.4-.6.9-1,1.3-.5.6-1.1,1.1-1.8,1.5-.3.2-.7.2-1,.3-.5.1-1,.1-1.5.2-.3,0-.7.2-1,.4-.5.4-1,.9-1.5,1.4-.7.8-1.2,1.8-2,2.4-.6.5-1.3.8-2,1-.9.3-1.8.4-2.8.5-.6,0-1.3,0-1.8-.3-1.2-.4-2.3-1.2-3.5-1.6-.7-.3-1.5-.4-2.2-.4-.8,0-1.7,0-2.5,0-.7,0-1.4.3-2,.5-1.3.4-2.5,1-3.7,1.4-.7.2-1.4.5-2.2.5-.4,0-.8-.2-1.1-.4-1-.8-1.1-1.5-1.5-2.5,0-.2-.2-.5-.3-.7,0-.1-.2-.3-.3-.4-.1,0-.4,0-.6,0-.4-.2-.5-.6-.4-1.1-.3.7-.2,3-.2,3.7,0,.7-.3,1.8-.4,2.2,0,.2.6,1.2.8,1.9.3.9.2,1.9.6,2.8.2.7.7,1.2,1.1,1.8.3.5.5,1.1.8,1.6,1.4,2.2,3,2.4,5.3,2,3.2-.5,4.9-.7,8.3-.7,5.5,0,6.8,1.2,11.2,2.5,1,.3,2.1.5,3.2.6,2.4.1,4.6-.7,6.8-1.7,1.8-.8,3.9-2.1,5.1-3.6.7-.8,1-1.8,1.6-2.7.6-.9,1.1-1.9,1.7-2.7.6-.8,1.4-1.5,2.1-2.3.3-.4.7-.7,1-1.1.3-.4.6-.8.7-1.3.4-1.6.7-3.9.7-5.5s-.2-1.3,0-2c.1-.5.6-.8.4-1.7,0-.6-.4-1.2-.6-1.9-.1-.5,0-1.1-.3-1.6-.3-.7-.8-1.4-1.2-2-.2-.3-.3-.5-.5-.8-.2-.4-.3-.7-.6-1.1-.2-.2-.5-.3-.7-.5-.5-.4-.8-1.1-1.3-1.6-.3-.3-.7-.6-1-.9-.2-.3-.4-.6-.7-.9-.7-.7-1.6-1.2-3.1-2.1h0Zm-18.3,37.8c.7-.1,1.1-.2,1.8,0,.9.3,2,.8,2.8,1.3.7.4,1.1,1,.4,1.8-1.3,1.5-4.9,2.4-7.5,1.9-1.3-.3-2.8-1-4.1-1.2-.7,0-1.3,0-2,0-.5,0-1-.3-1.5-.6-.8-.4-2.8-1.4-3.1-2.4,0-.3,0-.6,0-.8,0-.2.3-.3.4-.4,1.4-.5,3.5-.8,5-.8.6,0,1.1,0,1.7.1.3,0,1.3.9,1.9,1.1,1.8.6,2.4.2,4.1-.1h0Zm27.5-4.7s-1.3,1.8-2.9,2.5c-.5.2-1.1.5-1.6.7-1,.4-2,.7-3,1-1.1.3-2.3.4-3.4.8-.6.2-1,.8-1.5.8-.4,0-2.1,0-4,.7-3,1.2-5.2,2.6-8,3.9-.7.3-1.5.6-2.2.8-.7.1-1.4.2-2,.2-.7,0-1.4-.3-2.1-.4-.9-.2-1.7-.3-2.6-.6-.3,0-.6-.3-1-.4-.4,0-.8.1-1.2.1-.5,0-1.1.1-1.6,0-.5-.1-.9-.3-1.4-.6-.5-.4-1-.8-1.5-1.3-.7-.6-1.5-1.2-2.2-1.7-.6-.5-1.3-.9-1.9-1.4-.8-.7-1.2-1.3-1.9-2-.2-.3-.2,0-.1,0,.5.8,1,2,1.6,2.7.2.3.6.5.9.8,2.2,2.4,5.2,5.6,8.4,6.6.1,0,1.3.2,2,.3.8.2,1.6.6,2.3.9,1.3.5,2.6,1.1,4,1.4.9.2,3.5-.4,4.7-.4,1.1,0,3.1.2,3.2,0,1.2-.5,3-1.3,4.6-1.9.5-.2,1.5-.4,1.5-.5.8-.4,1.4-.9,2.2-1.3,1-.5,2.1-.8,3-1.4.9-.6,1.6-1.4,2.3-2.1,1.3-1.3,2.6-2.6,3.7-4,.7-1,1.1-2.2,1.6-3.4.1-.3.3-1,.2-1h0Zm1.4-17.5c.7,1.2,1.1,2.9,1.3,3.9,0,.5,0,1,0,1.5,0,.6.2,1.1.2,1.7,0,1-.1,2.1-.3,3.1-.2,1.1-.4,2.3-.9,3.3-.1.3-.5.3-.7.5-.4.4-.8.8-1.1,1.3-.4.5-.5,1.2-.9,1.7-.3.4-.8.6-1.2.8-.3.1-.7.4-1,.3-.3-.2-.5-.6-.5-1,0-.6.3-1.1.5-1.6.2-.7.2-1.5.6-2.1.4-.7,1.1-1.2,1.6-1.8.3-.3.6-.6.8-1,.4-.8.6-1.7,1-2.6.2-.6.6-1.1.7-1.7.2-1-.2-1.5-.2-2.5,0-1.2.9-2.2.3-3.7h0Z"/><path class="cls-10" d="m42.7,2c-1.3,1-2.8,3.2-4.1,3.9-.5.2-3.6,0-3.4.9.1.5,1.1.6,1.7.8.8.3.6.9.2,1.2-1.2.8-2.5,1.4-3.6,2.3-.8.6-1.5,1.4-2.1,2.2-.1.2-.2.4-.3.6,0,0,0,0-.1-.1-.9-.9.4-3.2.7-4.1,0-.2,0-.4,0-.6,0-.2,0-.4-.1-.5-.2-.3-.7-.4-.9-.5,0,0,0-.2,0-.3,0-.2.2-.4.4-.6.7-.6,1.4-1.2,2.2-1.8,1.1-.8,2.3-1.6,3.5-2.3.8-.4,1.6-.9,2.4-1.2,1-.3,2-.5,3-.7,1-.3,2-.6,3.1-.8.5,0,1.1,0,1.6,0,.5,0,1.1,0,1.6-.1.7,0,1.6-.4,2-.3.3,0,2.1.5,3.1.7.8.2,1.6.2,2.4.4.9.3,1.8.7,2.7,1,.8.3,1.6.6,2.3,1.1-1.7-.8-2.2-.7-3.5-1.1-2.9-1.1-2-.5-4.5-.8-.6,0-1-.5-1.6-.6-.5,0-.9.2-1.3.3-1.7.6-1.2.8-3.3.7-.8,0-1.5-.3-2.3-.3-.6,0-1.1.2-1.6.6h0Zm-14.5,10.9c-.2.8-.2,1.4.6,1.8.5.3,1,.4,1.4.8-.8.9-2,1.8-2.4,2.5-.2.4-.4.9-.3,1.4.2,1.2.8,2.4,1.1,3.6,0,.4.2.7.2,1.1-1-.3-1.4-1-2.1-1.4-.7-.4-2.5,0-2.9-.7-.3-.4-.3-.9-.4-1.4-.1-1,.1-2,.1-3,0-.2.5-.9.7-1.3.2-.5.5-1.3.5-1.4.2-.3.5-.6.7-.9.1-.2.1-.4.3-.6.5-.8,1.1-1.5,1.7-2.3.3-.3.6-.7,1-1,.1-.1,1.1-.7.9,0-.3.9-.8,1.9-1.1,2.9h0Zm-2.6,16.4c.3.3.7.4,1.1.4.6,0,1.1-.2,1.6-.3-.1,1.4,0,2.8,1.2,4.3.6.8,1.6,1.3,2.3,2,.7.6,1.3,1.2,1.9,1.8.7.7,1.2,1.5,1.7,2.3-1.6,0-3,.3-5,.6-2.4.4-3.9.1-5.3-2-.3-.5-.5-1.1-.8-1.6-.3-.6-.8-1.2-1.1-1.8-.3-.9-.3-1.9-.6-2.8-.2-.7-.8-1.7-.8-1.9,0-.4.3-1.4.4-2.2,0-.7,0-3,.2-3.7,0,.5,0,1,.4,1.1.2,0,.4,0,.6,0,.1,0,.2.2.3.4.1.2.2.4.3.7.4,1,.5,1.7,1.5,2.5h0Zm6.8,13.1c1.2-.4,2.9-.7,4.3-.8,0,0,0,0,0,0,.9,1.2,2.1,2.2,3.5,2.8.9.4,1.9.4,2.8.7,1.4.4,3.5,1.4,5.2,1.9-1.7.7-3.9,1.1-5.8.7-1.3-.3-2.8-1-4.1-1.2-.7,0-1.3,0-2,0-.5,0-1-.3-1.5-.6-.8-.4-2.8-1.4-3.1-2.4,0-.3,0-.6,0-.8,0-.2.3-.3.4-.4h0Zm6.8,6.1c.9.2,1.7.4,2.6.6.7.1,1.4.4,2.1.4.7,0,1.4,0,2-.2.8-.2,1.5-.4,2.2-.8.9-.4,1.8-.9,2.7-1.4,1.9-.5,3.4-1.3,5.7-1.5.8,0,1.6.2,2.3,0,1.2-.3,2.4-.7,3.5-1.3,1.7-1,2.7-1.5,3.5-2.3.7-.2,1.5-.5,2.2-.8.5-.2,1.1-.4,1.6-.7,1.6-.8,2.9-2.5,2.9-2.5.1,0,0,.7-.2,1-.5,1.1-.8,2.4-1.6,3.4-1.1,1.5-2.4,2.7-3.7,4-.7.8-1.5,1.6-2.3,2.1-.9.6-2,.9-3,1.4-.8.4-1.4.9-2.2,1.3,0,0-1.1.3-1.5.5-1.5.6-3.4,1.4-4.6,1.9-.2,0-2.2-.1-3.2,0-1.1,0-3.8.6-4.7.4-1.4-.3-2.7-.9-4-1.4-.8-.3-1.5-.7-2.3-.9-.6-.2-1.8-.3-2-.3-3.2-1.1-6.1-4.3-8.4-6.6-.3-.3-.6-.5-.9-.8-.5-.7-1.1-1.9-1.6-2.7,0,0-.1-.3.1,0,.7.7,1.1,1.4,1.9,2,.6.5,1.2,1,1.9,1.4.7.6,1.5,1.2,2.2,1.7.5.4,1,.9,1.5,1.3.4.3.9.5,1.4.6.5.1,1.1,0,1.6,0,.4,0,.8-.2,1.2-.1.4,0,.7.3,1,.4h0Zm30.6-12.4c.5-.7,1.4-1.1,1.8-1.8,1.7-3.1,2.1-4.5,2-6.9.1-.2.2-.4.2-.7.2-1-.2-1.5-.2-2.5,0-1.2.9-2.2.3-3.7.7,1.2,1.1,2.9,1.3,3.9,0,.5,0,1,0,1.5,0,.6.2,1.1.2,1.7,0,1-.1,2.1-.3,3.1-.2,1.1-.4,2.3-.9,3.3-.1.3-.5.3-.7.5-.4.4-.8.8-1.1,1.3-.4.5-.5,1.2-.9,1.7-.3.4-.8.6-1.2.8-.3.1-.7.4-1,.3-.3-.1-.4-.4-.5-.8.3-.6.7-1.1,1.1-1.7h0Z"/><path class="cls-1" d="m71,18.7c-.4-.9-2.4.6-2.7,1-1,1.5-.5,3-.9,4.6-.3,1.2-1.1,1.7-1.5,2.2,0,.1,0,.4,0,.4.2.1.4.1.6,0,1.1-.5,2.5-1.4,3-2.5.6-1.2.2-2.5.4-3.3.1-.4.5-.6.8-1,.4-.5.3-1,.1-1.5h0Zm-16.3-13.9c.2-.5,2.1-1.2.9-2.4-.3-.3-.7-.6-1.3-.9-.9-.5-1.8-.8-2.8-1.1.6.2,1.3.3,1.9.5,0,0,.2,0,.3,0,.6.1,1.1.2,1.6.5,2.2.9,4,1.9,4.4,2.6,0,0,0,0,0,.1,0,.2-.1.4-.3.4-1.1.3-2.2.3-3.4.5-.4,0-.5.2-.5.3,0,.2.1.3.3.4,1.3.7,5.4,3.1,4.7,5.2-.3,1-3.4,0-5.5,1.7-.7.6-1.1,1.6-1.8,2.2-1.9,1.6-3.9-.3-6.3.4-.8.2-1.4,1-2.2,1.4-1.6.7-3.7.1-4.9-1.1-.6-.6-.2-1.6-.6-2.3-.3-.4-.6-.8-1.1-1.1-1.3-.9-3.1-1.3-3-2.6,0-1,1.5-2.3,1.5-3.1,0-.7-.3-1.2-.4-1.8,0-.5,0-.9.7-1.5.2-.2.5-.4.8-.5.4-.2.9-.4,1.3-.6.9-.3,1.8-.4,2.7-.6-.2,0-.3.1-.5.2-.9.3-3.1,1.1-3.5,2.4,0,.3,0,.6,0,1,.2.5,2.3,1.8,1.3,2.4-3.6,2.2-1.5,2,0,3.9,0,0,.1.2.2.3,1.1,1.7.1,3.1,4.1,2.8.9,0,2.9-.7,3.6-.6,1.4,0,2.7.6,4.1.6s1.1-.3,1.6-.6c.8-.6.8-1.5,2.4-2,4.9-1.5.9-3.9-.2-5.6,0-.1-.2-.3-.3-.5,0-.2-.1-.4,0-.7h0Zm-5.3,11.7c2.1.5-.8,1.8-1.5,2.3-1,.8-1.9,1.3-2.3.8-.4-.5.5-2.1.8-2.5.6-.8,2-.9,3-.7h0Zm-20.7-.1c.3.1.6.3.9.5,0,0,.2.2.2.3.1.2.3.4.3.7.2.8,0,1.6.3,2.3.2.5.5.9.9,1.3.4.4,1,.6,1.4.8.9.4-.4.3-1.4,0-.9-.2-2.7-.9-2.7-2,0-.7.4-1.4.4-2.1,0-.1,0-.3,0-.4,0-.2-.1-.3-.2-.4-.2-.3-.5-.4-.8-.5-.5-.2-1.1-.2-1.5-.4-.2-.1-.3-.4-.4-.6,0,0,0-.2,0-.2,0-.3-.1-.5-.1-.8,0-.3,0-.5,0-.8,0-.6.3-1.1.7-1.6.3-.4.7-.9,1-1.3,0,0,0,0,0-.1-.3.8-.7,1.6-.9,2.4,0,.3-.1.6-.1,1,0,.2,0,.5,0,.7,0,.3,0,.6.3.7.6.3,1.3.4,1.9.6h0Zm35.1,2.9c.3-.6,3.6-2.3,4.4-3.4.4-.5.1-1.2.3-1.7.1-.3.3-.6.5-.9.2-.2.3-.5.3-.8,0-.1,0-.3,0-.5-.1-.9-.7-2.5-1.4-3.4,0,0,.1.1.2.2.5.5.8,1.1,1.3,1.6,0,0,0,0,0,0,.4.3.6.7.8,1.1,0,.2.1.4.2.5,0,.4-.1.8,0,1.2,0,0,0,.1,0,.2,0,.8.5,1.6.3,2.4-.3.9-1.5,1.8-2.4,2.5-.5.4-.9.8-1.1,1.1-.4.6-.6,1.4-.8,2.1,0,0,0,0,0,0-.3,1.1,0,2.6-.6,3.5-1,1.3-2.7,1.9-4.2,2.7-2.8,1.6-3,1.6-5.8,3.6-.4.3-.8.6-1.1.8-.8.6-1.5,1.1-2.4,1.5-2.2.9-5.4,1.3-7.8,1.1-1-.1-1.9-.3-2.5-.7-.7-.4-.9-.9.3-.6,1.3.3,5.6.5,8-1.4,0,0,0,0,0,0,.8-.7,1.5-1.6,2.3-2.4.3-.3.6-.5.9-.6,3.1-.8,5.4,0,7.5-2.9,2.6-3.6,1.7-4.4,2.9-7h0Zm-18.8,18.4c5-.1,5.4-.8,9.6-2,.4-.1.9.1,1.3,0,1.2-.3,1.9-1.4,2.8-2.4.2-.2.6-.5,1-.7.6-.3,1.3-.6,1.8-.6.2,0,.6,0,.6.2,0,.2-.3.4-.4.5-3.1,1.3-3.7,4.9-6.5,4.9-.6,0-1.2-.3-1.9-.3-3.1,0-4.9,1.1-7.5,1.5-.6,0-1.1-.3-1.7-.4-1,0-2.1.2-3.1,0-1.2-.1-2.3-.6-3.4-.8-1.9-.4-3.2.3-5,0-.4,0-.7-.4-1.2-.4-1.4-.1-2.2.4-4,0-.2,0-.4-.2-.6-.3-.3-.2-.5-.3-.8-.4-.3,0-.6,0-.9,0,0,0,0,0-.1,0-.9-.1-1.5-.7-1.7-1.6-.1-.4-.2-.9-.2-1.3.2.6.6,1.1,1.5,1.5.2,0,.4.2.7.2.6.2,1.4.1,2,.3.2,0,.5.1.6.2,1.8.6,2.3,1.2,4.9,1.2,1.8,0,3.5-.7,5.1-.8.8,0,1.5.1,2.3.3,2,.6,2.5,1.3,5,1.2h0Z"/><path class="cls-12" d="m63.3,16.5c.2-.3.3-.7.5-1,.3-.5.4-.8,1-.9.5,0,1,0,1.6,0,.2,0,.4,0,.5-.2,0,0,.1-.3.1-.4,0-.3,0-.6-.1-1-.2-.7,0-.7.8-1.4,0,0,.2-.2.2-.3,0,0,0,0,0,0,0,0,.4.3.7.6.4.5.7,1.1.7,1.2.5,1,.6,2.1,1,3.2.4,1,1.2,1.8,1.5,2.9.4,1,.7,2.1.7,3.2,0,1-.1,2-.3,2.9-.2,1.1-.7,2.1-1,3.2,0,.3-.2.5-.3.8-.2.2-.4.4-.6.6-.7.8-1.4,1.4-2.1,2.3-.7.9-1.2,1.8-1.7,2.7,0,0,0,0,0,0-.5.3-1,.5-1.6.7-1.6.5-3.2.9-4.8,1.1-1.2.1-2.4,0-3.6-.3-1.4-.3-2.7-.9-4.1-1.3-.9-.2-1.8-.1-2.6-.5-1.2-.6-2.2-1.4-3.2-2.3-.5-.4-.6-1.1-1-1.5-.4-.4-.8-.8-1.2-1.2.1,0,.3,0,.4,0,.9,0,1.9-.2,2.8-.5.7-.2,1.5-.5,2-1,.8-.7,1.3-1.7,2-2.4.5-.5.9-1,1.5-1.4.3-.2.6-.3,1-.4.5-.1,1-.1,1.5-.2.3,0,.7-.1,1-.3.7-.4,1.2-1,1.8-1.5.4-.4.6-1,1-1.3.2-.2.6-.3.9-.4.3-.1.7,0,1-.2.2-.1.4-.3.6-.5.4-.7.6-1.5,1-2.2.1-.2.4-.4.6-.6h0Zm-3.2-2.5c-.3.4-.5.9-.9,1.2-.9.8-1.9,1.7-3.1,1.9-.8.2-1.7.2-2.4.5-.7.3-1.2.9-1.8,1.4-2.3,1.9-3.2,3.5-6.5,3-1.5-.2-2.9-1.4-4.2-2.1-.3-.2-.5-.3-.8-.4-1-.4-1.7-1.1-2-2.1-.1-.4-.3-.8-.4-1.2-.2-.7-.5-1.5-.4-2.2.1-1.1.5-2.1,1-3.1.2-.5.6-.8.9-1.3.7-1.1,1.2-2.3,2-3.2.7-.8,1.5-1.6,2.5-2.1.9-.5,1.9-.6,2.8-.9.4-.1.8-.4,1.2-.5.7-.2,1.3-.4,2-.5.7,0,1.4,0,2,0,.8,0,1.6.2,2.3.3,1,.2,2.1.4,3.1.7.5.2,1,.5,1.4.8.5.2,1.1.3,1.6.7.5.3.8.9,1.3,1.3.1,0,.2.1.3.2.4.2.7.4.9.6.3.3.6.6.8.9.4.5,1.1,2.3.8,3-.1.3-.4.6-.6.8-.6.4-1.9.6-2.7,1.1-.5.3-1,.7-1.4,1.2h0Z"/><g class="cls-15"><path class="cls-8" d="m56.4,43c-.3,0-.5,0-.8,0-.6,0-1.3.2-1.9.3-.4,0-.9,0-1.3,0-.6,0-1.3-.2-1.9-.4-.9-.3-1.8-.7-2.7-1-.2,0-.4,0-.5,0,0,0,0,.2,0,.2.4.3,1,.5,1.4.8.6.3,1.2.6,1.7,1,.2.2.3.4.4.6,0,.3,0,.6,0,.8-.2.4-.6.9-1,1.2-.1,0,0,.1,0,.1.3,0,.8-.3,1.2-.5.7-.4,1.1-1.1,1.8-1.5.2-.1.5,0,.7,0,.7-.3,1.2-.6,1.8-1,.3-.2.7-.3,1-.4,0,0,.2-.2,0-.3Zm-10.4-1.7c-.9-.3-2.5-.9-3.5-.9-.2,0-.4.1-.7.1-.3,0-.6,0-.9,0-.4,0-.9,0-1.3.2-1.8.7,1.4,1.6,2.1,1.6.3,0,.6-.2.8-.3.3-.1.5-.4.8-.5.2,0,.4,0,.6,0,.2,0,.4,0,.7,0,.6,0,1,0,1.4.2.1,0,.4,0,.4,0,0-.2-.2-.3-.3-.3Zm26.4-13c0,0-.2,0-.2,0-.6.6-.8,1.4-1.2,1.8-.3.3-.7.4-1,.7-.2.2-.3.5-.3.7,0,.2.2.3.3.3.1,0,.3,0,.4,0,.2-.2.2-.5.4-.7.2-.2.5-.2.6-.4.4-.6.6-1.3.8-2,0-.1,0-.3,0-.5Zm-1.8,10.3c-.2,0-.4.1-.6.2-.6.4-1.2.9-1.8,1.2-.4.2-1.5.6-1.2-.3.2-.7.8-1.2,1-1.8,0-.3,0-.6.1-.9.1-.4.3-.7.5-1.1.2-.3.4-.7.4-1,.1-.5,0-1,.2-1.5.1-.4.5-.7.7-1,0-.1,0-.3-.1-.4-.2,0-.4,0-.5,0-.3.2-.7.3-.9.7-.3.4-.2.9-.4,1.3-.5,1-1.1,1.9-1.6,3-.3.6-.6,1.2-1,1.7-.6.6-1.3,1-2,1.4-.9.5-1.8.9-2.8,1.3-.8.4-3.2,1.1-3,1.5.2.4,2.6.4,3.2.2.5-.2.8-.7,1.3-1,.3-.1.6-.2.9-.3.3-.1.6-.3.9-.4,1.6-.6,2.5-.3,3.6-.6.3,0,.5-.4.8-.5.6-.2,1.3-.3,1.8-.6.3-.2.5-.6.6-.9,0-.1.1-.3,0-.3Zm-9.7-20.2c-.3.2-.6.3-.9.5-.1.1-.2.6,0,.7.4,0,1,0,1.3-.3.2-.2.3-.5.4-.8,0-.3.2-.5.1-.8,0,0-.1-.1-.2,0-.3.3-.6.6-.8.8Zm-21.1,2.3c.3.2.7.3,1.1.5.6.4,1.2.8,1.7,1.3,1,.9,1.6,2.1,3.4,1.9,3.2-.4,3.1-1.7,4.7-2.7.6-.4,1.3-.5,1.9-.7.9-.3,1.5-.5,2.3-.9.3-.2.6-.6.9-.8.7-.3,1.4-.3,2.2-.5.6-.1,1-.2,1.5-.6.5-.3.7-.9,1-1.3,1.1-1.3,1.7-1.2,2.9-1.9.3-.2.4-.5.7-.6.5-.3,1.1-.3,1.6-.5.2,0,.2-.3.2-.5,0-.3-.3-.6-.3-1,0-.2,0-.4.2-.5.5-.2,1.1-.1,1.6-.4.2,0,.1-.4,0-.5-.2-.7-1-1.2-1.9-1.8-.3-.3-.6-.6-.9-.9,0,0-.2-.1-.3,0,0,0,0,.1,0,.2.2.3.5.5.7.8.4.5.6,1.3.6,1.9,0,.4-.2.8-.5,1-.3.3-.8.3-1.2.5-.6.2-1.2.3-1.7.6-.3.2-.5.5-.7.7-1,1.6-2,2.5-3.8,3.3-.6.3-1.4.3-2,.5-.4,0-.9,0-1.3.2-.5.2-.9.5-1.3.9-1.3,1-2.4,2.3-3.7,3.2-1.7,1.3-3.5,1.2-5.3.3-.8-.4-1.4-.9-2.2-1.3-.6-.3-1.3-.6-1.9-.8-.2,0-.5,0-.6.1,0,.2.2.3.3.4Zm.3,5c.2-.3,0-.8-.2-1.1-.7-.8-1.8-1.3-2.5-2-.4-.4-.5-1.2-1-1.5-.6-.4-1.3-.4-2-.7-.4-.2-.8-.5-1.1-.8-.2-.2-.4-.4-.5-.7-.2-.3-.4-.6-.6-.8,0,0-.2-.1-.3,0,0,0,0,.2,0,.3.2.5.4,1,.7,1.5.2.4.4.8.7,1.1.3.3.7.5.9.8.3.3.6.6.7,1,.1.3.2.6,0,.9-.4.4-1.1.4-1.5.7-.2.2-.2.6-.4.7-.3.2-.7,0-1,0-1,0-2.1-.3-3.1-.4-.1,0-.3,0-.4,0,0,0,.2.2.3.2.8.2,1.6.3,2.3.6.5.2.9.6,1.4.7.4,0,.9,0,1.3-.1.4-.2.5-.7.9-.9.3-.2.6-.4,1-.3,1.2.2,2.3.7,3.4.9.3,0,.8.1,1-.1Zm9.4,1.5c.8-1,.7-1.3,2.1-2.4.1-.1.4-.2.3-.4,0-.2-.3-.2-.4-.2-.5.1-.9.3-1.3.6-1,.7-1.1,1.6-2.7,1.7-.5,0-1.1,0-1.5-.2-.5-.2-4.1-2.1-4.7-.7-.2.4.1.8.3,1.1.2.3.8.1,1.1.4.5.4.4,1.4,1.7,1.7.9.2,1.7-.6,2.5-.7,1-.2,1.3.7,2.6-.9Z"/></g><path class="cls-5" d="m13.1,19.1s0,0,0,0c-2.9,3.5,2,8.1,8.5,11.5,13.5,7,34.7,11.2,49.8,9.9,6.3-.5,12.9-2.4,13.1-6.2,0,0,0,0,0,0,3.9-.2,7.9.6,11.8,2.5,0,0,0,0,0,0,0,2.8-2.2,5-5.4,6.3-11.5,4.9-32.5,3.1-46.2.4S11.3,34.6,2.8,25.6c-3.6-3.8-3.3-6.7-1.2-8.9,0,0,0,0,0,0,4.3.3,8.1,1.2,11.6,2.5h0Z"/><path class="cls-2" d="m77,23.7c2,.7,5,2.1,7.2,3.5,11.9,7.8,3.6,13.4-6.6,15-15.2,2.3-40.3-2.5-49.8-5.7,20.4,7,38.6,9,50,7.8,9.3-1,14.8-4,15.6-8,.7-3.7-5.5-9.9-16.3-12.5h0Z"/><path class="cls-13" d="m81.8,27.9c1.9,1.3,4.3,3.6,4.3,6.2-.1,6.6-14.7,7.5-19.4,7.6,4.1.3,16.5.3,20.5-4.9,1.2-1.5,1-3,.3-4.4-1.2-2.2-4-3.9-5.6-4.6h0Z"/><path class="cls-6" d="m23.7,13.9c-8.9.4-12.8,3.3-13.5,6.4-1,4.8,6,11.2,14.5,15.2-12.5-4.3-19.7-10.9-18.3-15.7,1-3.3,7-6.8,17.3-5.9h0Z"/><path class="cls-14" d="m11.4,13.3c-3,.4-8.9,1.8-10,5.6-3,10.4,25.8,19.8,35.7,21.6C28.2,38,1.8,29.9,3.4,19.2c.5-3.5,4.6-5,8-5.9h0Z"/></g></g></g></svg>