<svg width="183" height="147" viewBox="0 0 183 147" fill="none" xmlns="http://www.w3.org/2000/svg">
<path d="M86.6875 9.375V116.594L27.375 105.188V10.2305C27.375 4.52734 32.2227 0.25 37.9258 1.39062L86.6875 9.375ZM25.3789 116.023L91.25 129.141L156.836 116.023C161.113 115.168 164.25 111.176 164.25 106.898V8.51953L171.379 7.09375C177.082 5.95312 182.5 10.2305 182.5 15.9336V120.586C182.5 125.148 179.363 128.855 175.086 129.711L91.25 146.25L7.12891 129.711C2.85156 128.855 0 124.863 0 120.586V15.9336C0 10.2305 5.13281 5.95312 10.8359 7.09375L18.25 8.51953V106.898C18.25 111.461 21.1016 115.168 25.3789 116.023ZM95.8125 116.594V9.375L144.289 1.39062C149.992 0.25 155.125 4.52734 155.125 10.2305V105.188L95.8125 116.594Z" fill="#DFF9FB"/>
</svg>
