<?xml version="1.0" encoding="UTF-8"?><svg id="Layer_2" xmlns="http://www.w3.org/2000/svg" viewBox="0 0 130.35 28.21"><defs><style>.cls-1{fill:#fff;}.cls-2{fill:#72cbe6;}.cls-3{fill:#83d0e3;}.cls-4{fill:#b8e2e6;}.cls-5{fill:#327bc0;}.cls-6{fill:#2469b1;}.cls-7{fill:#3d92cf;}.cls-8{fill:#53c3e3;}.cls-9{fill:#3ab4c8;}.cls-10{font-family:Roboto-Medium, Roboto;font-size:12.06px;font-weight:500;}.cls-11{font-family:Roboto-Light, Roboto;font-size:10.05px;font-weight:300;}</style></defs><g id="Layer_1-2"><path id="Path_1" class="cls-3" d="m8.79,0l-4.39,8.79h8.78L8.79,0Z"/><path id="Path_2" class="cls-4" d="m0,0l4.39,8.79L8.79,0H0Z"/><path id="Path_3" class="cls-2" d="m8.79,0l4.39,8.79L17.57,0h-8.79Z"/><path id="Path_4" class="cls-9" d="m17.57,0l4.39,8.79L26.36,0h-8.79Z"/><path id="Path_5" class="cls-8" d="m17.57,0l-4.39,8.79h8.78L17.57,0Z"/><path id="Path_6" class="cls-7" d="m26.36,0l-4.39,8.79h8.78L26.36,0Z"/><path id="Path_7" class="cls-5" d="m26.38,17.57l-4.39-8.79h8.78l-4.39,8.79Z"/><path id="Path_8" class="cls-6" d="m30.76,8.79l-4.39,8.79h8.78l-4.39-8.79Z"/><path id="Path_10" class="cls-6" d="m17.6,10.64h-8.79l4.39,8.79,4.4-8.79Z"/><path id="Path_11" class="cls-7" d="m13.2,19.42l4.39,8.79,4.39-8.79h-8.78Z"/><path id="Path_12" class="cls-5" d="m21.99,19.42h-8.79l4.39-8.79,4.4,8.79Z"/><path id="Path_13" class="cls-9" d="m17.6,28.21h8.79l-4.4-8.79-4.39,8.79Z"/><path id="Path_14" class="cls-8" d="m21.99,19.42l4.39,8.79,4.39-8.79h-8.78Z"/><path id="Path_15" class="cls-3" d="m30.78,19.42l4.39,8.79,4.39-8.79h-8.78Z"/><path id="Path_16" class="cls-2" d="m26.38,28.21h8.79l-4.39-8.79-4.39,8.79Z"/><path id="Path_17" class="cls-4" d="m35.17,28.21h8.79l-4.39-8.79-4.4,8.79Z"/><text class="cls-1" transform="translate(51.08 11.87)"><tspan class="cls-10"><tspan x="0" y="0">RICK LEMMEN</tspan></tspan><tspan class="cls-11"><tspan x="0" y="12.06">WEB &amp; APPS</tspan></tspan></text></g></svg>